<?xml version="1.0" encoding="UTF-8" standalone="no"?>
<!DOCTYPE svg PUBLIC "-//W3C//DTD SVG 1.1//EN"
 "http://www.w3.org/Graphics/SVG/1.1/DTD/svg11.dtd">
<!-- Generated by graphviz version 2.40.1 (0)
 -->
<!-- Title: %3 Pages: 1 -->
<svg width="661pt" height="179pt"
 viewBox="0.00 0.00 661.00 179.00" xmlns="http://www.w3.org/2000/svg" xmlns:xlink="http://www.w3.org/1999/xlink">
<g id="graph0" class="graph" transform="scale(1 1) rotate(0) translate(4 175)">
<title>%3</title>
<polygon fill="#ffffff" stroke="transparent" points="-4,4 -4,-175 657,-175 657,4 -4,4"/>
<text text-anchor="middle" x="326.5" y="-157.4" font-family="Helvetica,sans-Serif" font-size="12.00" fill="#000000">IU/UM Dataflow</text>
<!-- um -->
<g id="node1" class="node">
<title>um</title>
<polygon fill="none" stroke="#000000" points="54,-46 0,-46 0,-10 54,-10 54,-46"/>
<text text-anchor="middle" x="27" y="-26.1" font-family="Helvetica,sans-Serif" font-size="8.00" fill="#000000">Michigan</text>
</g>
<!-- dropbox -->
<g id="node2" class="node">
<title>dropbox</title>
<polygon fill="none" stroke="#000000" points="172,-46 118,-46 118,-10 172,-10 172,-46"/>
<text text-anchor="middle" x="145" y="-30.6" font-family="Helvetica,sans-Serif" font-size="8.00" fill="#000000">Dropbox</text>
<text text-anchor="middle" x="145" y="-21.6" font-family="Helvetica,sans-Serif" font-size="8.00" fill="#000000">on Capybara</text>
</g>
<!-- um&#45;&gt;dropbox -->
<g id="edge1" class="edge">
<title>um&#45;&gt;dropbox</title>
<path fill="none" stroke="#000000" stroke-width="2" d="M54.0716,-28C70.5931,-28 91.8946,-28 109.7265,-28"/>
<polygon fill="#000000" stroke="#000000" stroke-width="2" points="110.1458,-30.6251 117.6458,-28 110.1457,-25.3751 110.1458,-30.6251"/>
<text text-anchor="middle" x="86" y="-30.6" font-family="Helvetica,sans-Serif" font-size="8.00" fill="#000000">upload</text>
</g>
<!-- dropbox&#45;&gt;um -->
<g id="edge8" class="edge">
<title>dropbox&#45;&gt;um</title>
<path fill="none" stroke="#000000" stroke-width="2" d="M117.661,-18.7783C111.8931,-17.2079 105.7972,-15.8206 100,-15 87.6784,-13.2559 84.3216,-13.2559 72,-15 68.6485,-15.4744 65.1971,-16.1382 61.7671,-16.9173"/>
<polygon fill="#000000" stroke="#000000" stroke-width="2" points="60.9762,-14.4093 54.339,-18.7783 62.2521,-19.5019 60.9762,-14.4093"/>
<text text-anchor="middle" x="86" y="-17.6" font-family="Helvetica,sans-Serif" font-size="8.00" fill="#000000">retrieve</text>
</g>
<!-- workspace -->
<g id="node3" class="node">
<title>workspace</title>
<polygon fill="none" stroke="#000000" points="283,-85 229,-85 229,-49 283,-49 283,-85"/>
<text text-anchor="middle" x="256" y="-69.6" font-family="Helvetica,sans-Serif" font-size="8.00" fill="#000000">Work disk</text>
<text text-anchor="middle" x="256" y="-60.6" font-family="Helvetica,sans-Serif" font-size="8.00" fill="#000000">on Capybara</text>
</g>
<!-- dropbox&#45;&gt;workspace -->
<g id="edge2" class="edge">
<title>dropbox&#45;&gt;workspace</title>
<path fill="none" stroke="#000000" stroke-width="2" d="M172.1537,-37.5405C187.07,-42.7814 205.7207,-49.3343 221.642,-54.9283"/>
<polygon fill="#000000" stroke="#000000" stroke-width="2" points="220.7958,-57.4132 228.742,-57.4229 222.5362,-52.4601 220.7958,-57.4132"/>
<text text-anchor="middle" x="200.5" y="-53.6" font-family="Helvetica,sans-Serif" font-size="8.00" fill="#000000">move</text>
</g>
<!-- sda -->
<g id="node4" class="node">
<title>sda</title>
<polygon fill="none" stroke="#000000" points="413,-36 359,-36 359,0 413,0 413,-36"/>
<text text-anchor="middle" x="386" y="-20.6" font-family="Helvetica,sans-Serif" font-size="8.00" fill="#000000">Scholarly</text>
<text text-anchor="middle" x="386" y="-11.6" font-family="Helvetica,sans-Serif" font-size="8.00" fill="#000000">Data Archive</text>
</g>
<!-- workspace&#45;&gt;sda -->
<g id="edge3" class="edge">
<title>workspace&#45;&gt;sda</title>
<path fill="none" stroke="#000000" stroke-width="2" d="M283.3805,-53.5943C289.1454,-50.9495 295.2295,-48.2876 301,-46 317.3843,-39.5048 335.9382,-33.268 351.5218,-28.336"/>
<polygon fill="#000000" stroke="#000000" stroke-width="2" points="352.5368,-30.769 358.9108,-26.0242 350.9691,-25.7585 352.5368,-30.769"/>
<text text-anchor="middle" x="321" y="-57.6" font-family="Helvetica,sans-Serif" font-size="8.00" fill="#000000">archive</text>
<text text-anchor="middle" x="321" y="-48.6" font-family="Helvetica,sans-Serif" font-size="8.00" fill="#000000">package</text>
</g>
<!-- hcp -->
<g id="node5" class="node">
<title>hcp</title>
<polygon fill="none" stroke="#000000" points="413,-150 359,-150 359,-114 413,-114 413,-150"/>
<text text-anchor="middle" x="386" y="-139.1" font-family="Helvetica,sans-Serif" font-size="8.00" fill="#000000">Hitachi</text>
<text text-anchor="middle" x="386" y="-130.1" font-family="Helvetica,sans-Serif" font-size="8.00" fill="#000000">Content</text>
<text text-anchor="middle" x="386" y="-121.1" font-family="Helvetica,sans-Serif" font-size="8.00" fill="#000000">Platform</text>
</g>
<!-- workspace&#45;&gt;hcp -->
<g id="edge4" class="edge">
<title>workspace&#45;&gt;hcp</title>
<path fill="none" stroke="#000000" stroke-width="2" d="M283.448,-82.6324C289.208,-85.8047 295.2731,-89.0659 301,-92 317.6153,-100.5127 336.3664,-109.4101 352.0213,-116.6461"/>
<polygon fill="#000000" stroke="#000000" stroke-width="2" points="351.0668,-119.0964 358.9774,-119.8465 353.2611,-114.327 351.0668,-119.0964"/>
<text text-anchor="middle" x="321" y="-122.6" font-family="Helvetica,sans-Serif" font-size="8.00" fill="#000000">distribute</text>
<text text-anchor="middle" x="321" y="-113.6" font-family="Helvetica,sans-Serif" font-size="8.00" fill="#000000">derivatives</text>
</g>
<!-- dark_avalon -->
<g id="node6" class="node">
<title>dark_avalon</title>
<polygon fill="none" stroke="#000000" points="529,-99 475,-99 475,-63 529,-63 529,-99"/>
<text text-anchor="middle" x="502" y="-79.1" font-family="Helvetica,sans-Serif" font-size="8.00" fill="#000000">Dark Avalon</text>
</g>
<!-- workspace&#45;&gt;dark_avalon -->
<g id="edge9" class="edge">
<title>workspace&#45;&gt;dark_avalon</title>
<path fill="none" stroke="#000000" stroke-width="2" stroke-dasharray="5,2" d="M283.2662,-68.5517C328.27,-71.1129 418.0213,-76.2207 467.4182,-79.0319"/>
<polygon fill="#000000" stroke="#000000" stroke-width="2" points="467.3495,-81.6572 474.9866,-79.4627 467.6479,-76.4157 467.3495,-81.6572"/>
<text text-anchor="middle" x="386" y="-86.6" font-family="Helvetica,sans-Serif" font-size="8.00" fill="#000000">distribute</text>
<text text-anchor="middle" x="386" y="-77.6" font-family="Helvetica,sans-Serif" font-size="8.00" fill="#000000">metadata</text>
</g>
<!-- sda&#45;&gt;dropbox -->
<g id="edge7" class="edge">
<title>sda&#45;&gt;dropbox</title>
<path fill="none" stroke="#000000" stroke-width="2" d="M358.922,-19.1236C315.0248,-20.945 228.3673,-24.5408 179.9024,-26.5518"/>
<polygon fill="#000000" stroke="#000000" stroke-width="2" points="179.562,-23.9385 172.1773,-26.8723 179.7797,-29.184 179.562,-23.9385"/>
<text text-anchor="middle" x="256" y="-27.6" font-family="Helvetica,sans-Serif" font-size="8.00" fill="#000000">retrieve</text>
</g>
<!-- hcp&#45;&gt;dark_avalon -->
<g id="edge5" class="edge">
<title>hcp&#45;&gt;dark_avalon</title>
<path fill="none" stroke="#000000" stroke-width="2" d="M413.1148,-119.9146C419.0078,-117.2976 425.2104,-114.5505 431,-112 442.926,-106.7463 455.995,-101.0288 467.6334,-95.9511"/>
<polygon fill="#000000" stroke="#000000" stroke-width="2" points="468.8464,-98.286 474.6721,-92.8821 466.748,-93.4735 468.8464,-98.286"/>
<text text-anchor="middle" x="444" y="-114.6" font-family="Helvetica,sans-Serif" font-size="8.00" fill="#000000">stream</text>
</g>
<!-- avalon -->
<g id="node7" class="node">
<title>avalon</title>
<polygon fill="none" stroke="#000000" points="653,-126 599,-126 599,-90 653,-90 653,-126"/>
<text text-anchor="middle" x="626" y="-115.1" font-family="Helvetica,sans-Serif" font-size="8.00" fill="#000000">Media</text>
<text text-anchor="middle" x="626" y="-106.1" font-family="Helvetica,sans-Serif" font-size="8.00" fill="#000000">Collections</text>
<text text-anchor="middle" x="626" y="-97.1" font-family="Helvetica,sans-Serif" font-size="8.00" fill="#000000">Online</text>
</g>
<!-- hcp&#45;&gt;avalon -->
<g id="edge6" class="edge">
<title>hcp&#45;&gt;avalon</title>
<path fill="none" stroke="#000000" stroke-width="2" d="M413.2923,-131.6675C451.1504,-130.8691 521.6481,-128.1618 581,-119 584.3085,-118.4893 587.7308,-117.8538 591.1425,-117.1477"/>
<polygon fill="#000000" stroke="#000000" stroke-width="2" points="591.7898,-119.6931 598.5457,-115.51 590.6558,-114.567 591.7898,-119.6931"/>
<text text-anchor="middle" x="502" y="-131.6" font-family="Helvetica,sans-Serif" font-size="8.00" fill="#000000">stream</text>
</g>
<!-- dark_avalon&#45;&gt;avalon -->
<g id="edge10" class="edge">
<title>dark_avalon&#45;&gt;avalon</title>
<path fill="none" stroke="#000000" stroke-width="2" stroke-dasharray="5,2" d="M529.2123,-86.9253C547.4642,-90.8995 571.6629,-96.1685 591.2978,-100.4439"/>
<polygon fill="#000000" stroke="#000000" stroke-width="2" points="590.9643,-103.0577 598.8512,-102.0886 592.0814,-97.9279 590.9643,-103.0577"/>
<text text-anchor="middle" x="564" y="-108.6" font-family="Helvetica,sans-Serif" font-size="8.00" fill="#000000">publish</text>
<text text-anchor="middle" x="564" y="-99.6" font-family="Helvetica,sans-Serif" font-size="8.00" fill="#000000">metadata</text>
</g>
</g>
</svg>
