<?xml version="1.0" encoding="UTF-8" standalone="no"?>
<!DOCTYPE svg PUBLIC "-//W3C//DTD SVG 1.1//EN"
 "http://www.w3.org/Graphics/SVG/1.1/DTD/svg11.dtd">
<!-- Generated by graphviz version 2.44.0 (0)
 -->
<!-- Pages: 1 -->
<svg width="520pt" height="124pt"
 viewBox="0.00 0.00 520.00 124.00" xmlns="http://www.w3.org/2000/svg" xmlns:xlink="http://www.w3.org/1999/xlink">
<g id="graph0" class="graph" transform="scale(1 1) rotate(0) translate(4 120)">
<polygon fill="white" stroke="transparent" points="-4,4 -4,-120 516,-120 516,4 -4,4"/>
<text text-anchor="middle" x="256" y="-102.4" font-family="Helvetica" font-size="12.00">IU/UM Dataflow</text>
<!-- um -->
<g id="node1" class="node">
<title>um</title>
<polygon fill="none" stroke="black" points="54,-46 0,-46 0,-10 54,-10 54,-46"/>
<text text-anchor="middle" x="27" y="-26.1" font-family="Helvetica" font-size="8.00">Michigan</text>
</g>
<!-- dropbox -->
<g id="node2" class="node">
<title>dropbox</title>
<polygon fill="none" stroke="black" points="171,-46 117,-46 117,-10 171,-10 171,-46"/>
<text text-anchor="middle" x="144" y="-30.6" font-family="Helvetica" font-size="8.00">Dropbox</text>
<text text-anchor="middle" x="144" y="-21.6" font-family="Helvetica" font-size="8.00">on Capybara</text>
</g>
<!-- um&#45;&gt;dropbox -->
<g id="edge1" class="edge">
<title>um&#45;&gt;dropbox</title>
<path fill="none" stroke="black" stroke-width="2" d="M54.1,-28C70.3,-28 91.31,-28 108.83,-28"/>
<polygon fill="black" stroke="black" stroke-width="2" points="109.11,-30.63 116.61,-28 109.11,-25.38 109.11,-30.63"/>
<text text-anchor="middle" x="85.5" y="-30.6" font-family="Helvetica" font-size="8.00">upload</text>
</g>
<!-- dropbox&#45;&gt;um -->
<g id="edge7" class="edge">
<title>dropbox&#45;&gt;um</title>
<path fill="none" stroke="black" stroke-width="2" d="M116.75,-18.91C110.97,-17.29 104.83,-15.84 99,-15 87.12,-13.28 83.88,-13.28 72,-15 68.63,-15.49 65.15,-16.18 61.71,-16.98"/>
<polygon fill="black" stroke="black" stroke-width="2" points="60.85,-14.49 54.25,-18.91 62.17,-19.57 60.85,-14.49"/>
<text text-anchor="middle" x="85.5" y="-17.6" font-family="Helvetica" font-size="8.00">retrieve</text>
</g>
<!-- workspace -->
<g id="node3" class="node">
<title>workspace</title>
<polygon fill="none" stroke="black" points="281,-75 227,-75 227,-39 281,-39 281,-75"/>
<text text-anchor="middle" x="254" y="-59.6" font-family="Helvetica" font-size="8.00">Work disk</text>
<text text-anchor="middle" x="254" y="-50.6" font-family="Helvetica" font-size="8.00">on Capybara</text>
</g>
<!-- dropbox&#45;&gt;workspace -->
<g id="edge2" class="edge">
<title>dropbox&#45;&gt;workspace</title>
<path fill="none" stroke="black" stroke-width="2" d="M171.14,-35.02C185.63,-38.91 203.8,-43.79 219.33,-47.96"/>
<polygon fill="black" stroke="black" stroke-width="2" points="218.8,-50.53 226.72,-49.94 220.16,-45.46 218.8,-50.53"/>
<text text-anchor="middle" x="199" y="-48.6" font-family="Helvetica" font-size="8.00">move</text>
</g>
<!-- sda -->
<g id="node4" class="node">
<title>sda</title>
<polygon fill="none" stroke="black" points="397,-36 343,-36 343,0 397,0 397,-36"/>
<text text-anchor="middle" x="370" y="-20.6" font-family="Helvetica" font-size="8.00">Scholarly</text>
<text text-anchor="middle" x="370" y="-11.6" font-family="Helvetica" font-size="8.00">Data Archive</text>
</g>
<!-- workspace&#45;&gt;sda -->
<g id="edge3" class="edge">
<title>workspace&#45;&gt;sda</title>
<path fill="none" stroke="black" stroke-width="2" d="M281.15,-48.05C297.37,-42.5 318.36,-35.32 335.76,-29.37"/>
<polygon fill="black" stroke="black" stroke-width="2" points="336.72,-31.82 342.97,-26.91 335.02,-26.85 336.72,-31.82"/>
<text text-anchor="middle" x="312" y="-43.6" font-family="Helvetica" font-size="8.00">archive</text>
</g>
<!-- hcp -->
<g id="node5" class="node">
<title>hcp</title>
<polygon fill="none" stroke="black" points="397,-95 343,-95 343,-59 397,-59 397,-95"/>
<text text-anchor="middle" x="370" y="-84.1" font-family="Helvetica" font-size="8.00">Hitachi</text>
<text text-anchor="middle" x="370" y="-75.1" font-family="Helvetica" font-size="8.00">Content</text>
<text text-anchor="middle" x="370" y="-66.1" font-family="Helvetica" font-size="8.00">Platform</text>
</g>
<!-- workspace&#45;&gt;hcp -->
<g id="edge4" class="edge">
<title>workspace&#45;&gt;hcp</title>
<path fill="none" stroke="black" stroke-width="2" d="M281.15,-61.59C297.23,-64.41 317.99,-68.05 335.29,-71.09"/>
<polygon fill="black" stroke="black" stroke-width="2" points="335.13,-73.72 342.97,-72.43 336.03,-68.55 335.13,-73.72"/>
<text text-anchor="middle" x="312" y="-70.6" font-family="Helvetica" font-size="8.00">publish</text>
</g>
<!-- sda&#45;&gt;dropbox -->
<g id="edge6" class="edge">
<title>sda&#45;&gt;dropbox</title>
<path fill="none" stroke="black" stroke-width="2" d="M342.81,-18.05C314.3,-18.22 267.38,-18.85 227,-21 211.23,-21.84 193.79,-23.26 179.06,-24.6"/>
<polygon fill="black" stroke="black" stroke-width="2" points="178.41,-22.02 171.19,-25.33 178.9,-27.25 178.41,-22.02"/>
<text text-anchor="middle" x="254" y="-23.6" font-family="Helvetica" font-size="8.00">retrieve</text>
</g>
<!-- avalon -->
<g id="node6" class="node">
<title>avalon</title>
<polygon fill="none" stroke="black" points="512,-95 458,-95 458,-59 512,-59 512,-95"/>
<text text-anchor="middle" x="485" y="-84.1" font-family="Helvetica" font-size="8.00">Media</text>
<text text-anchor="middle" x="485" y="-75.1" font-family="Helvetica" font-size="8.00">Collections</text>
<text text-anchor="middle" x="485" y="-66.1" font-family="Helvetica" font-size="8.00">Online</text>
</g>
<!-- hcp&#45;&gt;avalon -->
<g id="edge5" class="edge">
<title>hcp&#45;&gt;avalon</title>
<path fill="none" stroke="black" stroke-width="2" d="M397.21,-77C413.04,-77 433.37,-77 450.38,-77"/>
<polygon fill="black" stroke="black" stroke-width="2" points="450.43,-79.63 457.93,-77 450.43,-74.38 450.43,-79.63"/>
<text text-anchor="middle" x="427.5" y="-79.6" font-family="Helvetica" font-size="8.00">stream</text>
</g>
</g>
</svg>
