<?xml version="1.0" encoding="UTF-8" standalone="no"?>
<!DOCTYPE svg PUBLIC "-//W3C//DTD SVG 1.1//EN"
 "http://www.w3.org/Graphics/SVG/1.1/DTD/svg11.dtd">
<!-- Generated by graphviz version 2.40.1 (0)
 -->
<!-- Title: %3 Pages: 1 -->
<svg width="2447pt" height="484pt"
 viewBox="0.00 0.00 2447.29 484.00" xmlns="http://www.w3.org/2000/svg" xmlns:xlink="http://www.w3.org/1999/xlink">
<g id="graph0" class="graph" transform="scale(1 1) rotate(0) translate(4 480)">
<title>%3</title>
<polygon fill="#ffffff" stroke="transparent" points="-4,4 -4,-480 2443.2865,-480 2443.2865,4 -4,4"/>
<text text-anchor="middle" x="1219.6433" y="-462.4" font-family="Helvetica,sans-Serif" font-size="12.00" fill="#000000">IU/UM object flow</text>
<!-- start -->
<g id="node1" class="node">
<title>start</title>
<polygon fill="none" stroke="#000000" points="54,-432 0,-432 0,-396 54,-396 54,-432"/>
<text text-anchor="middle" x="27" y="-412.1" font-family="Helvetica,sans-Serif" font-size="8.00" fill="#000000">START</text>
</g>
<!-- transferred -->
<g id="node2" class="node">
<title>transferred</title>
<ellipse fill="none" stroke="#000000" cx="151" cy="-414" rx="27" ry="18"/>
<text text-anchor="middle" x="151" y="-412.1" font-family="Helvetica,sans-Serif" font-size="8.00" fill="#000000">transferred</text>
</g>
<!-- start&#45;&gt;transferred -->
<g id="edge1" class="edge">
<title>start&#45;&gt;transferred</title>
<path fill="none" stroke="#000000" stroke-width="2" d="M54.2123,-414C72.4642,-414 96.6629,-414 116.2978,-414"/>
<polygon fill="#000000" stroke="#000000" stroke-width="2" points="116.3512,-416.6251 123.8512,-414 116.3511,-411.3751 116.3512,-416.6251"/>
<text text-anchor="middle" x="89" y="-425.6" font-family="Helvetica,sans-Serif" font-size="8.00" fill="#000000">Package</text>
<text text-anchor="middle" x="89" y="-416.6" font-family="Helvetica,sans-Serif" font-size="8.00" fill="#000000">delivered</text>
</g>
<!-- validating -->
<g id="node3" class="node">
<title>validating</title>
<ellipse fill="none" stroke="#000000" cx="242" cy="-414" rx="27" ry="18"/>
<text text-anchor="middle" x="242" y="-412.1" font-family="Helvetica,sans-Serif" font-size="8.00" fill="#000000">validating</text>
</g>
<!-- transferred&#45;&gt;validating -->
<g id="edge2" class="edge">
<title>transferred&#45;&gt;validating</title>
<path fill="none" stroke="#000000" stroke-width="2" d="M178.303,-414C187.3911,-414 197.6389,-414 207.2152,-414"/>
<polygon fill="#000000" stroke="#000000" stroke-width="2" points="207.2163,-416.6251 214.7163,-414 207.2162,-411.3751 207.2163,-416.6251"/>
</g>
<!-- validation_failed -->
<g id="node4" class="node">
<title>validation_failed</title>
<polygon fill="none" stroke="#000000" points="513.0647,-442.5623 476.0216,-455 438.9784,-442.5623 439.013,-422.4377 513.0301,-422.4377 513.0647,-442.5623"/>
<text text-anchor="middle" x="476.0216" y="-435.1" font-family="Helvetica,sans-Serif" font-size="8.00" fill="#000000">validation_failed</text>
</g>
<!-- validating&#45;&gt;validation_failed -->
<g id="edge4" class="edge">
<title>validating&#45;&gt;validation_failed</title>
<path fill="none" stroke="#000000" stroke-width="2" d="M268.8452,-416.6384C308.5039,-420.5361 383.2258,-427.8799 431.2594,-432.6007"/>
<polygon fill="#000000" stroke="#000000" stroke-width="2" points="431.0091,-435.2137 438.7299,-433.3349 431.5227,-429.9888 431.0091,-435.2137"/>
<text text-anchor="middle" x="318" y="-435.6" font-family="Helvetica,sans-Serif" font-size="8.00" fill="#000000">Package content</text>
<text text-anchor="middle" x="318" y="-426.6" font-family="Helvetica,sans-Serif" font-size="8.00" fill="#000000">isn&#39;t valid</text>
</g>
<!-- shaping -->
<g id="node5" class="node">
<title>shaping</title>
<ellipse fill="none" stroke="#000000" cx="394" cy="-391" rx="27" ry="18"/>
<text text-anchor="middle" x="394" y="-389.1" font-family="Helvetica,sans-Serif" font-size="8.00" fill="#000000">shaping</text>
</g>
<!-- validating&#45;&gt;shaping -->
<g id="edge3" class="edge">
<title>validating&#45;&gt;shaping</title>
<path fill="none" stroke="#000000" stroke-width="2" d="M264.4873,-403.9677C271.5574,-401.2343 279.4833,-398.5912 287,-397 310.7261,-391.9774 338.0312,-390.514 359.1196,-390.2875"/>
<polygon fill="#000000" stroke="#000000" stroke-width="2" points="359.3877,-392.9115 366.877,-390.2563 359.3665,-387.6615 359.3877,-392.9115"/>
<text text-anchor="middle" x="318" y="-408.6" font-family="Helvetica,sans-Serif" font-size="8.00" fill="#000000">Package content</text>
<text text-anchor="middle" x="318" y="-399.6" font-family="Helvetica,sans-Serif" font-size="8.00" fill="#000000">is valid</text>
</g>
<!-- cleaning -->
<g id="node21" class="node">
<title>cleaning</title>
<ellipse fill="none" stroke="#000000" cx="2096.2865" cy="-161" rx="27" ry="18"/>
<text text-anchor="middle" x="2096.2865" y="-159.1" font-family="Helvetica,sans-Serif" font-size="8.00" fill="#000000">cleaning</text>
</g>
<!-- validation_failed&#45;&gt;cleaning -->
<g id="edge5" class="edge">
<title>validation_failed&#45;&gt;cleaning</title>
<path fill="none" stroke="#000000" stroke-width="2" d="M513.0558,-437C544.2546,-437 590.067,-437 630.0431,-437 630.0431,-437 630.0431,-437 1947.2649,-437 1964.3764,-437 2037.5333,-385.0494 2051.2865,-364 2070.3176,-334.8727 2086.2033,-234.5078 2092.8898,-186.7049"/>
<polygon fill="#000000" stroke="#000000" stroke-width="2" points="2095.4961,-187.0196 2093.9199,-179.2314 2090.2953,-186.3027 2095.4961,-187.0196"/>
</g>
<!-- local_failed -->
<g id="node6" class="node">
<title>local_failed</title>
<polygon fill="none" stroke="#000000" points="657.0431,-402.5623 630.0431,-415 603.0431,-402.5623 603.0683,-382.4377 657.0179,-382.4377 657.0431,-402.5623"/>
<text text-anchor="middle" x="630.0431" y="-395.1" font-family="Helvetica,sans-Serif" font-size="8.00" fill="#000000">local_failed</text>
</g>
<!-- shaping&#45;&gt;local_failed -->
<g id="edge7" class="edge">
<title>shaping&#45;&gt;local_failed</title>
<path fill="none" stroke="#000000" stroke-width="2" d="M421.0771,-391.6883C464.0932,-392.7817 548.0073,-394.9147 595.3635,-396.1185"/>
<polygon fill="#000000" stroke="#000000" stroke-width="2" points="595.3549,-398.744 602.9192,-396.3105 595.4884,-393.4957 595.3549,-398.744"/>
</g>
<!-- accepted -->
<g id="node7" class="node">
<title>accepted</title>
<polygon fill="none" stroke="#000000" points="585.0431,-228.5623 558.0431,-241 531.0431,-228.5623 531.0683,-208.4377 585.0179,-208.4377 585.0431,-228.5623"/>
<text text-anchor="middle" x="558.0431" y="-221.1" font-family="Helvetica,sans-Serif" font-size="8.00" fill="#000000">accepted</text>
</g>
<!-- shaping&#45;&gt;accepted -->
<g id="edge6" class="edge">
<title>shaping&#45;&gt;accepted</title>
<path fill="none" stroke="#000000" stroke-width="2" d="M408.8471,-375.7948C439.1166,-344.7952 507.8399,-274.4142 540.3582,-241.1115"/>
<polygon fill="#000000" stroke="#000000" stroke-width="2" points="542.2623,-242.9189 545.6239,-235.7188 538.506,-239.251 542.2623,-242.9189"/>
<text text-anchor="middle" x="476.0216" y="-361.6" font-family="Helvetica,sans-Serif" font-size="8.00" fill="#000000">Working copy</text>
<text text-anchor="middle" x="476.0216" y="-352.6" font-family="Helvetica,sans-Serif" font-size="8.00" fill="#000000">restructured</text>
<text text-anchor="middle" x="476.0216" y="-343.6" font-family="Helvetica,sans-Serif" font-size="8.00" fill="#000000">like SDA</text>
</g>
<!-- local_failed&#45;&gt;cleaning -->
<g id="edge8" class="edge">
<title>local_failed&#45;&gt;cleaning</title>
<path fill="none" stroke="#000000" stroke-width="2" d="M657.2014,-397.5624C688.146,-398.154 740.2347,-399 785.0431,-399 785.0431,-399 785.0431,-399 1947.2649,-399 2046.4091,-399 2082.0767,-248.801 2092.5519,-187.0423"/>
<polygon fill="#000000" stroke="#000000" stroke-width="2" points="2095.2012,-187.1044 2093.814,-179.2803 2090.0193,-186.2618 2095.2012,-187.1044"/>
</g>
<!-- processing -->
<g id="node8" class="node">
<title>processing</title>
<ellipse fill="none" stroke="#000000" cx="702.0431" cy="-164" rx="27" ry="18"/>
<text text-anchor="middle" x="702.0431" y="-162.1" font-family="Helvetica,sans-Serif" font-size="8.00" fill="#000000">processing</text>
</g>
<!-- accepted&#45;&gt;processing -->
<g id="edge9" class="edge">
<title>accepted&#45;&gt;processing</title>
<path fill="none" stroke="#000000" stroke-width="2" d="M585.1284,-211.9026C609.7467,-201.8159 646.0294,-186.9501 671.6334,-176.4595"/>
<polygon fill="#000000" stroke="#000000" stroke-width="2" points="672.9372,-178.7622 678.882,-173.4896 670.9467,-173.9041 672.9372,-178.7622"/>
</g>
<!-- processing_failed -->
<g id="node9" class="node">
<title>processing_failed</title>
<polygon fill="none" stroke="#000000" points="994.5978,-78.5623 953.8945,-91 913.1912,-78.5623 913.2292,-58.4377 994.5598,-58.4377 994.5978,-78.5623"/>
<text text-anchor="middle" x="953.8945" y="-71.1" font-family="Helvetica,sans-Serif" font-size="8.00" fill="#000000">processing_failed</text>
</g>
<!-- processing&#45;&gt;processing_failed -->
<g id="edge11" class="edge">
<title>processing&#45;&gt;processing_failed</title>
<path fill="none" stroke="#000000" stroke-width="2" d="M723.2947,-152.8913C730.7122,-149.2073 739.1555,-145.227 747.0431,-142 804.8867,-118.3351 874.1485,-96.4974 916.0468,-83.9717"/>
<polygon fill="#000000" stroke="#000000" stroke-width="2" points="916.8488,-86.4719 923.2894,-81.8178 915.3522,-81.4397 916.8488,-86.4719"/>
<text text-anchor="middle" x="785.0431" y="-153.6" font-family="Helvetica,sans-Serif" font-size="8.00" fill="#000000">Derivative</text>
<text text-anchor="middle" x="785.0431" y="-144.6" font-family="Helvetica,sans-Serif" font-size="8.00" fill="#000000">creation failed</text>
</g>
<!-- processed -->
<g id="node10" class="node">
<title>processed</title>
<polygon fill="none" stroke="#000000" points="895.0431,-169.5623 868.0431,-182 841.0431,-169.5623 841.0683,-149.4377 895.0179,-149.4377 895.0431,-169.5623"/>
<text text-anchor="middle" x="868.0431" y="-162.1" font-family="Helvetica,sans-Serif" font-size="8.00" fill="#000000">processed</text>
</g>
<!-- processing&#45;&gt;processed -->
<g id="edge10" class="edge">
<title>processing&#45;&gt;processed</title>
<path fill="none" stroke="#000000" stroke-width="2" d="M729.0833,-164C757.5405,-164 802.425,-164 833.4452,-164"/>
<polygon fill="#000000" stroke="#000000" stroke-width="2" points="833.5145,-166.6251 841.0145,-164 833.5144,-161.3751 833.5145,-166.6251"/>
<text text-anchor="middle" x="785.0431" y="-175.6" font-family="Helvetica,sans-Serif" font-size="8.00" fill="#000000">Derivatives</text>
<text text-anchor="middle" x="785.0431" y="-166.6" font-family="Helvetica,sans-Serif" font-size="8.00" fill="#000000">created</text>
</g>
<!-- processing_failed&#45;&gt;cleaning -->
<g id="edge12" class="edge">
<title>processing_failed&#45;&gt;cleaning</title>
<path fill="none" stroke="#000000" stroke-width="2" d="M994.6323,-69.5461C1028.08,-67.0081 1076.6969,-64 1119.2459,-64 1119.2459,-64 1119.2459,-64 1947.2649,-64 1997.9968,-64 2010.329,-81.0633 2051.2865,-111 2061.8051,-118.6883 2071.702,-129.1713 2079.5214,-138.553"/>
<polygon fill="#000000" stroke="#000000" stroke-width="2" points="2077.5885,-140.3375 2084.3456,-144.5188 2081.6708,-137.0363 2077.5885,-140.3375"/>
</g>
<!-- distributing -->
<g id="node14" class="node">
<title>distributing</title>
<ellipse fill="none" stroke="#000000" cx="1042.2459" cy="-223" rx="27" ry="18"/>
<text text-anchor="middle" x="1042.2459" y="-221.1" font-family="Helvetica,sans-Serif" font-size="8.00" fill="#000000">distributing</text>
</g>
<!-- processed&#45;&gt;distributing -->
<g id="edge13" class="edge">
<title>processed&#45;&gt;distributing</title>
<path fill="none" stroke="#000000" stroke-width="2" d="M890.8171,-171.7132C921.4268,-182.0803 975.9842,-200.5581 1010.579,-212.2749"/>
<polygon fill="#000000" stroke="#000000" stroke-width="2" points="1010.1209,-214.8911 1018.0666,-214.8108 1011.8051,-209.9186 1010.1209,-214.8911"/>
</g>
<!-- storing -->
<g id="node11" class="node">
<title>storing</title>
<ellipse fill="none" stroke="#000000" cx="1635.4181" cy="-209" rx="27" ry="18"/>
<text text-anchor="middle" x="1635.4181" y="-207.1" font-family="Helvetica,sans-Serif" font-size="8.00" fill="#000000">storing</text>
</g>
<!-- sda_soft_failed -->
<g id="node12" class="node">
<title>sda_soft_failed</title>
<ellipse fill="none" stroke="#000000" cx="1803.8415" cy="-161" rx="28.3041" ry="18"/>
<text text-anchor="middle" x="1803.8415" y="-159.1" font-family="Helvetica,sans-Serif" font-size="8.00" fill="#000000">sda_soft_failed</text>
</g>
<!-- storing&#45;&gt;sda_soft_failed -->
<g id="edge32" class="edge">
<title>storing&#45;&gt;sda_soft_failed</title>
<path fill="none" stroke="#000000" stroke-width="2" d="M1660.2695,-201.9174C1689.4105,-193.6124 1737.8469,-179.8082 1770.3004,-170.5591"/>
<polygon fill="#000000" stroke="#000000" stroke-width="2" points="1771.286,-173.0078 1777.7793,-168.4276 1769.847,-167.9588 1771.286,-173.0078"/>
<text text-anchor="middle" x="1723.9396" y="-194.6" font-family="Helvetica,sans-Serif" font-size="8.00" fill="#000000">Push to SDA failed</text>
</g>
<!-- finished -->
<g id="node22" class="node">
<title>finished</title>
<polygon fill="none" stroke="#000000" points="1830.8415,-225.5623 1803.8415,-238 1776.8415,-225.5623 1776.8667,-205.4377 1830.8163,-205.4377 1830.8415,-225.5623"/>
<text text-anchor="middle" x="1803.8415" y="-218.1" font-family="Helvetica,sans-Serif" font-size="8.00" fill="#000000">finished</text>
</g>
<!-- storing&#45;&gt;finished -->
<g id="edge31" class="edge">
<title>storing&#45;&gt;finished</title>
<path fill="none" stroke="#000000" stroke-width="2" d="M1662.4782,-210.7673C1691.4524,-212.6597 1737.5172,-215.6683 1769.1394,-217.7335"/>
<polygon fill="#000000" stroke="#000000" stroke-width="2" points="1769.1934,-220.3676 1776.8485,-218.237 1769.5356,-215.1287 1769.1934,-220.3676"/>
<text text-anchor="middle" x="1723.9396" y="-227.6" font-family="Helvetica,sans-Serif" font-size="8.00" fill="#000000">Package</text>
<text text-anchor="middle" x="1723.9396" y="-218.6" font-family="Helvetica,sans-Serif" font-size="8.00" fill="#000000">pushed to SDA</text>
</g>
<!-- sda_hard_failed -->
<g id="node13" class="node">
<title>sda_hard_failed</title>
<polygon fill="none" stroke="#000000" points="1984.3081,-166.5623 1947.2649,-179 1910.2218,-166.5623 1910.2564,-146.4377 1984.2735,-146.4377 1984.3081,-166.5623"/>
<text text-anchor="middle" x="1947.2649" y="-159.1" font-family="Helvetica,sans-Serif" font-size="8.00" fill="#000000">sda_hard_failed</text>
</g>
<!-- sda_soft_failed&#45;&gt;sda_hard_failed -->
<g id="edge34" class="edge">
<title>sda_soft_failed&#45;&gt;sda_hard_failed</title>
<path fill="none" stroke="#000000" stroke-width="2" d="M1832.5207,-161C1852.5711,-161 1879.7437,-161 1902.6134,-161"/>
<polygon fill="#000000" stroke="#000000" stroke-width="2" points="1902.6878,-163.6251 1910.1878,-161 1902.6878,-158.3751 1902.6878,-163.6251"/>
<text text-anchor="middle" x="1871.2434" y="-172.6" font-family="Helvetica,sans-Serif" font-size="8.00" fill="#000000">SDA retries</text>
<text text-anchor="middle" x="1871.2434" y="-163.6" font-family="Helvetica,sans-Serif" font-size="8.00" fill="#000000">exhausted</text>
</g>
<!-- distributed -->
<g id="node20" class="node">
<title>distributed</title>
<polygon fill="none" stroke="#000000" points="1521.9946,-166.5623 1494.9946,-179 1467.9946,-166.5623 1468.0198,-146.4377 1521.9694,-146.4377 1521.9946,-166.5623"/>
<text text-anchor="middle" x="1494.9946" y="-159.1" font-family="Helvetica,sans-Serif" font-size="8.00" fill="#000000">distributed</text>
</g>
<!-- sda_soft_failed&#45;&gt;distributed -->
<g id="edge33" class="edge">
<title>sda_soft_failed&#45;&gt;distributed</title>
<path fill="none" stroke="#000000" stroke-width="2" d="M1775.0903,-161C1718.1229,-161 1591.1192,-161 1529.649,-161"/>
<polygon fill="#000000" stroke="#000000" stroke-width="2" points="1529.6321,-158.3751 1522.132,-161 1529.632,-163.6251 1529.6321,-158.3751"/>
<text text-anchor="middle" x="1635.4181" y="-172.6" font-family="Helvetica,sans-Serif" font-size="8.00" fill="#000000">Retry a finite</text>
<text text-anchor="middle" x="1635.4181" y="-163.6" font-family="Helvetica,sans-Serif" font-size="8.00" fill="#000000">number of times</text>
</g>
<!-- sda_hard_failed&#45;&gt;cleaning -->
<g id="edge35" class="edge">
<title>sda_hard_failed&#45;&gt;cleaning</title>
<path fill="none" stroke="#000000" stroke-width="2" d="M1984.485,-161C2008.0309,-161 2038.2707,-161 2061.3624,-161"/>
<polygon fill="#000000" stroke="#000000" stroke-width="2" points="2061.3995,-163.6251 2068.8994,-161 2061.3994,-158.3751 2061.3995,-163.6251"/>
</g>
<!-- distributing&#45;&gt;accepted -->
<g id="edge16" class="edge">
<title>distributing&#45;&gt;accepted</title>
<path fill="none" stroke="#000000" stroke-width="2" d="M1015.0678,-223C932.484,-223 684.549,-223 592.7356,-223"/>
<polygon fill="#000000" stroke="#000000" stroke-width="2" points="592.6135,-220.3751 585.1135,-223 592.6135,-225.6251 592.6135,-220.3751"/>
<text text-anchor="middle" x="785.0431" y="-234.6" font-family="Helvetica,sans-Serif" font-size="8.00" fill="#000000">Package missing</text>
<text text-anchor="middle" x="785.0431" y="-225.6" font-family="Helvetica,sans-Serif" font-size="8.00" fill="#000000">switchyard metadata</text>
</g>
<!-- hcp_soft_failed -->
<g id="node15" class="node">
<title>hcp_soft_failed</title>
<ellipse fill="none" stroke="#000000" cx="1195.1478" cy="-110" rx="28.3041" ry="18"/>
<text text-anchor="middle" x="1195.1478" y="-108.1" font-family="Helvetica,sans-Serif" font-size="8.00" fill="#000000">hcp_soft_failed</text>
</g>
<!-- distributing&#45;&gt;hcp_soft_failed -->
<g id="edge17" class="edge">
<title>distributing&#45;&gt;hcp_soft_failed</title>
<path fill="none" stroke="#000000" stroke-width="2" d="M1060.3862,-209.5937C1087.7116,-189.3992 1139.5061,-151.1212 1170.3149,-128.3524"/>
<polygon fill="#000000" stroke="#000000" stroke-width="2" points="1172.0828,-130.31 1176.5542,-123.7413 1168.9625,-126.0878 1172.0828,-130.31"/>
<text text-anchor="middle" x="1119.2459" y="-188.6" font-family="Helvetica,sans-Serif" font-size="8.00" fill="#000000">HCP push failed</text>
</g>
<!-- dist_hard_failed -->
<g id="node17" class="node">
<title>dist_hard_failed</title>
<polygon fill="none" stroke="#000000" points="1672.4612,-274.5623 1635.4181,-287 1598.3749,-274.5623 1598.4095,-254.4377 1672.4266,-254.4377 1672.4612,-274.5623"/>
<text text-anchor="middle" x="1635.4181" y="-267.1" font-family="Helvetica,sans-Serif" font-size="8.00" fill="#000000">dist_hard_failed</text>
</g>
<!-- distributing&#45;&gt;dist_hard_failed -->
<g id="edge15" class="edge">
<title>distributing&#45;&gt;dist_hard_failed</title>
<path fill="none" stroke="#000000" stroke-width="2" d="M1051.6113,-239.9952C1072.4202,-275.2333 1126.1584,-353 1195.1478,-353 1195.1478,-353 1195.1478,-353 1494.9946,-353 1544.9638,-353 1592.5604,-313.3427 1617.4539,-288.5254"/>
<polygon fill="#000000" stroke="#000000" stroke-width="2" points="1619.6197,-290.0656 1622.9927,-282.8709 1615.8692,-286.3919 1619.6197,-290.0656"/>
<text text-anchor="middle" x="1329.5496" y="-364.6" font-family="Helvetica,sans-Serif" font-size="8.00" fill="#000000">Package not</text>
<text text-anchor="middle" x="1329.5496" y="-355.6" font-family="Helvetica,sans-Serif" font-size="8.00" fill="#000000">in workspace</text>
</g>
<!-- submitting -->
<g id="node18" class="node">
<title>submitting</title>
<ellipse fill="none" stroke="#000000" cx="1195.1478" cy="-235" rx="27" ry="18"/>
<text text-anchor="middle" x="1195.1478" y="-233.1" font-family="Helvetica,sans-Serif" font-size="8.00" fill="#000000">submitting</text>
</g>
<!-- distributing&#45;&gt;submitting -->
<g id="edge14" class="edge">
<title>distributing&#45;&gt;submitting</title>
<path fill="none" stroke="#000000" stroke-width="2" d="M1069.2297,-225.1177C1094.6983,-227.1166 1133.0027,-230.1227 1160.6738,-232.2944"/>
<polygon fill="#000000" stroke="#000000" stroke-width="2" points="1160.4945,-234.9133 1168.177,-232.8833 1160.9054,-229.6794 1160.4945,-234.9133"/>
<text text-anchor="middle" x="1119.2459" y="-242.6" font-family="Helvetica,sans-Serif" font-size="8.00" fill="#000000">Derivatives</text>
<text text-anchor="middle" x="1119.2459" y="-233.6" font-family="Helvetica,sans-Serif" font-size="8.00" fill="#000000">pushed to HCP</text>
</g>
<!-- hcp_soft_failed&#45;&gt;processed -->
<g id="edge18" class="edge">
<title>hcp_soft_failed&#45;&gt;processed</title>
<path fill="none" stroke="#000000" stroke-width="2" d="M1166.7672,-112.1483C1115.5095,-116.4414 1004.3328,-127.6487 913.0431,-150 909.7351,-150.8099 906.3132,-151.7266 902.9018,-152.6939"/>
<polygon fill="#000000" stroke="#000000" stroke-width="2" points="901.9537,-150.2365 895.4988,-154.8705 903.4347,-155.2732 901.9537,-150.2365"/>
<text text-anchor="middle" x="1042.2459" y="-141.6" font-family="Helvetica,sans-Serif" font-size="8.00" fill="#000000">Retry a finite</text>
<text text-anchor="middle" x="1042.2459" y="-132.6" font-family="Helvetica,sans-Serif" font-size="8.00" fill="#000000">number of times</text>
</g>
<!-- hcp_hard_failed -->
<g id="node16" class="node">
<title>hcp_hard_failed</title>
<polygon fill="none" stroke="#000000" points="1448.6143,-111.5623 1411.5712,-124 1374.5281,-111.5623 1374.5626,-91.4377 1448.5797,-91.4377 1448.6143,-111.5623"/>
<text text-anchor="middle" x="1411.5712" y="-104.1" font-family="Helvetica,sans-Serif" font-size="8.00" fill="#000000">hcp_hard_failed</text>
</g>
<!-- hcp_soft_failed&#45;&gt;hcp_hard_failed -->
<g id="edge19" class="edge">
<title>hcp_soft_failed&#45;&gt;hcp_hard_failed</title>
<path fill="none" stroke="#000000" stroke-width="2" d="M1223.8871,-109.4688C1260.366,-108.7946 1323.6988,-107.6241 1366.6001,-106.8312"/>
<polygon fill="#000000" stroke="#000000" stroke-width="2" points="1366.9117,-109.451 1374.3619,-106.6877 1366.8146,-104.2018 1366.9117,-109.451"/>
<text text-anchor="middle" x="1263.0496" y="-120.6" font-family="Helvetica,sans-Serif" font-size="8.00" fill="#000000">HCP retries</text>
<text text-anchor="middle" x="1263.0496" y="-111.6" font-family="Helvetica,sans-Serif" font-size="8.00" fill="#000000">exhausted</text>
</g>
<!-- hcp_hard_failed&#45;&gt;cleaning -->
<g id="edge20" class="edge">
<title>hcp_hard_failed&#45;&gt;cleaning</title>
<path fill="none" stroke="#000000" stroke-width="2" d="M1448.6978,-106C1478.9111,-106 1522.6578,-106 1560.8965,-106 1560.8965,-106 1560.8965,-106 1947.2649,-106 1992.4546,-106 2040.8498,-128.5344 2069.832,-144.7551"/>
<polygon fill="#000000" stroke="#000000" stroke-width="2" points="2068.6026,-147.0759 2076.4164,-148.5196 2071.2084,-142.5182 2068.6026,-147.0759"/>
</g>
<!-- dist_hard_failed&#45;&gt;cleaning -->
<g id="edge29" class="edge">
<title>dist_hard_failed&#45;&gt;cleaning</title>
<path fill="none" stroke="#000000" stroke-width="2" d="M1672.7844,-267.092C1712.6486,-264.5307 1777.4653,-258.8526 1832.2434,-247 1918.9696,-228.2346 2017.4737,-191.9993 2065.992,-173.1139"/>
<polygon fill="#000000" stroke="#000000" stroke-width="2" points="2067.0332,-175.5253 2073.0605,-170.3473 2065.1197,-170.6364 2067.0332,-175.5253"/>
</g>
<!-- submitting&#45;&gt;dist_hard_failed -->
<g id="edge23" class="edge">
<title>submitting&#45;&gt;dist_hard_failed</title>
<path fill="none" stroke="#000000" stroke-width="2" d="M1208.9887,-250.9203C1217.4691,-259.5604 1229.0696,-269.5604 1241.5496,-275 1356.832,-325.2476 1398.2103,-311.969 1523.3965,-300 1549.0801,-297.5444 1555.528,-295.873 1580.3965,-289 1587.9644,-286.9084 1595.9751,-284.258 1603.4722,-281.5765"/>
<polygon fill="#000000" stroke="#000000" stroke-width="2" points="1604.6243,-283.95 1610.7627,-278.9041 1602.8174,-279.0207 1604.6243,-283.95"/>
<text text-anchor="middle" x="1411.5712" y="-322.6" font-family="Helvetica,sans-Serif" font-size="8.00" fill="#000000">Package cannot</text>
<text text-anchor="middle" x="1411.5712" y="-313.6" font-family="Helvetica,sans-Serif" font-size="8.00" fill="#000000">be distributed</text>
</g>
<!-- dist_waiting -->
<g id="node19" class="node">
<title>dist_waiting</title>
<ellipse fill="none" stroke="#000000" cx="1329.5496" cy="-250" rx="27" ry="18"/>
<text text-anchor="middle" x="1329.5496" y="-248.1" font-family="Helvetica,sans-Serif" font-size="8.00" fill="#000000">dist_waiting</text>
</g>
<!-- submitting&#45;&gt;dist_waiting -->
<g id="edge21" class="edge">
<title>submitting&#45;&gt;dist_waiting</title>
<path fill="none" stroke="#000000" stroke-width="2" d="M1222.023,-237.9994C1242.9918,-240.3397 1272.2732,-243.6076 1294.9857,-246.1425"/>
<polygon fill="#000000" stroke="#000000" stroke-width="2" points="1294.9761,-248.7826 1302.721,-247.0058 1295.5585,-243.565 1294.9761,-248.7826"/>
<text text-anchor="middle" x="1263.0496" y="-264.6" font-family="Helvetica,sans-Serif" font-size="8.00" fill="#000000">Submitting</text>
<text text-anchor="middle" x="1263.0496" y="-255.6" font-family="Helvetica,sans-Serif" font-size="8.00" fill="#000000">metadata to</text>
<text text-anchor="middle" x="1263.0496" y="-246.6" font-family="Helvetica,sans-Serif" font-size="8.00" fill="#000000">Switchyard</text>
</g>
<!-- dist_soft_failed -->
<g id="node26" class="node">
<title>dist_soft_failed</title>
<ellipse fill="none" stroke="#000000" cx="1494.9946" cy="-215" rx="28.3041" ry="18"/>
<text text-anchor="middle" x="1494.9946" y="-213.1" font-family="Helvetica,sans-Serif" font-size="8.00" fill="#000000">dist_soft_failed</text>
</g>
<!-- submitting&#45;&gt;dist_soft_failed -->
<g id="edge22" class="edge">
<title>submitting&#45;&gt;dist_soft_failed</title>
<path fill="none" stroke="#000000" stroke-width="2" d="M1217.7826,-225.0277C1251.2473,-210.9902 1316.2612,-186.3984 1374.5496,-180 1407.2612,-176.4092 1417.3877,-169.5509 1448.5927,-180 1457.7126,-183.0538 1466.4737,-188.6853 1473.879,-194.5517"/>
<polygon fill="#000000" stroke="#000000" stroke-width="2" points="1472.3254,-196.6748 1479.7587,-199.4834 1475.6993,-192.6524 1472.3254,-196.6748"/>
<text text-anchor="middle" x="1329.5496" y="-214.6" font-family="Helvetica,sans-Serif" font-size="8.00" fill="#000000">Switchyard</text>
<text text-anchor="middle" x="1329.5496" y="-205.6" font-family="Helvetica,sans-Serif" font-size="8.00" fill="#000000">temporarily</text>
<text text-anchor="middle" x="1329.5496" y="-196.6" font-family="Helvetica,sans-Serif" font-size="8.00" fill="#000000">unavailable</text>
</g>
<!-- dist_waiting&#45;&gt;dist_hard_failed -->
<g id="edge25" class="edge">
<title>dist_waiting&#45;&gt;dist_hard_failed</title>
<path fill="none" stroke="#000000" stroke-width="2" d="M1351.4765,-260.6868C1358.6563,-263.6612 1366.7858,-266.4894 1374.5496,-268 1449.1837,-282.5216 1538.1181,-278.4271 1590.4999,-273.8878"/>
<polygon fill="#000000" stroke="#000000" stroke-width="2" points="1591.0369,-276.4751 1598.271,-273.1876 1590.5657,-271.2463 1591.0369,-276.4751"/>
<text text-anchor="middle" x="1494.9946" y="-289.6" font-family="Helvetica,sans-Serif" font-size="8.00" fill="#000000">Distribution</text>
<text text-anchor="middle" x="1494.9946" y="-280.6" font-family="Helvetica,sans-Serif" font-size="8.00" fill="#000000">unsuccessful</text>
</g>
<!-- dist_waiting&#45;&gt;distributed -->
<g id="edge24" class="edge">
<title>dist_waiting&#45;&gt;distributed</title>
<path fill="none" stroke="#000000" stroke-width="2" d="M1343.0645,-234.3766C1353.5761,-222.5229 1367.5177,-207.5204 1374.5496,-203 1400.8855,-186.0701 1434.8664,-175.0302 1460.0167,-168.538"/>
<polygon fill="#000000" stroke="#000000" stroke-width="2" points="1460.8777,-171.0288 1467.5202,-166.6677 1459.6079,-165.9346 1460.8777,-171.0288"/>
<text text-anchor="middle" x="1411.5712" y="-214.6" font-family="Helvetica,sans-Serif" font-size="8.00" fill="#000000">Distribution</text>
<text text-anchor="middle" x="1411.5712" y="-205.6" font-family="Helvetica,sans-Serif" font-size="8.00" fill="#000000">successful</text>
</g>
<!-- dist_waiting&#45;&gt;dist_soft_failed -->
<g id="edge26" class="edge">
<title>dist_waiting&#45;&gt;dist_soft_failed</title>
<path fill="none" stroke="#000000" stroke-width="2" d="M1355.4004,-244.5313C1383.6348,-238.5582 1429.0012,-228.9609 1460.3135,-222.3368"/>
<polygon fill="#000000" stroke="#000000" stroke-width="2" points="1461.1582,-224.8413 1467.9525,-220.7208 1460.0715,-219.705 1461.1582,-224.8413"/>
<text text-anchor="middle" x="1411.5712" y="-259.6" font-family="Helvetica,sans-Serif" font-size="8.00" fill="#000000">Distribution</text>
<text text-anchor="middle" x="1411.5712" y="-250.6" font-family="Helvetica,sans-Serif" font-size="8.00" fill="#000000">temporarily</text>
<text text-anchor="middle" x="1411.5712" y="-241.6" font-family="Helvetica,sans-Serif" font-size="8.00" fill="#000000">unsuccessful</text>
</g>
<!-- distributed&#45;&gt;storing -->
<g id="edge30" class="edge">
<title>distributed&#45;&gt;storing</title>
<path fill="none" stroke="#000000" stroke-width="2" d="M1517.5561,-168.712C1540.9417,-176.7058 1577.681,-189.2641 1603.9226,-198.2341"/>
<polygon fill="#000000" stroke="#000000" stroke-width="2" points="1603.0799,-200.7201 1611.0258,-200.6622 1604.7781,-195.7523 1603.0799,-200.7201"/>
</g>
<!-- deleted -->
<g id="node24" class="node">
<title>deleted</title>
<ellipse fill="none" stroke="#000000" cx="2262.2865" cy="-161" rx="27" ry="18"/>
<text text-anchor="middle" x="2262.2865" y="-159.1" font-family="Helvetica,sans-Serif" font-size="8.00" fill="#000000">deleted</text>
</g>
<!-- cleaning&#45;&gt;deleted -->
<g id="edge37" class="edge">
<title>cleaning&#45;&gt;deleted</title>
<path fill="none" stroke="#000000" stroke-width="2" d="M2123.3267,-161C2151.7838,-161 2196.6684,-161 2227.6885,-161"/>
<polygon fill="#000000" stroke="#000000" stroke-width="2" points="2227.7579,-163.6251 2235.2579,-161 2227.7578,-158.3751 2227.7579,-163.6251"/>
<text text-anchor="middle" x="2179.2865" y="-181.6" font-family="Helvetica,sans-Serif" font-size="8.00" fill="#000000">Failed packages</text>
<text text-anchor="middle" x="2179.2865" y="-172.6" font-family="Helvetica,sans-Serif" font-size="8.00" fill="#000000"> moved to temporary</text>
<text text-anchor="middle" x="2179.2865" y="-163.6" font-family="Helvetica,sans-Serif" font-size="8.00" fill="#000000"> debugging storage</text>
</g>
<!-- to_delete -->
<g id="node23" class="node">
<title>to_delete</title>
<polygon fill="none" stroke="#000000" points="1974.2649,-23.5623 1947.2649,-36 1920.2649,-23.5623 1920.2901,-3.4377 1974.2397,-3.4377 1974.2649,-23.5623"/>
<text text-anchor="middle" x="1947.2649" y="-16.1" font-family="Helvetica,sans-Serif" font-size="8.00" fill="#000000">to_delete</text>
</g>
<!-- to_delete&#45;&gt;cleaning -->
<g id="edge36" class="edge">
<title>to_delete&#45;&gt;cleaning</title>
<path fill="none" stroke="#000000" stroke-width="2" d="M1974.6494,-14.3536C1997.6086,-12.8582 2029.9688,-14.603 2051.2865,-32 2067.5337,-45.2591 2082.8056,-101.7466 2090.6981,-135.4193"/>
<polygon fill="#000000" stroke="#000000" stroke-width="2" points="2088.2122,-136.3226 2092.4507,-143.0439 2093.3287,-135.1464 2088.2122,-136.3226"/>
<text text-anchor="middle" x="2026.7865" y="-43.6" font-family="Helvetica,sans-Serif" font-size="8.00" fill="#000000">Manually</text>
<text text-anchor="middle" x="2026.7865" y="-34.6" font-family="Helvetica,sans-Serif" font-size="8.00" fill="#000000">force deletion</text>
</g>
<!-- debugging -->
<g id="node25" class="node">
<title>debugging</title>
<polygon fill="none" stroke="#000000" points="2439.2865,-153.5442 2439.2865,-168.4558 2423.4703,-179 2401.1027,-179 2385.2865,-168.4558 2385.2865,-153.5442 2401.1027,-143 2423.4703,-143 2439.2865,-153.5442"/>
<text text-anchor="middle" x="2412.2865" y="-159.1" font-family="Helvetica,sans-Serif" font-size="8.00" fill="#000000">debugging</text>
</g>
<!-- deleted&#45;&gt;debugging -->
<g id="edge38" class="edge">
<title>deleted&#45;&gt;debugging</title>
<path fill="none" stroke="#000000" stroke-width="2" d="M2289.4504,-161C2314.1161,-161 2350.6292,-161 2377.4372,-161"/>
<polygon fill="#000000" stroke="#000000" stroke-width="2" points="2377.5717,-163.6251 2385.0717,-161 2377.5717,-158.3751 2377.5717,-163.6251"/>
<text text-anchor="middle" x="2337.2865" y="-181.6" font-family="Helvetica,sans-Serif" font-size="8.00" fill="#000000">May move to</text>
<text text-anchor="middle" x="2337.2865" y="-172.6" font-family="Helvetica,sans-Serif" font-size="8.00" fill="#000000">any other house</text>
<text text-anchor="middle" x="2337.2865" y="-163.6" font-family="Helvetica,sans-Serif" font-size="8.00" fill="#000000">state manually</text>
</g>
<!-- dist_soft_failed&#45;&gt;processed -->
<g id="edge28" class="edge">
<title>dist_soft_failed&#45;&gt;processed</title>
<path fill="none" stroke="#000000" stroke-width="2" d="M1479.004,-199.9336C1474.9366,-196.0644 1470.5871,-191.8946 1466.5927,-188 1458.4922,-180.1018 1459.0227,-174.3835 1448.5927,-170 1349.4547,-128.3342 1012.2503,-151.9578 902.7168,-160.9788"/>
<polygon fill="#000000" stroke="#000000" stroke-width="2" points="902.4867,-158.3638 895.2303,-161.602 902.9222,-163.5957 902.4867,-158.3638"/>
<text text-anchor="middle" x="1195.1478" y="-157.6" font-family="Helvetica,sans-Serif" font-size="8.00" fill="#000000">Retry</text>
<text text-anchor="middle" x="1195.1478" y="-148.6" font-family="Helvetica,sans-Serif" font-size="8.00" fill="#000000">distribution</text>
</g>
<!-- dist_soft_failed&#45;&gt;dist_hard_failed -->
<g id="edge27" class="edge">
<title>dist_soft_failed&#45;&gt;dist_hard_failed</title>
<path fill="none" stroke="#000000" stroke-width="2" d="M1522.5347,-220.0836C1539.5782,-223.7173 1561.6997,-229.3266 1580.3965,-237 1589.2617,-240.6384 1598.4345,-245.4837 1606.6891,-250.3008"/>
<polygon fill="#000000" stroke="#000000" stroke-width="2" points="1605.5981,-252.7074 1613.3802,-254.3135 1608.2982,-248.2049 1605.5981,-252.7074"/>
<text text-anchor="middle" x="1560.8965" y="-248.6" font-family="Helvetica,sans-Serif" font-size="8.00" fill="#000000">Retries</text>
<text text-anchor="middle" x="1560.8965" y="-239.6" font-family="Helvetica,sans-Serif" font-size="8.00" fill="#000000">exhausted</text>
</g>
</g>
</svg>
