<?xml version="1.0" encoding="UTF-8" standalone="no"?>
<!DOCTYPE svg PUBLIC "-//W3C//DTD SVG 1.1//EN"
 "http://www.w3.org/Graphics/SVG/1.1/DTD/svg11.dtd">
<!-- Generated by graphviz version 2.44.0 (0)
 -->
<!-- Pages: 1 -->
<svg width="2422pt" height="484pt"
 viewBox="0.00 0.00 2421.77 484.00" xmlns="http://www.w3.org/2000/svg" xmlns:xlink="http://www.w3.org/1999/xlink">
<g id="graph0" class="graph" transform="scale(1 1) rotate(0) translate(4 480)">
<polygon fill="white" stroke="transparent" points="-4,4 -4,-480 2417.77,-480 2417.77,4 -4,4"/>
<text text-anchor="middle" x="1206.89" y="-462.4" font-family="Helvetica" font-size="12.00">IU/UM object flow</text>
<!-- start -->
<g id="node1" class="node">
<title>start</title>
<polygon fill="none" stroke="black" points="54,-432 0,-432 0,-396 54,-396 54,-432"/>
<text text-anchor="middle" x="27" y="-412.1" font-family="Helvetica" font-size="8.00">START</text>
</g>
<!-- transferred -->
<g id="node2" class="node">
<title>transferred</title>
<ellipse fill="none" stroke="black" cx="149" cy="-414" rx="27" ry="18"/>
<text text-anchor="middle" x="149" y="-412.1" font-family="Helvetica" font-size="8.00">transferred</text>
</g>
<!-- start&#45;&gt;transferred -->
<g id="edge1" class="edge">
<title>start&#45;&gt;transferred</title>
<path fill="none" stroke="black" stroke-width="2" d="M54.04,-414C71.61,-414 94.97,-414 114,-414"/>
<polygon fill="black" stroke="black" stroke-width="2" points="114.1,-416.63 121.6,-414 114.1,-411.38 114.1,-416.63"/>
<text text-anchor="middle" x="88" y="-425.6" font-family="Helvetica" font-size="8.00">Package</text>
<text text-anchor="middle" x="88" y="-416.6" font-family="Helvetica" font-size="8.00">delivered</text>
</g>
<!-- validating -->
<g id="node3" class="node">
<title>validating</title>
<ellipse fill="none" stroke="black" cx="240" cy="-414" rx="27" ry="18"/>
<text text-anchor="middle" x="240" y="-412.1" font-family="Helvetica" font-size="8.00">validating</text>
</g>
<!-- transferred&#45;&gt;validating -->
<g id="edge2" class="edge">
<title>transferred&#45;&gt;validating</title>
<path fill="none" stroke="black" stroke-width="2" d="M176.22,-414C185.37,-414 195.76,-414 205.41,-414"/>
<polygon fill="black" stroke="black" stroke-width="2" points="205.47,-416.63 212.97,-414 205.47,-411.38 205.47,-416.63"/>
</g>
<!-- validation_failed -->
<g id="node4" class="node">
<title>validation_failed</title>
<polygon fill="none" stroke="black" points="507.65,-442.56 471.38,-455 435.12,-442.56 435.15,-422.44 507.62,-422.44 507.65,-442.56"/>
<text text-anchor="middle" x="471.38" y="-435.1" font-family="Helvetica" font-size="8.00">validation_failed</text>
</g>
<!-- validating&#45;&gt;validation_failed -->
<g id="edge4" class="edge">
<title>validating&#45;&gt;validation_failed</title>
<path fill="none" stroke="black" stroke-width="2" d="M266.87,-416.59C305.82,-420.5 380.01,-427.94 427.24,-432.67"/>
<polygon fill="black" stroke="black" stroke-width="2" points="427.14,-435.3 434.87,-433.44 427.67,-430.08 427.14,-435.3"/>
<text text-anchor="middle" x="315" y="-435.6" font-family="Helvetica" font-size="8.00">Package content</text>
<text text-anchor="middle" x="315" y="-426.6" font-family="Helvetica" font-size="8.00">isn&#39;t valid</text>
</g>
<!-- shaping -->
<g id="node5" class="node">
<title>shaping</title>
<ellipse fill="none" stroke="black" cx="390" cy="-391" rx="27" ry="18"/>
<text text-anchor="middle" x="390" y="-389.1" font-family="Helvetica" font-size="8.00">shaping</text>
</g>
<!-- validating&#45;&gt;shaping -->
<g id="edge3" class="edge">
<title>validating&#45;&gt;shaping</title>
<path fill="none" stroke="black" stroke-width="2" d="M262.97,-403.97C269.88,-401.24 277.64,-398.59 285,-397 308.04,-392.01 334.58,-390.55 355.08,-390.31"/>
<polygon fill="black" stroke="black" stroke-width="2" points="355.14,-392.94 362.63,-390.28 355.11,-387.69 355.14,-392.94"/>
<text text-anchor="middle" x="315" y="-408.6" font-family="Helvetica" font-size="8.00">Package content</text>
<text text-anchor="middle" x="315" y="-399.6" font-family="Helvetica" font-size="8.00">is valid</text>
</g>
<!-- cleaning -->
<g id="node21" class="node">
<title>cleaning</title>
<ellipse fill="none" stroke="black" cx="2073.77" cy="-161" rx="27" ry="18"/>
<text text-anchor="middle" x="2073.77" y="-159.1" font-family="Helvetica" font-size="8.00">cleaning</text>
</g>
<!-- validation_failed&#45;&gt;cleaning -->
<g id="edge5" class="edge">
<title>validation_failed&#45;&gt;cleaning</title>
<path fill="none" stroke="black" stroke-width="2" d="M507.86,-437C538.54,-437 584.08,-437 623.77,-437 623.77,-437 623.77,-437 1925.75,-437 1941.7,-437 2013.23,-387.9 2028.77,-364 2064.98,-308.3 2071.86,-227.65 2072.87,-186.79"/>
<polygon fill="black" stroke="black" stroke-width="2" points="2075.5,-186.72 2073.01,-179.17 2070.25,-186.63 2075.5,-186.72"/>
</g>
<!-- local_failed -->
<g id="node6" class="node">
<title>local_failed</title>
<polygon fill="none" stroke="black" points="651.77,-402.56 624.77,-415 597.77,-402.56 597.79,-382.44 651.74,-382.44 651.77,-402.56"/>
<text text-anchor="middle" x="624.77" y="-395.1" font-family="Helvetica" font-size="8.00">local_failed</text>
</g>
<!-- shaping&#45;&gt;local_failed -->
<g id="edge7" class="edge">
<title>shaping&#45;&gt;local_failed</title>
<path fill="none" stroke="black" stroke-width="2" d="M417.25,-391.68C459.62,-392.77 543.06,-394.92 589.87,-396.13"/>
<polygon fill="black" stroke="black" stroke-width="2" points="590.05,-398.76 597.61,-396.33 590.18,-393.51 590.05,-398.76"/>
</g>
<!-- accepted -->
<g id="node7" class="node">
<title>accepted</title>
<polygon fill="none" stroke="black" points="579.77,-228.56 552.77,-241 525.77,-228.56 525.79,-208.44 579.74,-208.44 579.77,-228.56"/>
<text text-anchor="middle" x="552.77" y="-221.1" font-family="Helvetica" font-size="8.00">accepted</text>
</g>
<!-- shaping&#45;&gt;accepted -->
<g id="edge6" class="edge">
<title>shaping&#45;&gt;accepted</title>
<path fill="none" stroke="black" stroke-width="2" d="M405.27,-376.09C434.78,-345.25 502.46,-274.52 534.43,-241.11"/>
<polygon fill="black" stroke="black" stroke-width="2" points="536.68,-242.56 539.97,-235.33 532.89,-238.93 536.68,-242.56"/>
<text text-anchor="middle" x="471.38" y="-361.6" font-family="Helvetica" font-size="8.00">Working copy</text>
<text text-anchor="middle" x="471.38" y="-352.6" font-family="Helvetica" font-size="8.00">restructured</text>
<text text-anchor="middle" x="471.38" y="-343.6" font-family="Helvetica" font-size="8.00">like SDA</text>
</g>
<!-- local_failed&#45;&gt;cleaning -->
<g id="edge8" class="edge">
<title>local_failed&#45;&gt;cleaning</title>
<path fill="none" stroke="black" stroke-width="2" d="M651.85,-397.55C682.13,-398.14 733.56,-399 777.77,-399 777.77,-399 777.77,-399 1925.75,-399 2024.75,-399 2059.31,-248.09 2069.28,-186.61"/>
<polygon fill="black" stroke="black" stroke-width="2" points="2071.92,-186.7 2070.48,-178.89 2066.73,-185.9 2071.92,-186.7"/>
</g>
<!-- processing -->
<g id="node8" class="node">
<title>processing</title>
<ellipse fill="none" stroke="black" cx="696.77" cy="-164" rx="27" ry="18"/>
<text text-anchor="middle" x="696.77" y="-162.1" font-family="Helvetica" font-size="8.00">processing</text>
</g>
<!-- accepted&#45;&gt;processing -->
<g id="edge9" class="edge">
<title>accepted&#45;&gt;processing</title>
<path fill="none" stroke="black" stroke-width="2" d="M579.81,-212.18C604.15,-202.07 640.46,-186.98 665.95,-176.39"/>
<polygon fill="black" stroke="black" stroke-width="2" points="667.24,-178.69 673.16,-173.39 665.23,-173.85 667.24,-178.69"/>
</g>
<!-- processing_failed -->
<g id="node9" class="node">
<title>processing_failed</title>
<polygon fill="none" stroke="black" points="983.58,-78.56 944.7,-91 905.83,-78.56 905.87,-58.44 983.54,-58.44 983.58,-78.56"/>
<text text-anchor="middle" x="944.7" y="-71.1" font-family="Helvetica" font-size="8.00">processing_failed</text>
</g>
<!-- processing&#45;&gt;processing_failed -->
<g id="edge11" class="edge">
<title>processing&#45;&gt;processing_failed</title>
<path fill="none" stroke="black" stroke-width="2" d="M718.54,-152.9C725.79,-149.21 734.05,-145.23 741.77,-142 798.55,-118.23 866.69,-96.25 907.53,-83.75"/>
<polygon fill="black" stroke="black" stroke-width="2" points="908.42,-86.22 914.83,-81.52 906.89,-81.2 908.42,-86.22"/>
<text text-anchor="middle" x="778.77" y="-153.6" font-family="Helvetica" font-size="8.00">Derivative</text>
<text text-anchor="middle" x="778.77" y="-144.6" font-family="Helvetica" font-size="8.00">creation failed</text>
</g>
<!-- processed -->
<g id="node10" class="node">
<title>processed</title>
<polygon fill="none" stroke="black" points="887.77,-169.56 860.77,-182 833.77,-169.56 833.79,-149.44 887.74,-149.44 887.77,-169.56"/>
<text text-anchor="middle" x="860.77" y="-162.1" font-family="Helvetica" font-size="8.00">processed</text>
</g>
<!-- processing&#45;&gt;processed -->
<g id="edge10" class="edge">
<title>processing&#45;&gt;processed</title>
<path fill="none" stroke="black" stroke-width="2" d="M723.79,-164C751.46,-164 795.34,-164 825.73,-164"/>
<polygon fill="black" stroke="black" stroke-width="2" points="826.03,-166.63 833.53,-164 826.03,-161.38 826.03,-166.63"/>
<text text-anchor="middle" x="778.77" y="-175.6" font-family="Helvetica" font-size="8.00">Derivatives</text>
<text text-anchor="middle" x="778.77" y="-166.6" font-family="Helvetica" font-size="8.00">created</text>
</g>
<!-- processing_failed&#45;&gt;cleaning -->
<g id="edge12" class="edge">
<title>processing_failed&#45;&gt;cleaning</title>
<path fill="none" stroke="black" stroke-width="2" d="M983.8,-69.65C1016.18,-67.09 1063.92,-64 1105.64,-64 1105.64,-64 1105.64,-64 1925.75,-64 1976.08,-64 1988.36,-81 2028.77,-111 2039.13,-118.69 2048.82,-129.17 2056.45,-138.55"/>
<polygon fill="black" stroke="black" stroke-width="2" points="2054.45,-140.26 2061.16,-144.52 2058.57,-137.01 2054.45,-140.26"/>
</g>
<!-- distributing -->
<g id="node14" class="node">
<title>distributing</title>
<ellipse fill="none" stroke="black" cx="1030.64" cy="-223" rx="27" ry="18"/>
<text text-anchor="middle" x="1030.64" y="-221.1" font-family="Helvetica" font-size="8.00">distributing</text>
</g>
<!-- processed&#45;&gt;distributing -->
<g id="edge13" class="edge">
<title>processed&#45;&gt;distributing</title>
<path fill="none" stroke="black" stroke-width="2" d="M883.37,-171.59C912.84,-181.95 965.81,-200.57 999.27,-212.33"/>
<polygon fill="black" stroke="black" stroke-width="2" points="998.56,-214.86 1006.51,-214.87 1000.3,-209.91 998.56,-214.86"/>
</g>
<!-- storing -->
<g id="node11" class="node">
<title>storing</title>
<ellipse fill="none" stroke="black" cx="1616.57" cy="-209" rx="27" ry="18"/>
<text text-anchor="middle" x="1616.57" y="-207.1" font-family="Helvetica" font-size="8.00">storing</text>
</g>
<!-- sda_soft_failed -->
<g id="node12" class="node">
<title>sda_soft_failed</title>
<ellipse fill="none" stroke="black" cx="1783.84" cy="-161" rx="27.77" ry="18"/>
<text text-anchor="middle" x="1783.84" y="-159.1" font-family="Helvetica" font-size="8.00">sda_soft_failed</text>
</g>
<!-- storing&#45;&gt;sda_soft_failed -->
<g id="edge32" class="edge">
<title>storing&#45;&gt;sda_soft_failed</title>
<path fill="none" stroke="black" stroke-width="2" d="M1641.61,-202.02C1670.45,-193.64 1718.92,-179.57 1750.89,-170.28"/>
<polygon fill="black" stroke="black" stroke-width="2" points="1751.77,-172.76 1758.24,-168.14 1750.31,-167.72 1751.77,-172.76"/>
<text text-anchor="middle" x="1704.46" y="-195.6" font-family="Helvetica" font-size="8.00">Push to SDA failed</text>
</g>
<!-- finished -->
<g id="node22" class="node">
<title>finished</title>
<polygon fill="none" stroke="black" points="1810.84,-225.56 1783.84,-238 1756.84,-225.56 1756.87,-205.44 1810.82,-205.44 1810.84,-225.56"/>
<text text-anchor="middle" x="1783.84" y="-218.1" font-family="Helvetica" font-size="8.00">finished</text>
</g>
<!-- storing&#45;&gt;finished -->
<g id="edge31" class="edge">
<title>storing&#45;&gt;finished</title>
<path fill="none" stroke="black" stroke-width="2" d="M1643.76,-210.74C1672.29,-212.64 1718.01,-215.68 1749.19,-217.76"/>
<polygon fill="black" stroke="black" stroke-width="2" points="1749.12,-220.39 1756.78,-218.27 1749.47,-215.15 1749.12,-220.39"/>
<text text-anchor="middle" x="1704.46" y="-227.6" font-family="Helvetica" font-size="8.00">Package</text>
<text text-anchor="middle" x="1704.46" y="-218.6" font-family="Helvetica" font-size="8.00">pushed to SDA</text>
</g>
<!-- sda_hard_failed -->
<g id="node13" class="node">
<title>sda_hard_failed</title>
<polygon fill="none" stroke="black" points="1961.79,-166.56 1924.75,-179 1887.71,-166.56 1887.74,-146.44 1961.76,-146.44 1961.79,-166.56"/>
<text text-anchor="middle" x="1924.75" y="-159.1" font-family="Helvetica" font-size="8.00">sda_hard_failed</text>
</g>
<!-- sda_soft_failed&#45;&gt;sda_hard_failed -->
<g id="edge34" class="edge">
<title>sda_soft_failed&#45;&gt;sda_hard_failed</title>
<path fill="none" stroke="black" stroke-width="2" d="M1811.96,-161C1831.24,-161 1857.56,-161 1879.82,-161"/>
<polygon fill="black" stroke="black" stroke-width="2" points="1880,-163.63 1887.5,-161 1880,-158.38 1880,-163.63"/>
<text text-anchor="middle" x="1849.73" y="-172.6" font-family="Helvetica" font-size="8.00">SDA retries</text>
<text text-anchor="middle" x="1849.73" y="-163.6" font-family="Helvetica" font-size="8.00">exhausted</text>
</g>
<!-- distributed -->
<g id="node20" class="node">
<title>distributed</title>
<polygon fill="none" stroke="black" points="1506.82,-166.56 1479.82,-179 1452.82,-166.56 1452.85,-146.44 1506.8,-146.44 1506.82,-166.56"/>
<text text-anchor="middle" x="1479.82" y="-159.1" font-family="Helvetica" font-size="8.00">distributed</text>
</g>
<!-- sda_soft_failed&#45;&gt;distributed -->
<g id="edge33" class="edge">
<title>sda_soft_failed&#45;&gt;distributed</title>
<path fill="none" stroke="black" stroke-width="2" d="M1755.92,-161C1700.77,-161 1575.07,-161 1514.58,-161"/>
<polygon fill="black" stroke="black" stroke-width="2" points="1514.33,-158.38 1506.83,-161 1514.33,-163.63 1514.33,-158.38"/>
<text text-anchor="middle" x="1616.57" y="-172.6" font-family="Helvetica" font-size="8.00">Retry a finite</text>
<text text-anchor="middle" x="1616.57" y="-163.6" font-family="Helvetica" font-size="8.00">number of times</text>
</g>
<!-- sda_hard_failed&#45;&gt;cleaning -->
<g id="edge35" class="edge">
<title>sda_hard_failed&#45;&gt;cleaning</title>
<path fill="none" stroke="black" stroke-width="2" d="M1962.09,-161C1985.52,-161 2015.78,-161 2038.74,-161"/>
<polygon fill="black" stroke="black" stroke-width="2" points="2039.04,-163.63 2046.54,-161 2039.04,-158.38 2039.04,-163.63"/>
</g>
<!-- distributing&#45;&gt;accepted -->
<g id="edge16" class="edge">
<title>distributing&#45;&gt;accepted</title>
<path fill="none" stroke="black" stroke-width="2" d="M1003.46,-223C922.81,-223 678.15,-223 587.78,-223"/>
<polygon fill="black" stroke="black" stroke-width="2" points="587.53,-220.38 580.03,-223 587.53,-225.63 587.53,-220.38"/>
<text text-anchor="middle" x="778.77" y="-234.6" font-family="Helvetica" font-size="8.00">Package missing</text>
<text text-anchor="middle" x="778.77" y="-225.6" font-family="Helvetica" font-size="8.00">switchyard metadata</text>
</g>
<!-- hcp_soft_failed -->
<g id="node15" class="node">
<title>hcp_soft_failed</title>
<ellipse fill="none" stroke="black" cx="1181.52" cy="-110" rx="27.77" ry="18"/>
<text text-anchor="middle" x="1181.52" y="-108.1" font-family="Helvetica" font-size="8.00">hcp_soft_failed</text>
</g>
<!-- distributing&#45;&gt;hcp_soft_failed -->
<g id="edge17" class="edge">
<title>distributing&#45;&gt;hcp_soft_failed</title>
<path fill="none" stroke="black" stroke-width="2" d="M1049.3,-209.59C1076.05,-189.29 1126.89,-150.71 1156.83,-127.98"/>
<polygon fill="black" stroke="black" stroke-width="2" points="1158.5,-130.01 1162.88,-123.39 1155.32,-125.83 1158.5,-130.01"/>
<text text-anchor="middle" x="1106.64" y="-188.6" font-family="Helvetica" font-size="8.00">HCP push failed</text>
</g>
<!-- dist_hard_failed -->
<g id="node17" class="node">
<title>dist_hard_failed</title>
<polygon fill="none" stroke="black" points="1652.84,-274.56 1616.57,-287 1580.31,-274.56 1580.34,-254.44 1652.81,-254.44 1652.84,-274.56"/>
<text text-anchor="middle" x="1616.57" y="-267.1" font-family="Helvetica" font-size="8.00">dist_hard_failed</text>
</g>
<!-- distributing&#45;&gt;dist_hard_failed -->
<g id="edge15" class="edge">
<title>distributing&#45;&gt;dist_hard_failed</title>
<path fill="none" stroke="black" stroke-width="2" d="M1040.64,-240C1060.67,-275.23 1112.58,-353 1180.52,-353 1180.52,-353 1180.52,-353 1480.82,-353 1529.31,-353 1574.79,-313.34 1598.49,-288.53"/>
<polygon fill="black" stroke="black" stroke-width="2" points="1600.57,-290.15 1603.77,-282.87 1596.73,-286.57 1600.57,-290.15"/>
<text text-anchor="middle" x="1315.41" y="-364.6" font-family="Helvetica" font-size="8.00">Package not</text>
<text text-anchor="middle" x="1315.41" y="-355.6" font-family="Helvetica" font-size="8.00">in workspace</text>
</g>
<!-- submitting -->
<g id="node18" class="node">
<title>submitting</title>
<ellipse fill="none" stroke="black" cx="1181.52" cy="-235" rx="27" ry="18"/>
<text text-anchor="middle" x="1181.52" y="-233.1" font-family="Helvetica" font-size="8.00">submitting</text>
</g>
<!-- distributing&#45;&gt;submitting -->
<g id="edge14" class="edge">
<title>distributing&#45;&gt;submitting</title>
<path fill="none" stroke="black" stroke-width="2" d="M1057.57,-225.09C1082.37,-227.09 1119.88,-230.11 1146.95,-232.29"/>
<polygon fill="black" stroke="black" stroke-width="2" points="1146.95,-234.93 1154.64,-232.91 1147.37,-229.69 1146.95,-234.93"/>
<text text-anchor="middle" x="1106.64" y="-242.6" font-family="Helvetica" font-size="8.00">Derivatives</text>
<text text-anchor="middle" x="1106.64" y="-233.6" font-family="Helvetica" font-size="8.00">pushed to HCP</text>
</g>
<!-- hcp_soft_failed&#45;&gt;processed -->
<g id="edge18" class="edge">
<title>hcp_soft_failed&#45;&gt;processed</title>
<path fill="none" stroke="black" stroke-width="2" d="M1153.65,-112.08C1104.05,-116.31 995.05,-127.51 905.77,-150 902.44,-150.84 899,-151.79 895.57,-152.79"/>
<polygon fill="black" stroke="black" stroke-width="2" points="894.56,-150.35 888.14,-155.03 896.08,-155.37 894.56,-150.35"/>
<text text-anchor="middle" x="1030.64" y="-141.6" font-family="Helvetica" font-size="8.00">Retry a finite</text>
<text text-anchor="middle" x="1030.64" y="-132.6" font-family="Helvetica" font-size="8.00">number of times</text>
</g>
<!-- hcp_hard_failed -->
<g id="node16" class="node">
<title>hcp_hard_failed</title>
<polygon fill="none" stroke="black" points="1434.48,-111.56 1397.43,-124 1360.39,-111.56 1360.42,-91.44 1434.44,-91.44 1434.48,-111.56"/>
<text text-anchor="middle" x="1397.43" y="-104.1" font-family="Helvetica" font-size="8.00">hcp_hard_failed</text>
</g>
<!-- hcp_soft_failed&#45;&gt;hcp_hard_failed -->
<g id="edge19" class="edge">
<title>hcp_soft_failed&#45;&gt;hcp_hard_failed</title>
<path fill="none" stroke="black" stroke-width="2" d="M1209.62,-109.49C1245.6,-108.82 1309.6,-107.62 1352.53,-106.82"/>
<polygon fill="black" stroke="black" stroke-width="2" points="1352.84,-109.44 1360.29,-106.68 1352.74,-104.19 1352.84,-109.44"/>
<text text-anchor="middle" x="1248.91" y="-120.6" font-family="Helvetica" font-size="8.00">HCP retries</text>
<text text-anchor="middle" x="1248.91" y="-111.6" font-family="Helvetica" font-size="8.00">exhausted</text>
</g>
<!-- hcp_hard_failed&#45;&gt;cleaning -->
<g id="edge20" class="edge">
<title>hcp_hard_failed&#45;&gt;cleaning</title>
<path fill="none" stroke="black" stroke-width="2" d="M1434.6,-106C1463.77,-106 1505.88,-106 1542.69,-106 1542.69,-106 1542.69,-106 1925.75,-106 1970.47,-106 2018.27,-128.6 2046.82,-144.82"/>
<polygon fill="black" stroke="black" stroke-width="2" points="2045.85,-147.29 2053.65,-148.79 2048.49,-142.76 2045.85,-147.29"/>
</g>
<!-- dist_hard_failed&#45;&gt;cleaning -->
<g id="edge29" class="edge">
<title>dist_hard_failed&#45;&gt;cleaning</title>
<path fill="none" stroke="black" stroke-width="2" d="M1653.01,-267.17C1692.2,-264.65 1757.05,-258.97 1811.73,-247 1897.56,-228.21 1994.98,-191.95 2042.91,-173.08"/>
<polygon fill="black" stroke="black" stroke-width="2" points="2044.16,-175.41 2050.17,-170.21 2042.23,-170.53 2044.16,-175.41"/>
</g>
<!-- submitting&#45;&gt;dist_hard_failed -->
<g id="edge23" class="edge">
<title>submitting&#45;&gt;dist_hard_failed</title>
<path fill="none" stroke="black" stroke-width="2" d="M1195.43,-250.52C1203.64,-259.25 1215.02,-269.48 1227.41,-275 1341.44,-325.82 1382.96,-312.3 1507.19,-300 1532,-297.54 1538.22,-295.84 1562.19,-289 1569.69,-286.86 1577.62,-284.15 1585.02,-281.41"/>
<polygon fill="black" stroke="black" stroke-width="2" points="1586.11,-283.8 1592.2,-278.69 1584.25,-278.89 1586.11,-283.8"/>
<text text-anchor="middle" x="1397.43" y="-322.6" font-family="Helvetica" font-size="8.00">Package cannot</text>
<text text-anchor="middle" x="1397.43" y="-313.6" font-family="Helvetica" font-size="8.00">be distributed</text>
</g>
<!-- dist_waiting -->
<g id="node19" class="node">
<title>dist_waiting</title>
<ellipse fill="none" stroke="black" cx="1315.41" cy="-250" rx="27" ry="18"/>
<text text-anchor="middle" x="1315.41" y="-248.1" font-family="Helvetica" font-size="8.00">dist_waiting</text>
</g>
<!-- submitting&#45;&gt;dist_waiting -->
<g id="edge21" class="edge">
<title>submitting&#45;&gt;dist_waiting</title>
<path fill="none" stroke="black" stroke-width="2" d="M1208.27,-237.93C1229.05,-240.29 1258.46,-243.64 1281.05,-246.21"/>
<polygon fill="black" stroke="black" stroke-width="2" points="1280.98,-248.84 1288.73,-247.08 1281.58,-243.62 1280.98,-248.84"/>
<text text-anchor="middle" x="1248.91" y="-264.6" font-family="Helvetica" font-size="8.00">Submitting</text>
<text text-anchor="middle" x="1248.91" y="-255.6" font-family="Helvetica" font-size="8.00">metadata to</text>
<text text-anchor="middle" x="1248.91" y="-246.6" font-family="Helvetica" font-size="8.00">Switchyard</text>
</g>
<!-- dist_soft_failed -->
<g id="node26" class="node">
<title>dist_soft_failed</title>
<ellipse fill="none" stroke="black" cx="1479.82" cy="-215" rx="27.24" ry="18"/>
<text text-anchor="middle" x="1479.82" y="-213.1" font-family="Helvetica" font-size="8.00">dist_soft_failed</text>
</g>
<!-- submitting&#45;&gt;dist_soft_failed -->
<g id="edge22" class="edge">
<title>submitting&#45;&gt;dist_soft_failed</title>
<path fill="none" stroke="black" stroke-width="2" d="M1204.41,-225.25C1237.41,-211.23 1302.25,-186.38 1360.41,-180 1393.12,-176.41 1403.36,-169.21 1434.45,-180 1443.43,-183.12 1451.97,-188.88 1459.11,-194.85"/>
<polygon fill="black" stroke="black" stroke-width="2" points="1457.41,-196.85 1464.77,-199.86 1460.89,-192.92 1457.41,-196.85"/>
<text text-anchor="middle" x="1315.41" y="-214.6" font-family="Helvetica" font-size="8.00">Switchyard</text>
<text text-anchor="middle" x="1315.41" y="-205.6" font-family="Helvetica" font-size="8.00">temporarily</text>
<text text-anchor="middle" x="1315.41" y="-196.6" font-family="Helvetica" font-size="8.00">unavailable</text>
</g>
<!-- dist_waiting&#45;&gt;dist_hard_failed -->
<g id="edge25" class="edge">
<title>dist_waiting&#45;&gt;dist_hard_failed</title>
<path fill="none" stroke="black" stroke-width="2" d="M1337.38,-260.5C1344.51,-263.54 1352.64,-266.46 1360.41,-268 1433.77,-282.57 1521.35,-278.36 1572.49,-273.8"/>
<polygon fill="black" stroke="black" stroke-width="2" points="1572.84,-276.4 1580.07,-273.1 1572.36,-271.18 1572.84,-276.4"/>
<text text-anchor="middle" x="1479.82" y="-289.6" font-family="Helvetica" font-size="8.00">Distribution</text>
<text text-anchor="middle" x="1479.82" y="-280.6" font-family="Helvetica" font-size="8.00">unsuccessful</text>
</g>
<!-- dist_waiting&#45;&gt;distributed -->
<g id="edge24" class="edge">
<title>dist_waiting&#45;&gt;distributed</title>
<path fill="none" stroke="black" stroke-width="2" d="M1328.33,-233.74C1336.41,-223.7 1347.88,-211.2 1360.41,-203 1386.54,-185.89 1420.49,-174.78 1445.33,-168.31"/>
<polygon fill="black" stroke="black" stroke-width="2" points="1446.09,-170.83 1452.73,-166.45 1444.81,-165.74 1446.09,-170.83"/>
<text text-anchor="middle" x="1397.43" y="-214.6" font-family="Helvetica" font-size="8.00">Distribution</text>
<text text-anchor="middle" x="1397.43" y="-205.6" font-family="Helvetica" font-size="8.00">successful</text>
</g>
<!-- dist_waiting&#45;&gt;dist_soft_failed -->
<g id="edge26" class="edge">
<title>dist_waiting&#45;&gt;dist_soft_failed</title>
<path fill="none" stroke="black" stroke-width="2" d="M1341.43,-244.61C1369.49,-238.56 1415.09,-228.74 1445.99,-222.08"/>
<polygon fill="black" stroke="black" stroke-width="2" points="1446.73,-224.6 1453.51,-220.46 1445.62,-219.47 1446.73,-224.6"/>
<text text-anchor="middle" x="1397.43" y="-259.6" font-family="Helvetica" font-size="8.00">Distribution</text>
<text text-anchor="middle" x="1397.43" y="-250.6" font-family="Helvetica" font-size="8.00">temporarily</text>
<text text-anchor="middle" x="1397.43" y="-241.6" font-family="Helvetica" font-size="8.00">unsuccessful</text>
</g>
<!-- distributed&#45;&gt;storing -->
<g id="edge30" class="edge">
<title>distributed&#45;&gt;storing</title>
<path fill="none" stroke="black" stroke-width="2" d="M1502.47,-168.71C1524.82,-176.67 1559.87,-189.16 1585.03,-198.12"/>
<polygon fill="black" stroke="black" stroke-width="2" points="1584.22,-200.62 1592.17,-200.66 1585.98,-195.67 1584.22,-200.62"/>
</g>
<!-- deleted -->
<g id="node24" class="node">
<title>deleted</title>
<ellipse fill="none" stroke="black" cx="2238.77" cy="-161" rx="27" ry="18"/>
<text text-anchor="middle" x="2238.77" y="-159.1" font-family="Helvetica" font-size="8.00">deleted</text>
</g>
<!-- cleaning&#45;&gt;deleted -->
<g id="edge37" class="edge">
<title>cleaning&#45;&gt;deleted</title>
<path fill="none" stroke="black" stroke-width="2" d="M2100.96,-161C2128.88,-161 2173.21,-161 2203.8,-161"/>
<polygon fill="black" stroke="black" stroke-width="2" points="2204.15,-163.63 2211.65,-161 2204.15,-158.38 2204.15,-163.63"/>
<text text-anchor="middle" x="2156.27" y="-181.6" font-family="Helvetica" font-size="8.00">Failed packages</text>
<text text-anchor="middle" x="2156.27" y="-172.6" font-family="Helvetica" font-size="8.00"> moved to temporary</text>
<text text-anchor="middle" x="2156.27" y="-163.6" font-family="Helvetica" font-size="8.00"> debugging storage</text>
</g>
<!-- to_delete -->
<g id="node23" class="node">
<title>to_delete</title>
<polygon fill="none" stroke="black" points="1951.75,-23.56 1924.75,-36 1897.75,-23.56 1897.78,-3.44 1951.73,-3.44 1951.75,-23.56"/>
<text text-anchor="middle" x="1924.75" y="-16.1" font-family="Helvetica" font-size="8.00">to_delete</text>
</g>
<!-- to_delete&#45;&gt;cleaning -->
<g id="edge36" class="edge">
<title>to_delete&#45;&gt;cleaning</title>
<path fill="none" stroke="black" stroke-width="2" d="M1952.01,-14.45C1974.81,-12.88 2007.45,-14.45 2028.77,-32 2059.63,-57.4 2068.93,-105.44 2071.68,-135.19"/>
<polygon fill="black" stroke="black" stroke-width="2" points="2069.06,-135.42 2072.27,-142.69 2074.29,-135.01 2069.06,-135.42"/>
<text text-anchor="middle" x="2004.27" y="-43.6" font-family="Helvetica" font-size="8.00">Manually</text>
<text text-anchor="middle" x="2004.27" y="-34.6" font-family="Helvetica" font-size="8.00">force deletion</text>
</g>
<!-- debugging -->
<g id="node25" class="node">
<title>debugging</title>
<polygon fill="none" stroke="black" points="2413.77,-153.54 2413.77,-168.46 2397.96,-179 2375.59,-179 2359.77,-168.46 2359.77,-153.54 2375.59,-143 2397.96,-143 2413.77,-153.54"/>
<text text-anchor="middle" x="2386.77" y="-159.1" font-family="Helvetica" font-size="8.00">debugging</text>
</g>
<!-- deleted&#45;&gt;debugging -->
<g id="edge38" class="edge">
<title>deleted&#45;&gt;debugging</title>
<path fill="none" stroke="black" stroke-width="2" d="M2265.87,-161C2289.81,-161 2325.41,-161 2351.6,-161"/>
<polygon fill="black" stroke="black" stroke-width="2" points="2351.9,-163.63 2359.4,-161 2351.9,-158.38 2351.9,-163.63"/>
<text text-anchor="middle" x="2312.77" y="-181.6" font-family="Helvetica" font-size="8.00">May move to</text>
<text text-anchor="middle" x="2312.77" y="-172.6" font-family="Helvetica" font-size="8.00">any other house</text>
<text text-anchor="middle" x="2312.77" y="-163.6" font-family="Helvetica" font-size="8.00">state manually</text>
</g>
<!-- dist_soft_failed&#45;&gt;processed -->
<g id="edge28" class="edge">
<title>dist_soft_failed&#45;&gt;processed</title>
<path fill="none" stroke="black" stroke-width="2" d="M1464.03,-199.86C1451.31,-186.87 1434.95,-170.21 1434.45,-170 1336.68,-128.49 1003.21,-152.09 895.57,-161.03"/>
<polygon fill="black" stroke="black" stroke-width="2" points="895.17,-158.43 887.92,-161.67 895.61,-163.66 895.17,-158.43"/>
<text text-anchor="middle" x="1181.52" y="-157.6" font-family="Helvetica" font-size="8.00">Retry</text>
<text text-anchor="middle" x="1181.52" y="-148.6" font-family="Helvetica" font-size="8.00">submission</text>
</g>
<!-- dist_soft_failed&#45;&gt;dist_hard_failed -->
<g id="edge27" class="edge">
<title>dist_soft_failed&#45;&gt;dist_hard_failed</title>
<path fill="none" stroke="black" stroke-width="2" d="M1506.35,-220C1522.7,-223.66 1544.15,-229.33 1562.19,-237 1570.81,-240.67 1579.72,-245.52 1587.73,-250.34"/>
<polygon fill="black" stroke="black" stroke-width="2" points="1586.46,-252.64 1594.22,-254.35 1589.22,-248.17 1586.46,-252.64"/>
<text text-anchor="middle" x="1543.69" y="-248.6" font-family="Helvetica" font-size="8.00">Retries</text>
<text text-anchor="middle" x="1543.69" y="-239.6" font-family="Helvetica" font-size="8.00">exhausted</text>
</g>
</g>
</svg>
