<?xml version="1.0" encoding="UTF-8" standalone="no"?>
<!DOCTYPE svg PUBLIC "-//W3C//DTD SVG 1.1//EN"
 "http://www.w3.org/Graphics/SVG/1.1/DTD/svg11.dtd">
<!-- Generated by graphviz version 2.44.0 (0)
 -->
<!-- Pages: 1 -->
<svg width="2397pt" height="435pt"
 viewBox="0.00 0.00 2396.77 435.00" xmlns="http://www.w3.org/2000/svg" xmlns:xlink="http://www.w3.org/1999/xlink">
<g id="graph0" class="graph" transform="scale(1 1) rotate(0) translate(4 431)">
<polygon fill="white" stroke="transparent" points="-4,4 -4,-431 2392.77,-431 2392.77,4 -4,4"/>
<text text-anchor="middle" x="1194.39" y="-413.4" font-family="Helvetica" font-size="12.00">IU/UM object flow</text>
<!-- start -->
<g id="node1" class="node">
<title>start</title>
<polygon fill="none" stroke="black" points="54,-377 0,-377 0,-341 54,-341 54,-377"/>
<text text-anchor="middle" x="27" y="-357.1" font-family="Helvetica" font-size="8.00">START</text>
</g>
<!-- transferred -->
<g id="node2" class="node">
<title>transferred</title>
<ellipse fill="none" stroke="black" cx="149" cy="-359" rx="27" ry="18"/>
<text text-anchor="middle" x="149" y="-357.1" font-family="Helvetica" font-size="8.00">transferred</text>
</g>
<!-- start&#45;&gt;transferred -->
<g id="edge1" class="edge">
<title>start&#45;&gt;transferred</title>
<path fill="none" stroke="black" stroke-width="2" d="M54.04,-359C71.61,-359 94.97,-359 114,-359"/>
<polygon fill="black" stroke="black" stroke-width="2" points="114.1,-361.63 121.6,-359 114.1,-356.38 114.1,-361.63"/>
<text text-anchor="middle" x="88" y="-370.6" font-family="Helvetica" font-size="8.00">Package</text>
<text text-anchor="middle" x="88" y="-361.6" font-family="Helvetica" font-size="8.00">delivered</text>
</g>
<!-- validating -->
<g id="node3" class="node">
<title>validating</title>
<ellipse fill="none" stroke="black" cx="240" cy="-359" rx="27" ry="18"/>
<text text-anchor="middle" x="240" y="-357.1" font-family="Helvetica" font-size="8.00">validating</text>
</g>
<!-- transferred&#45;&gt;validating -->
<g id="edge2" class="edge">
<title>transferred&#45;&gt;validating</title>
<path fill="none" stroke="black" stroke-width="2" d="M176.22,-359C185.37,-359 195.76,-359 205.41,-359"/>
<polygon fill="black" stroke="black" stroke-width="2" points="205.47,-361.63 212.97,-359 205.47,-356.38 205.47,-361.63"/>
</g>
<!-- validation_failed -->
<g id="node4" class="node">
<title>validation_failed</title>
<polygon fill="none" stroke="black" points="507.65,-393.56 471.38,-406 435.12,-393.56 435.15,-373.44 507.62,-373.44 507.65,-393.56"/>
<text text-anchor="middle" x="471.38" y="-386.1" font-family="Helvetica" font-size="8.00">validation_failed</text>
</g>
<!-- validating&#45;&gt;validation_failed -->
<g id="edge4" class="edge">
<title>validating&#45;&gt;validation_failed</title>
<path fill="none" stroke="black" stroke-width="2" d="M266.87,-362.27C305.82,-367.2 380.01,-376.57 427.24,-382.55"/>
<polygon fill="black" stroke="black" stroke-width="2" points="427.1,-385.17 434.87,-383.51 427.76,-379.96 427.1,-385.17"/>
<text text-anchor="middle" x="315" y="-382.6" font-family="Helvetica" font-size="8.00">Package content</text>
<text text-anchor="middle" x="315" y="-373.6" font-family="Helvetica" font-size="8.00">isn&#39;t valid</text>
</g>
<!-- shaping -->
<g id="node5" class="node">
<title>shaping</title>
<ellipse fill="none" stroke="black" cx="390" cy="-330" rx="27" ry="18"/>
<text text-anchor="middle" x="390" y="-328.1" font-family="Helvetica" font-size="8.00">shaping</text>
</g>
<!-- validating&#45;&gt;shaping -->
<g id="edge3" class="edge">
<title>validating&#45;&gt;shaping</title>
<path fill="none" stroke="black" stroke-width="2" d="M263.03,-349.23C269.95,-346.51 277.69,-343.8 285,-342 308.16,-336.29 334.9,-333.28 355.47,-331.7"/>
<polygon fill="black" stroke="black" stroke-width="2" points="355.74,-334.32 363.03,-331.17 355.37,-329.08 355.74,-334.32"/>
<text text-anchor="middle" x="315" y="-353.6" font-family="Helvetica" font-size="8.00">Package content</text>
<text text-anchor="middle" x="315" y="-344.6" font-family="Helvetica" font-size="8.00">is valid</text>
</g>
<!-- cleaning -->
<g id="node21" class="node">
<title>cleaning</title>
<ellipse fill="none" stroke="black" cx="2048.77" cy="-221" rx="27" ry="18"/>
<text text-anchor="middle" x="2048.77" y="-219.1" font-family="Helvetica" font-size="8.00">cleaning</text>
</g>
<!-- validation_failed&#45;&gt;cleaning -->
<g id="edge5" class="edge">
<title>validation_failed&#45;&gt;cleaning</title>
<path fill="none" stroke="black" stroke-width="2" d="M507.77,-393.5C538.38,-397.78 583.89,-403 623.77,-403 623.77,-403 623.77,-403 1900.75,-403 1953.74,-403 1969.85,-383.7 2003.77,-343 2027.26,-314.82 2038.67,-273.1 2043.87,-246.48"/>
<polygon fill="black" stroke="black" stroke-width="2" points="2046.45,-246.92 2045.23,-239.07 2041.29,-245.97 2046.45,-246.92"/>
</g>
<!-- local_failed -->
<g id="node6" class="node">
<title>local_failed</title>
<polygon fill="none" stroke="black" points="651.77,-190.56 624.77,-203 597.77,-190.56 597.79,-170.44 651.74,-170.44 651.77,-190.56"/>
<text text-anchor="middle" x="624.77" y="-183.1" font-family="Helvetica" font-size="8.00">local_failed</text>
</g>
<!-- shaping&#45;&gt;local_failed -->
<g id="edge7" class="edge">
<title>shaping&#45;&gt;local_failed</title>
<path fill="none" stroke="black" stroke-width="2" d="M410.45,-317.89C453.16,-291.28 555.01,-227.83 600.79,-199.31"/>
<polygon fill="black" stroke="black" stroke-width="2" points="602.4,-201.4 607.38,-195.21 599.63,-196.94 602.4,-201.4"/>
</g>
<!-- accepted -->
<g id="node7" class="node">
<title>accepted</title>
<polygon fill="none" stroke="black" points="579.77,-335.56 552.77,-348 525.77,-335.56 525.79,-315.44 579.74,-315.44 579.77,-335.56"/>
<text text-anchor="middle" x="552.77" y="-328.1" font-family="Helvetica" font-size="8.00">accepted</text>
</g>
<!-- shaping&#45;&gt;accepted -->
<g id="edge6" class="edge">
<title>shaping&#45;&gt;accepted</title>
<path fill="none" stroke="black" stroke-width="2" d="M417.19,-330C444.63,-330 487.85,-330 517.88,-330"/>
<polygon fill="black" stroke="black" stroke-width="2" points="518.09,-332.63 525.59,-330 518.09,-327.38 518.09,-332.63"/>
<text text-anchor="middle" x="471.38" y="-350.6" font-family="Helvetica" font-size="8.00">Working copy</text>
<text text-anchor="middle" x="471.38" y="-341.6" font-family="Helvetica" font-size="8.00">restructured</text>
<text text-anchor="middle" x="471.38" y="-332.6" font-family="Helvetica" font-size="8.00">like SDA</text>
</g>
<!-- local_failed&#45;&gt;cleaning -->
<g id="edge8" class="edge">
<title>local_failed&#45;&gt;cleaning</title>
<path fill="none" stroke="black" stroke-width="2" d="M633.67,-170.16C652.07,-137.85 701.15,-64 765.27,-64 765.27,-64 765.27,-64 1900.75,-64 1972.56,-64 2019.44,-152.58 2038.33,-196.67"/>
<polygon fill="black" stroke="black" stroke-width="2" points="2035.91,-197.69 2041.22,-203.6 2040.76,-195.67 2035.91,-197.69"/>
</g>
<!-- processing -->
<g id="node8" class="node">
<title>processing</title>
<ellipse fill="none" stroke="black" cx="696.77" cy="-330" rx="27" ry="18"/>
<text text-anchor="middle" x="696.77" y="-328.1" font-family="Helvetica" font-size="8.00">processing</text>
</g>
<!-- accepted&#45;&gt;processing -->
<g id="edge9" class="edge">
<title>accepted&#45;&gt;processing</title>
<path fill="none" stroke="black" stroke-width="2" d="M579.81,-330C602.89,-330 636.72,-330 661.89,-330"/>
<polygon fill="black" stroke="black" stroke-width="2" points="661.91,-332.63 669.41,-330 661.91,-327.38 661.91,-332.63"/>
</g>
<!-- processing_failed -->
<g id="node9" class="node">
<title>processing_failed</title>
<polygon fill="none" stroke="black" points="958.58,-370.56 919.7,-383 880.83,-370.56 880.87,-350.44 958.54,-350.44 958.58,-370.56"/>
<text text-anchor="middle" x="919.7" y="-363.1" font-family="Helvetica" font-size="8.00">processing_failed</text>
</g>
<!-- processing&#45;&gt;processing_failed -->
<g id="edge11" class="edge">
<title>processing&#45;&gt;processing_failed</title>
<path fill="none" stroke="black" stroke-width="2" d="M721.33,-337.74C727.89,-339.68 735.06,-341.6 741.77,-343 785.86,-352.19 836.98,-358.04 872.91,-361.38"/>
<polygon fill="black" stroke="black" stroke-width="2" points="873.08,-364.03 880.79,-362.09 873.55,-358.8 873.08,-364.03"/>
<text text-anchor="middle" x="766.27" y="-362.6" font-family="Helvetica" font-size="8.00">Derivative</text>
<text text-anchor="middle" x="766.27" y="-353.6" font-family="Helvetica" font-size="8.00">creation failed</text>
</g>
<!-- processed -->
<g id="node10" class="node">
<title>processed</title>
<polygon fill="none" stroke="black" points="862.77,-324.56 835.77,-337 808.77,-324.56 808.79,-304.44 862.74,-304.44 862.77,-324.56"/>
<text text-anchor="middle" x="835.77" y="-317.1" font-family="Helvetica" font-size="8.00">processed</text>
</g>
<!-- processing&#45;&gt;processed -->
<g id="edge10" class="edge">
<title>processing&#45;&gt;processed</title>
<path fill="none" stroke="black" stroke-width="2" d="M723.8,-326.83C729.7,-326.17 735.95,-325.52 741.77,-325 761.33,-323.26 783.26,-321.82 800.9,-320.79"/>
<polygon fill="black" stroke="black" stroke-width="2" points="801.35,-323.39 808.68,-320.34 801.05,-318.15 801.35,-323.39"/>
<text text-anchor="middle" x="766.27" y="-336.6" font-family="Helvetica" font-size="8.00">Derivatives</text>
<text text-anchor="middle" x="766.27" y="-327.6" font-family="Helvetica" font-size="8.00">created</text>
</g>
<!-- processing_failed&#45;&gt;cleaning -->
<g id="edge12" class="edge">
<title>processing_failed&#45;&gt;cleaning</title>
<path fill="none" stroke="black" stroke-width="2" d="M958.83,-365C991.24,-365 1038.99,-365 1080.64,-365 1080.64,-365 1080.64,-365 1900.75,-365 1953.08,-365 1967.46,-345.68 2003.77,-308 2020.88,-290.25 2032.76,-264.53 2039.83,-245.66"/>
<polygon fill="black" stroke="black" stroke-width="2" points="2042.32,-246.49 2042.39,-238.54 2037.38,-244.71 2042.32,-246.49"/>
</g>
<!-- distributing -->
<g id="node14" class="node">
<title>distributing</title>
<ellipse fill="none" stroke="black" cx="1005.64" cy="-265" rx="27" ry="18"/>
<text text-anchor="middle" x="1005.64" y="-263.1" font-family="Helvetica" font-size="8.00">distributing</text>
</g>
<!-- processed&#45;&gt;distributing -->
<g id="edge13" class="edge">
<title>processed&#45;&gt;distributing</title>
<path fill="none" stroke="black" stroke-width="2" d="M863,-310.56C892.96,-300.92 941.95,-285.17 973.74,-274.94"/>
<polygon fill="black" stroke="black" stroke-width="2" points="974.7,-277.39 981.03,-272.59 973.09,-272.39 974.7,-277.39"/>
</g>
<!-- storing -->
<g id="node11" class="node">
<title>storing</title>
<ellipse fill="none" stroke="black" cx="1591.57" cy="-164" rx="27" ry="18"/>
<text text-anchor="middle" x="1591.57" y="-162.1" font-family="Helvetica" font-size="8.00">storing</text>
</g>
<!-- sda_soft_failed -->
<g id="node12" class="node">
<title>sda_soft_failed</title>
<ellipse fill="none" stroke="black" cx="1758.84" cy="-121" rx="27.77" ry="18"/>
<text text-anchor="middle" x="1758.84" y="-119.1" font-family="Helvetica" font-size="8.00">sda_soft_failed</text>
</g>
<!-- storing&#45;&gt;sda_soft_failed -->
<g id="edge30" class="edge">
<title>storing&#45;&gt;sda_soft_failed</title>
<path fill="none" stroke="black" stroke-width="2" d="M1616.96,-157.66C1645.72,-150.17 1693.64,-137.71 1725.48,-129.42"/>
<polygon fill="black" stroke="black" stroke-width="2" points="1726.22,-131.94 1732.82,-127.51 1724.9,-126.86 1726.22,-131.94"/>
<text text-anchor="middle" x="1679.46" y="-152.6" font-family="Helvetica" font-size="8.00">Push to SDA failed</text>
</g>
<!-- finished -->
<g id="node22" class="node">
<title>finished</title>
<polygon fill="none" stroke="black" points="1785.84,-180.56 1758.84,-193 1731.84,-180.56 1731.87,-160.44 1785.82,-160.44 1785.84,-180.56"/>
<text text-anchor="middle" x="1758.84" y="-173.1" font-family="Helvetica" font-size="8.00">finished</text>
</g>
<!-- storing&#45;&gt;finished -->
<g id="edge29" class="edge">
<title>storing&#45;&gt;finished</title>
<path fill="none" stroke="black" stroke-width="2" d="M1618.76,-165.74C1647.29,-167.64 1693.01,-170.68 1724.19,-172.76"/>
<polygon fill="black" stroke="black" stroke-width="2" points="1724.12,-175.39 1731.78,-173.27 1724.47,-170.15 1724.12,-175.39"/>
<text text-anchor="middle" x="1679.46" y="-182.6" font-family="Helvetica" font-size="8.00">Package</text>
<text text-anchor="middle" x="1679.46" y="-173.6" font-family="Helvetica" font-size="8.00">pushed to SDA</text>
</g>
<!-- sda_hard_failed -->
<g id="node13" class="node">
<title>sda_hard_failed</title>
<polygon fill="none" stroke="black" points="1936.79,-153.56 1899.75,-166 1862.71,-153.56 1862.74,-133.44 1936.76,-133.44 1936.79,-153.56"/>
<text text-anchor="middle" x="1899.75" y="-146.1" font-family="Helvetica" font-size="8.00">sda_hard_failed</text>
</g>
<!-- sda_soft_failed&#45;&gt;sda_hard_failed -->
<g id="edge32" class="edge">
<title>sda_soft_failed&#45;&gt;sda_hard_failed</title>
<path fill="none" stroke="black" stroke-width="2" d="M1785.65,-126.02C1805.1,-129.8 1832.24,-135.07 1855.06,-139.51"/>
<polygon fill="black" stroke="black" stroke-width="2" points="1854.75,-142.12 1862.61,-140.98 1855.75,-136.97 1854.75,-142.12"/>
<text text-anchor="middle" x="1824.73" y="-147.6" font-family="Helvetica" font-size="8.00">SDA retries</text>
<text text-anchor="middle" x="1824.73" y="-138.6" font-family="Helvetica" font-size="8.00">exhausted</text>
</g>
<!-- distributed -->
<g id="node20" class="node">
<title>distributed</title>
<polygon fill="none" stroke="black" points="1481.82,-115.56 1454.82,-128 1427.82,-115.56 1427.85,-95.44 1481.8,-95.44 1481.82,-115.56"/>
<text text-anchor="middle" x="1454.82" y="-108.1" font-family="Helvetica" font-size="8.00">distributed</text>
</g>
<!-- sda_soft_failed&#45;&gt;distributed -->
<g id="edge31" class="edge">
<title>sda_soft_failed&#45;&gt;distributed</title>
<path fill="none" stroke="black" stroke-width="2" d="M1730.92,-120.02C1675.77,-118.01 1550.07,-113.43 1489.58,-111.23"/>
<polygon fill="black" stroke="black" stroke-width="2" points="1489.42,-108.6 1481.83,-110.95 1489.23,-113.84 1489.42,-108.6"/>
<text text-anchor="middle" x="1591.57" y="-127.6" font-family="Helvetica" font-size="8.00">Retry a finite</text>
<text text-anchor="middle" x="1591.57" y="-118.6" font-family="Helvetica" font-size="8.00">number of times</text>
</g>
<!-- sda_hard_failed&#45;&gt;cleaning -->
<g id="edge33" class="edge">
<title>sda_hard_failed&#45;&gt;cleaning</title>
<path fill="none" stroke="black" stroke-width="2" d="M1922.13,-158.61C1947.83,-171.37 1991.03,-192.83 2019.47,-206.95"/>
<polygon fill="black" stroke="black" stroke-width="2" points="2018.48,-209.39 2026.37,-210.37 2020.82,-204.69 2018.48,-209.39"/>
</g>
<!-- hcp_soft_failed -->
<g id="node15" class="node">
<title>hcp_soft_failed</title>
<ellipse fill="none" stroke="black" cx="1156.52" cy="-319" rx="27.77" ry="18"/>
<text text-anchor="middle" x="1156.52" y="-317.1" font-family="Helvetica" font-size="8.00">hcp_soft_failed</text>
</g>
<!-- distributing&#45;&gt;hcp_soft_failed -->
<g id="edge15" class="edge">
<title>distributing&#45;&gt;hcp_soft_failed</title>
<path fill="none" stroke="black" stroke-width="2" d="M1031.45,-271.02C1052.8,-276.52 1084.24,-285.41 1110.64,-296 1116.35,-298.29 1122.31,-301.06 1127.96,-303.87"/>
<polygon fill="black" stroke="black" stroke-width="2" points="1127.02,-306.34 1134.89,-307.42 1129.41,-301.67 1127.02,-306.34"/>
<text text-anchor="middle" x="1081.64" y="-298.6" font-family="Helvetica" font-size="8.00">HCP push failed</text>
</g>
<!-- submitting -->
<g id="node18" class="node">
<title>submitting</title>
<ellipse fill="none" stroke="black" cx="1156.52" cy="-243" rx="27" ry="18"/>
<text text-anchor="middle" x="1156.52" y="-241.1" font-family="Helvetica" font-size="8.00">submitting</text>
</g>
<!-- distributing&#45;&gt;submitting -->
<g id="edge14" class="edge">
<title>distributing&#45;&gt;submitting</title>
<path fill="none" stroke="black" stroke-width="2" d="M1030.31,-257.39C1037.43,-255.35 1045.29,-253.35 1052.64,-252 1075.53,-247.8 1101.65,-245.55 1121.84,-244.35"/>
<polygon fill="black" stroke="black" stroke-width="2" points="1122.21,-246.95 1129.55,-243.92 1121.92,-241.71 1122.21,-246.95"/>
<text text-anchor="middle" x="1081.64" y="-263.6" font-family="Helvetica" font-size="8.00">Derivatives</text>
<text text-anchor="middle" x="1081.64" y="-254.6" font-family="Helvetica" font-size="8.00">pushed to HCP</text>
</g>
<!-- hcp_soft_failed&#45;&gt;processed -->
<g id="edge16" class="edge">
<title>hcp_soft_failed&#45;&gt;processed</title>
<path fill="none" stroke="black" stroke-width="2" d="M1128.63,-319C1070.71,-319 934.29,-319 870.61,-319"/>
<polygon fill="black" stroke="black" stroke-width="2" points="870.35,-316.38 862.85,-319 870.35,-321.63 870.35,-316.38"/>
<text text-anchor="middle" x="1005.64" y="-330.6" font-family="Helvetica" font-size="8.00">Retry a finite</text>
<text text-anchor="middle" x="1005.64" y="-321.6" font-family="Helvetica" font-size="8.00">number of times</text>
</g>
<!-- hcp_hard_failed -->
<g id="node16" class="node">
<title>hcp_hard_failed</title>
<polygon fill="none" stroke="black" points="1409.48,-335.56 1372.43,-348 1335.39,-335.56 1335.42,-315.44 1409.44,-315.44 1409.48,-335.56"/>
<text text-anchor="middle" x="1372.43" y="-328.1" font-family="Helvetica" font-size="8.00">hcp_hard_failed</text>
</g>
<!-- hcp_soft_failed&#45;&gt;hcp_hard_failed -->
<g id="edge17" class="edge">
<title>hcp_soft_failed&#45;&gt;hcp_hard_failed</title>
<path fill="none" stroke="black" stroke-width="2" d="M1184.62,-320.39C1220.67,-322.25 1284.87,-325.55 1327.8,-327.76"/>
<polygon fill="black" stroke="black" stroke-width="2" points="1327.66,-330.38 1335.29,-328.14 1327.93,-325.13 1327.66,-330.38"/>
<text text-anchor="middle" x="1223.91" y="-334.6" font-family="Helvetica" font-size="8.00">HCP retries</text>
<text text-anchor="middle" x="1223.91" y="-325.6" font-family="Helvetica" font-size="8.00">exhausted</text>
</g>
<!-- hcp_hard_failed&#45;&gt;cleaning -->
<g id="edge18" class="edge">
<title>hcp_hard_failed&#45;&gt;cleaning</title>
<path fill="none" stroke="black" stroke-width="2" d="M1409.59,-328.83C1438.77,-327.99 1480.87,-327 1517.69,-327 1517.69,-327 1517.69,-327 1900.75,-327 1957.45,-327 2007.17,-274.49 2031.64,-243.38"/>
<polygon fill="black" stroke="black" stroke-width="2" points="2033.99,-244.64 2036.48,-237.1 2029.82,-241.44 2033.99,-244.64"/>
</g>
<!-- dist_hard_failed -->
<g id="node17" class="node">
<title>dist_hard_failed</title>
<polygon fill="none" stroke="black" points="1627.84,-225.56 1591.57,-238 1555.31,-225.56 1555.34,-205.44 1627.81,-205.44 1627.84,-225.56"/>
<text text-anchor="middle" x="1591.57" y="-218.1" font-family="Helvetica" font-size="8.00">dist_hard_failed</text>
</g>
<!-- dist_hard_failed&#45;&gt;cleaning -->
<g id="edge27" class="edge">
<title>dist_hard_failed&#45;&gt;cleaning</title>
<path fill="none" stroke="black" stroke-width="2" d="M1627.91,-220.08C1713.31,-220.27 1930.01,-220.74 2013.89,-220.93"/>
<polygon fill="black" stroke="black" stroke-width="2" points="2014.08,-223.55 2021.58,-220.94 2014.09,-218.3 2014.08,-223.55"/>
</g>
<!-- submitting&#45;&gt;dist_hard_failed -->
<g id="edge21" class="edge">
<title>submitting&#45;&gt;dist_hard_failed</title>
<path fill="none" stroke="black" stroke-width="2" d="M1182.1,-249.11C1188.67,-250.57 1195.78,-251.99 1202.41,-253 1229.3,-257.08 1236.23,-256.89 1263.41,-258 1385.22,-262.98 1418.38,-268.32 1537.19,-241 1545.2,-239.16 1553.59,-236.32 1561.28,-233.33"/>
<polygon fill="black" stroke="black" stroke-width="2" points="1562.75,-235.56 1568.71,-230.3 1560.77,-230.7 1562.75,-235.56"/>
<text text-anchor="middle" x="1372.43" y="-273.6" font-family="Helvetica" font-size="8.00">Package cannot</text>
<text text-anchor="middle" x="1372.43" y="-264.6" font-family="Helvetica" font-size="8.00">be distributed</text>
</g>
<!-- dist_waiting -->
<g id="node19" class="node">
<title>dist_waiting</title>
<ellipse fill="none" stroke="black" cx="1290.41" cy="-126" rx="27" ry="18"/>
<text text-anchor="middle" x="1290.41" y="-124.1" font-family="Helvetica" font-size="8.00">dist_waiting</text>
</g>
<!-- submitting&#45;&gt;dist_waiting -->
<g id="edge19" class="edge">
<title>submitting&#45;&gt;dist_waiting</title>
<path fill="none" stroke="black" stroke-width="2" d="M1159.9,-225.06C1164.05,-201.35 1174.98,-160.11 1202.41,-139 1217.42,-127.45 1238.3,-124.04 1255.85,-123.59"/>
<polygon fill="black" stroke="black" stroke-width="2" points="1256.14,-126.22 1263.64,-123.58 1256.13,-120.97 1256.14,-126.22"/>
<text text-anchor="middle" x="1223.91" y="-159.6" font-family="Helvetica" font-size="8.00">Submitting</text>
<text text-anchor="middle" x="1223.91" y="-150.6" font-family="Helvetica" font-size="8.00">metadata to</text>
<text text-anchor="middle" x="1223.91" y="-141.6" font-family="Helvetica" font-size="8.00">Switchyard</text>
</g>
<!-- dist_soft_failed -->
<g id="node26" class="node">
<title>dist_soft_failed</title>
<ellipse fill="none" stroke="black" cx="1454.82" cy="-218" rx="27.24" ry="18"/>
<text text-anchor="middle" x="1454.82" y="-216.1" font-family="Helvetica" font-size="8.00">dist_soft_failed</text>
</g>
<!-- submitting&#45;&gt;dist_soft_failed -->
<g id="edge20" class="edge">
<title>submitting&#45;&gt;dist_soft_failed</title>
<path fill="none" stroke="black" stroke-width="2" d="M1176.91,-230.89C1197.47,-218.8 1231.36,-201.06 1263.41,-194 1286.85,-188.84 1294.18,-187.98 1317.41,-194 1326.27,-196.3 1326.7,-201.19 1335.41,-204 1362.96,-212.9 1395.75,-216.25 1419.83,-217.46"/>
<polygon fill="black" stroke="black" stroke-width="2" points="1419.72,-220.09 1427.33,-217.79 1419.95,-214.84 1419.72,-220.09"/>
<text text-anchor="middle" x="1290.41" y="-214.6" font-family="Helvetica" font-size="8.00">Switchyard</text>
<text text-anchor="middle" x="1290.41" y="-205.6" font-family="Helvetica" font-size="8.00">temporarily</text>
<text text-anchor="middle" x="1290.41" y="-196.6" font-family="Helvetica" font-size="8.00">unavailable</text>
</g>
<!-- dist_waiting&#45;&gt;dist_hard_failed -->
<g id="edge23" class="edge">
<title>dist_waiting&#45;&gt;dist_hard_failed</title>
<path fill="none" stroke="black" stroke-width="2" d="M1316.49,-130.78C1353.33,-138.11 1424.01,-153.37 1482.19,-173 1506.36,-181.15 1532.61,-192.47 1553.23,-201.96"/>
<polygon fill="black" stroke="black" stroke-width="2" points="1552.37,-204.45 1560.28,-205.23 1554.58,-199.69 1552.37,-204.45"/>
<text text-anchor="middle" x="1454.82" y="-184.6" font-family="Helvetica" font-size="8.00">Distribution</text>
<text text-anchor="middle" x="1454.82" y="-175.6" font-family="Helvetica" font-size="8.00">unsuccessful</text>
</g>
<!-- dist_waiting&#45;&gt;distributed -->
<g id="edge22" class="edge">
<title>dist_waiting&#45;&gt;distributed</title>
<path fill="none" stroke="black" stroke-width="2" d="M1313.89,-116.79C1320.69,-114.43 1328.25,-112.22 1335.41,-111 1363.63,-106.2 1396.19,-106.33 1420.02,-107.44"/>
<polygon fill="black" stroke="black" stroke-width="2" points="1420.11,-110.07 1427.74,-107.85 1420.39,-104.83 1420.11,-110.07"/>
<text text-anchor="middle" x="1372.43" y="-122.6" font-family="Helvetica" font-size="8.00">Distribution</text>
<text text-anchor="middle" x="1372.43" y="-113.6" font-family="Helvetica" font-size="8.00">successful</text>
</g>
<!-- dist_waiting&#45;&gt;dist_soft_failed -->
<g id="edge24" class="edge">
<title>dist_waiting&#45;&gt;dist_soft_failed</title>
<path fill="none" stroke="black" stroke-width="2" d="M1309.63,-139.13C1317.32,-144.26 1326.54,-149.89 1335.41,-154 1366.68,-168.49 1379.61,-159.77 1409.45,-177 1418.72,-182.35 1427.64,-189.94 1435.03,-197.15"/>
<polygon fill="black" stroke="black" stroke-width="2" points="1433.22,-199.05 1440.36,-202.53 1436.95,-195.36 1433.22,-199.05"/>
<text text-anchor="middle" x="1372.43" y="-197.6" font-family="Helvetica" font-size="8.00">Distribution</text>
<text text-anchor="middle" x="1372.43" y="-188.6" font-family="Helvetica" font-size="8.00">temporarily</text>
<text text-anchor="middle" x="1372.43" y="-179.6" font-family="Helvetica" font-size="8.00">unsuccessful</text>
</g>
<!-- distributed&#45;&gt;storing -->
<g id="edge28" class="edge">
<title>distributed&#45;&gt;storing</title>
<path fill="none" stroke="black" stroke-width="2" d="M1476.29,-118.2C1498.8,-127.22 1535.2,-141.81 1560.85,-152.09"/>
<polygon fill="black" stroke="black" stroke-width="2" points="1560.18,-154.65 1568.12,-155 1562.13,-149.77 1560.18,-154.65"/>
</g>
<!-- deleted -->
<g id="node24" class="node">
<title>deleted</title>
<ellipse fill="none" stroke="black" cx="2213.77" cy="-221" rx="27" ry="18"/>
<text text-anchor="middle" x="2213.77" y="-219.1" font-family="Helvetica" font-size="8.00">deleted</text>
</g>
<!-- cleaning&#45;&gt;deleted -->
<g id="edge35" class="edge">
<title>cleaning&#45;&gt;deleted</title>
<path fill="none" stroke="black" stroke-width="2" d="M2075.96,-221C2103.88,-221 2148.21,-221 2178.8,-221"/>
<polygon fill="black" stroke="black" stroke-width="2" points="2179.15,-223.63 2186.65,-221 2179.15,-218.38 2179.15,-223.63"/>
<text text-anchor="middle" x="2131.27" y="-241.6" font-family="Helvetica" font-size="8.00">Failed packages</text>
<text text-anchor="middle" x="2131.27" y="-232.6" font-family="Helvetica" font-size="8.00"> moved to temporary</text>
<text text-anchor="middle" x="2131.27" y="-223.6" font-family="Helvetica" font-size="8.00"> debugging storage</text>
</g>
<!-- to_delete -->
<g id="node23" class="node">
<title>to_delete</title>
<polygon fill="none" stroke="black" points="1926.75,-23.56 1899.75,-36 1872.75,-23.56 1872.78,-3.44 1926.73,-3.44 1926.75,-23.56"/>
<text text-anchor="middle" x="1899.75" y="-16.1" font-family="Helvetica" font-size="8.00">to_delete</text>
</g>
<!-- to_delete&#45;&gt;cleaning -->
<g id="edge34" class="edge">
<title>to_delete&#45;&gt;cleaning</title>
<path fill="none" stroke="black" stroke-width="2" d="M1926.99,-13.98C1950.11,-12.02 1983.22,-13.29 2003.77,-32 2027.67,-53.76 2040.47,-149.1 2045.37,-195.48"/>
<polygon fill="black" stroke="black" stroke-width="2" points="2042.77,-195.82 2046.15,-203.01 2047.99,-195.28 2042.77,-195.82"/>
<text text-anchor="middle" x="1979.27" y="-43.6" font-family="Helvetica" font-size="8.00">Manually</text>
<text text-anchor="middle" x="1979.27" y="-34.6" font-family="Helvetica" font-size="8.00">force deletion</text>
</g>
<!-- debugging -->
<g id="node25" class="node">
<title>debugging</title>
<polygon fill="none" stroke="black" points="2388.77,-213.54 2388.77,-228.46 2372.96,-239 2350.59,-239 2334.77,-228.46 2334.77,-213.54 2350.59,-203 2372.96,-203 2388.77,-213.54"/>
<text text-anchor="middle" x="2361.77" y="-219.1" font-family="Helvetica" font-size="8.00">debugging</text>
</g>
<!-- deleted&#45;&gt;debugging -->
<g id="edge36" class="edge">
<title>deleted&#45;&gt;debugging</title>
<path fill="none" stroke="black" stroke-width="2" d="M2240.87,-221C2264.81,-221 2300.41,-221 2326.6,-221"/>
<polygon fill="black" stroke="black" stroke-width="2" points="2326.9,-223.63 2334.4,-221 2326.9,-218.38 2326.9,-223.63"/>
<text text-anchor="middle" x="2287.77" y="-241.6" font-family="Helvetica" font-size="8.00">May move to</text>
<text text-anchor="middle" x="2287.77" y="-232.6" font-family="Helvetica" font-size="8.00">any other house</text>
<text text-anchor="middle" x="2287.77" y="-223.6" font-family="Helvetica" font-size="8.00">state manually</text>
</g>
<!-- dist_soft_failed&#45;&gt;dist_hard_failed -->
<g id="edge25" class="edge">
<title>dist_soft_failed&#45;&gt;dist_hard_failed</title>
<path fill="none" stroke="black" stroke-width="2" d="M1482.45,-218.4C1500.96,-218.67 1526.05,-219.04 1547.4,-219.36"/>
<polygon fill="black" stroke="black" stroke-width="2" points="1547.53,-221.99 1555.07,-219.47 1547.61,-216.74 1547.53,-221.99"/>
<text text-anchor="middle" x="1518.69" y="-230.6" font-family="Helvetica" font-size="8.00">Retries</text>
<text text-anchor="middle" x="1518.69" y="-221.6" font-family="Helvetica" font-size="8.00">exhausted</text>
</g>
<!-- dist_soft_failed&#45;&gt;submitting -->
<g id="edge26" class="edge">
<title>dist_soft_failed&#45;&gt;submitting</title>
<path fill="none" stroke="black" stroke-width="2" d="M1428.05,-221.75C1421.96,-222.56 1415.48,-223.37 1409.45,-224 1331.56,-232.2 1239.77,-238.2 1191.36,-241.09"/>
<polygon fill="black" stroke="black" stroke-width="2" points="1191.02,-238.48 1183.68,-241.54 1191.32,-243.72 1191.02,-238.48"/>
<text text-anchor="middle" x="1290.41" y="-247.6" font-family="Helvetica" font-size="8.00">Retry</text>
<text text-anchor="middle" x="1290.41" y="-238.6" font-family="Helvetica" font-size="8.00">submission</text>
</g>
</g>
</svg>
