<?xml version="1.0" encoding="UTF-8" standalone="no"?>
<!DOCTYPE svg PUBLIC "-//W3C//DTD SVG 1.1//EN"
 "http://www.w3.org/Graphics/SVG/1.1/DTD/svg11.dtd">
<!-- Generated by graphviz version 2.40.1 (0)
 -->
<!-- Title: %3 Pages: 1 -->
<svg width="2471pt" height="658pt"
 viewBox="0.00 0.00 2471.29 658.00" xmlns="http://www.w3.org/2000/svg" xmlns:xlink="http://www.w3.org/1999/xlink">
<g id="graph0" class="graph" transform="scale(1 1) rotate(0) translate(4 654)">
<title>%3</title>
<polygon fill="#ffffff" stroke="transparent" points="-4,4 -4,-654 2467.2865,-654 2467.2865,4 -4,4"/>
<text text-anchor="middle" x="1231.6433" y="-636.4" font-family="Helvetica,sans-Serif" font-size="12.00" fill="#000000">U&#45;M/IU AMI object flow</text>
<g id="clust1" class="cluster">
<title>cluster_legend</title>
<polygon fill="none" stroke="#000000" points="2365.2865,-8 2365.2865,-621 2455.2865,-621 2455.2865,-8 2365.2865,-8"/>
<text text-anchor="middle" x="2410.2865" y="-607.4" font-family="Helvetica,sans-Serif" font-size="12.00" fill="#000000">Legend</text>
</g>
<!-- start -->
<g id="node1" class="node">
<title>start</title>
<polygon fill="none" stroke="#000000" points="54,-497 0,-497 0,-461 54,-461 54,-497"/>
<text text-anchor="middle" x="27" y="-477.1" font-family="Helvetica,sans-Serif" font-size="8.00" fill="#000000">START</text>
</g>
<!-- transferred -->
<g id="node14" class="node">
<title>transferred</title>
<ellipse fill="none" stroke="#000000" cx="151" cy="-479" rx="27" ry="18"/>
<text text-anchor="middle" x="151" y="-477.1" font-family="Helvetica,sans-Serif" font-size="8.00" fill="#000000">transferred</text>
</g>
<!-- start&#45;&gt;transferred -->
<g id="edge1" class="edge">
<title>start&#45;&gt;transferred</title>
<path fill="none" stroke="#8dd3c7" stroke-width="2" d="M54.2123,-479C72.4642,-479 96.6629,-479 116.2978,-479"/>
<polygon fill="#8dd3c7" stroke="#8dd3c7" stroke-width="2" points="116.3512,-481.6251 123.8512,-479 116.3511,-476.3751 116.3512,-481.6251"/>
<text text-anchor="middle" x="89" y="-490.6" font-family="Helvetica,sans-Serif" font-size="8.00" fill="#000000">Package</text>
<text text-anchor="middle" x="89" y="-481.6" font-family="Helvetica,sans-Serif" font-size="8.00" fill="#000000">delivered</text>
</g>
<!-- validation_failed -->
<g id="node2" class="node">
<title>validation_failed</title>
<polygon fill="none" stroke="#000000" points="441.0647,-512.5623 404.0216,-525 366.9784,-512.5623 367.013,-492.4377 441.0301,-492.4377 441.0647,-512.5623"/>
<text text-anchor="middle" x="404.0216" y="-505.1" font-family="Helvetica,sans-Serif" font-size="8.00" fill="#000000">validation_failed</text>
</g>
<!-- cleaning -->
<g id="node25" class="node">
<title>cleaning</title>
<ellipse fill="none" stroke="#000000" cx="1993.2865" cy="-250" rx="27" ry="18"/>
<text text-anchor="middle" x="1993.2865" y="-248.1" font-family="Helvetica,sans-Serif" font-size="8.00" fill="#000000">cleaning</text>
</g>
<!-- validation_failed&#45;&gt;cleaning -->
<g id="edge30" class="edge">
<title>validation_failed&#45;&gt;cleaning</title>
<path fill="none" stroke="#80b1d3" stroke-width="2" d="M441.2596,-507C471.8264,-507 516.239,-507 555.0431,-507 555.0431,-507 555.0431,-507 1844.2649,-507 1902.0504,-507 1916.2886,-477.1175 1948.2865,-429 1964.9904,-403.8811 1981.4652,-318.8859 1989.0124,-275.6765"/>
<polygon fill="#80b1d3" stroke="#80b1d3" stroke-width="2" points="1991.628,-275.9556 1990.3158,-268.1185 1986.4543,-275.0633 1991.628,-275.9556"/>
</g>
<!-- local_failed -->
<g id="node3" class="node">
<title>local_failed</title>
<polygon fill="none" stroke="#000000" points="582.0431,-466.5623 555.0431,-479 528.0431,-466.5623 528.0683,-446.4377 582.0179,-446.4377 582.0431,-466.5623"/>
<text text-anchor="middle" x="555.0431" y="-459.1" font-family="Helvetica,sans-Serif" font-size="8.00" fill="#000000">local_failed</text>
</g>
<!-- local_failed&#45;&gt;cleaning -->
<g id="edge34" class="edge">
<title>local_failed&#45;&gt;cleaning</title>
<path fill="none" stroke="#80b1d3" stroke-width="2" d="M582.1062,-462.8127C600.1978,-463.8711 624.5363,-465 646.0431,-465 646.0431,-465 646.0431,-465 1844.2649,-465 1935.571,-465 1975.3742,-332.4009 1988.2557,-275.4703"/>
<polygon fill="#80b1d3" stroke="#80b1d3" stroke-width="2" points="1990.8599,-275.8486 1989.8972,-267.961 1985.7311,-274.7274 1990.8599,-275.8486"/>
</g>
<!-- accepted -->
<g id="node4" class="node">
<title>accepted</title>
<polygon fill="none" stroke="#000000" points="582.0431,-412.5623 555.0431,-425 528.0431,-412.5623 528.0683,-392.4377 582.0179,-392.4377 582.0431,-412.5623"/>
<text text-anchor="middle" x="555.0431" y="-405.1" font-family="Helvetica,sans-Serif" font-size="8.00" fill="#000000">accepted</text>
</g>
<!-- processing -->
<g id="node17" class="node">
<title>processing</title>
<ellipse fill="none" stroke="#000000" cx="646.0431" cy="-224" rx="27" ry="18"/>
<text text-anchor="middle" x="646.0431" y="-222.1" font-family="Helvetica,sans-Serif" font-size="8.00" fill="#000000">processing</text>
</g>
<!-- accepted&#45;&gt;processing -->
<g id="edge7" class="edge">
<title>accepted&#45;&gt;processing</title>
<path fill="none" stroke="#b3de69" stroke-width="2" d="M562.3362,-392.3337C578.0195,-360.7948 615.0758,-286.2749 634.1869,-247.8427"/>
<polygon fill="#b3de69" stroke="#b3de69" stroke-width="2" points="636.5483,-248.9894 637.5373,-241.1051 631.8474,-246.6518 636.5483,-248.9894"/>
</g>
<!-- processing_failed -->
<g id="node5" class="node">
<title>processing_failed</title>
<polygon fill="none" stroke="#000000" points="866.5978,-151.5623 825.8945,-164 785.1912,-151.5623 785.2292,-131.4377 866.5598,-131.4377 866.5978,-151.5623"/>
<text text-anchor="middle" x="825.8945" y="-144.1" font-family="Helvetica,sans-Serif" font-size="8.00" fill="#000000">processing_failed</text>
</g>
<!-- processing_failed&#45;&gt;cleaning -->
<g id="edge35" class="edge">
<title>processing_failed&#45;&gt;cleaning</title>
<path fill="none" stroke="#80b1d3" stroke-width="2" d="M844.4587,-131.2688C864.954,-116.52 899.5278,-96 933.2459,-96 933.2459,-96 933.2459,-96 1844.2649,-96 1899.2567,-96 1911.289,-122.3149 1948.2865,-163 1964.8505,-181.2149 1977.0721,-206.6537 1984.565,-225.3194"/>
<polygon fill="#80b1d3" stroke="#80b1d3" stroke-width="2" points="1982.1374,-226.3197 1987.298,-232.3619 1987.0317,-224.4202 1982.1374,-226.3197"/>
</g>
<!-- processed -->
<g id="node6" class="node">
<title>processed</title>
<polygon fill="none" stroke="#000000" points="852.8945,-229.5623 825.8945,-242 798.8945,-229.5623 798.9197,-209.4377 852.8693,-209.4377 852.8945,-229.5623"/>
<text text-anchor="middle" x="825.8945" y="-222.1" font-family="Helvetica,sans-Serif" font-size="8.00" fill="#000000">processed</text>
</g>
<!-- distributing -->
<g id="node18" class="node">
<title>distributing</title>
<ellipse fill="none" stroke="#000000" cx="933.2459" cy="-224" rx="27" ry="18"/>
<text text-anchor="middle" x="933.2459" y="-222.1" font-family="Helvetica,sans-Serif" font-size="8.00" fill="#000000">distributing</text>
</g>
<!-- processed&#45;&gt;distributing -->
<g id="edge10" class="edge">
<title>processed&#45;&gt;distributing</title>
<path fill="none" stroke="#bebada" stroke-width="2" d="M852.9838,-224C866.8418,-224 883.863,-224 898.6592,-224"/>
<polygon fill="#bebada" stroke="#bebada" stroke-width="2" points="898.6653,-226.6251 906.1653,-224 898.6652,-221.3751 898.6653,-226.6251"/>
</g>
<!-- sda_hard_failed -->
<g id="node7" class="node">
<title>sda_hard_failed</title>
<polygon fill="none" stroke="#000000" points="1881.3081,-334.5623 1844.2649,-347 1807.2218,-334.5623 1807.2564,-314.4377 1881.2735,-314.4377 1881.3081,-334.5623"/>
<text text-anchor="middle" x="1844.2649" y="-327.1" font-family="Helvetica,sans-Serif" font-size="8.00" fill="#000000">sda_hard_failed</text>
</g>
<!-- sda_hard_failed&#45;&gt;cleaning -->
<g id="edge31" class="edge">
<title>sda_hard_failed&#45;&gt;cleaning</title>
<path fill="none" stroke="#80b1d3" stroke-width="2" d="M1871.9455,-314.3258C1898.5254,-300.2352 1938.4757,-279.0566 1965.193,-264.8931"/>
<polygon fill="#80b1d3" stroke="#80b1d3" stroke-width="2" points="1966.6225,-267.1063 1972.0195,-261.2742 1964.1635,-262.4678 1966.6225,-267.1063"/>
</g>
<!-- hcp_hard_failed -->
<g id="node8" class="node">
<title>hcp_hard_failed</title>
<polygon fill="none" stroke="#000000" points="1267.6143,-147.5623 1230.5712,-160 1193.5281,-147.5623 1193.5626,-127.4377 1267.5797,-127.4377 1267.6143,-147.5623"/>
<text text-anchor="middle" x="1230.5712" y="-140.1" font-family="Helvetica,sans-Serif" font-size="8.00" fill="#000000">hcp_hard_failed</text>
</g>
<!-- hcp_hard_failed&#45;&gt;cleaning -->
<g id="edge32" class="edge">
<title>hcp_hard_failed&#45;&gt;cleaning</title>
<path fill="none" stroke="#80b1d3" stroke-width="2" d="M1267.7319,-144.8882C1300.4333,-147.1797 1349.3445,-150 1391.9946,-150 1391.9946,-150 1391.9946,-150 1844.2649,-150 1899.823,-150 1950.2855,-198.518 1975.7955,-227.9637"/>
<polygon fill="#80b1d3" stroke="#80b1d3" stroke-width="2" points="1974.0021,-229.9078 1980.8531,-233.9333 1978.0077,-226.514 1974.0021,-229.9078"/>
</g>
<!-- dist_hard_failed -->
<g id="node9" class="node">
<title>dist_hard_failed</title>
<polygon fill="none" stroke="#000000" points="1569.4612,-255.5623 1532.4181,-268 1495.3749,-255.5623 1495.4095,-235.4377 1569.4266,-235.4377 1569.4612,-255.5623"/>
<text text-anchor="middle" x="1532.4181" y="-248.1" font-family="Helvetica,sans-Serif" font-size="8.00" fill="#000000">dist_hard_failed</text>
</g>
<!-- dist_hard_failed&#45;&gt;cleaning -->
<g id="edge33" class="edge">
<title>dist_hard_failed&#45;&gt;cleaning</title>
<path fill="none" stroke="#80b1d3" stroke-width="2" d="M1569.7425,-250C1657.1239,-250 1873.9711,-250 1958.6388,-250"/>
<polygon fill="#80b1d3" stroke="#80b1d3" stroke-width="2" points="1958.6741,-252.6251 1966.174,-250 1958.674,-247.3751 1958.6741,-252.6251"/>
</g>
<!-- distributed -->
<g id="node10" class="node">
<title>distributed</title>
<polygon fill="none" stroke="#000000" points="1418.9946,-401.5623 1391.9946,-414 1364.9946,-401.5623 1365.0198,-381.4377 1418.9694,-381.4377 1418.9946,-401.5623"/>
<text text-anchor="middle" x="1391.9946" y="-394.1" font-family="Helvetica,sans-Serif" font-size="8.00" fill="#000000">distributed</text>
</g>
<!-- storing -->
<g id="node23" class="node">
<title>storing</title>
<ellipse fill="none" stroke="#000000" cx="1532.4181" cy="-408" rx="27" ry="18"/>
<text text-anchor="middle" x="1532.4181" y="-406.1" font-family="Helvetica,sans-Serif" font-size="8.00" fill="#000000">storing</text>
</g>
<!-- distributed&#45;&gt;storing -->
<g id="edge25" class="edge">
<title>distributed&#45;&gt;storing</title>
<path fill="none" stroke="#fb8072" stroke-width="2" d="M1419.0697,-398.3137C1441.5072,-400.2311 1473.5406,-402.9686 1497.833,-405.0445"/>
<polygon fill="#fb8072" stroke="#fb8072" stroke-width="2" points="1497.7298,-407.6702 1505.4261,-405.6934 1498.1769,-402.4392 1497.7298,-407.6702"/>
</g>
<!-- finished -->
<g id="node11" class="node">
<title>finished</title>
<polygon fill="none" stroke="#000000" points="1727.8415,-424.5623 1700.8415,-437 1673.8415,-424.5623 1673.8667,-404.4377 1727.8163,-404.4377 1727.8415,-424.5623"/>
<text text-anchor="middle" x="1700.8415" y="-417.1" font-family="Helvetica,sans-Serif" font-size="8.00" fill="#000000">finished</text>
</g>
<!-- to_delete -->
<g id="node12" class="node">
<title>to_delete</title>
<polygon fill="none" stroke="#000000" points="1871.2649,-55.5623 1844.2649,-68 1817.2649,-55.5623 1817.2901,-35.4377 1871.2397,-35.4377 1871.2649,-55.5623"/>
<text text-anchor="middle" x="1844.2649" y="-48.1" font-family="Helvetica,sans-Serif" font-size="8.00" fill="#000000">to_delete</text>
</g>
<!-- to_delete&#45;&gt;cleaning -->
<g id="edge36" class="edge">
<title>to_delete&#45;&gt;cleaning</title>
<path fill="none" stroke="#80b1d3" stroke-width="2" d="M1871.6331,-45.8724C1894.8994,-43.9967 1927.7136,-45.4551 1948.2865,-64 1971.8569,-85.247 1985.3077,-178.3553 1990.6169,-224.2463"/>
<polygon fill="#80b1d3" stroke="#80b1d3" stroke-width="2" points="1988.0393,-224.8161 1991.4856,-231.976 1993.2565,-224.2297 1988.0393,-224.8161"/>
<text text-anchor="middle" x="1923.7865" y="-75.6" font-family="Helvetica,sans-Serif" font-size="8.00" fill="#000000">Manually</text>
<text text-anchor="middle" x="1923.7865" y="-66.6" font-family="Helvetica,sans-Serif" font-size="8.00" fill="#000000">force deletion</text>
</g>
<!-- debugging -->
<g id="node13" class="node">
<title>debugging</title>
<polygon fill="none" stroke="#000000" points="2336.2865,-242.5442 2336.2865,-257.4558 2320.4703,-268 2298.1027,-268 2282.2865,-257.4558 2282.2865,-242.5442 2298.1027,-232 2320.4703,-232 2336.2865,-242.5442"/>
<text text-anchor="middle" x="2309.2865" y="-248.1" font-family="Helvetica,sans-Serif" font-size="8.00" fill="#000000">debugging</text>
</g>
<!-- distribute_packages -->
<g id="node29" class="node">
<title>distribute_packages</title>
<polygon fill="#bebada" stroke="#bebada" points="2447.2865,-268 2373.2865,-268 2373.2865,-232 2447.2865,-232 2447.2865,-268"/>
<text text-anchor="middle" x="2410.2865" y="-248.1" font-family="Helvetica,sans-Serif" font-size="8.00" fill="#000000">distribute_packages</text>
</g>
<!-- debugging&#45;&gt;distribute_packages -->
<!-- validating -->
<g id="node15" class="node">
<title>validating</title>
<ellipse fill="none" stroke="#000000" cx="242" cy="-479" rx="27" ry="18"/>
<text text-anchor="middle" x="242" y="-477.1" font-family="Helvetica,sans-Serif" font-size="8.00" fill="#000000">validating</text>
</g>
<!-- transferred&#45;&gt;validating -->
<g id="edge2" class="edge">
<title>transferred&#45;&gt;validating</title>
<path fill="none" stroke="#8dd3c7" stroke-width="2" d="M178.303,-479C187.3911,-479 197.6389,-479 207.2152,-479"/>
<polygon fill="#8dd3c7" stroke="#8dd3c7" stroke-width="2" points="207.2163,-481.6251 214.7163,-479 207.2162,-476.3751 207.2163,-481.6251"/>
</g>
<!-- validating&#45;&gt;validation_failed -->
<g id="edge4" class="edge">
<title>validating&#45;&gt;validation_failed</title>
<path fill="none" stroke="#8dd3c7" stroke-width="2" d="M268.3922,-483.561C292.9216,-487.8001 329.9566,-494.2004 359.1318,-499.2423"/>
<polygon fill="#8dd3c7" stroke="#8dd3c7" stroke-width="2" points="358.913,-501.8683 366.7505,-500.5589 359.807,-496.695 358.913,-501.8683"/>
<text text-anchor="middle" x="318" y="-508.6" font-family="Helvetica,sans-Serif" font-size="8.00" fill="#000000">Package content</text>
<text text-anchor="middle" x="318" y="-499.6" font-family="Helvetica,sans-Serif" font-size="8.00" fill="#000000">isn&#39;t valid</text>
</g>
<!-- shaping -->
<g id="node16" class="node">
<title>shaping</title>
<ellipse fill="none" stroke="#000000" cx="404.0216" cy="-453" rx="27" ry="18"/>
<text text-anchor="middle" x="404.0216" y="-451.1" font-family="Helvetica,sans-Serif" font-size="8.00" fill="#000000">shaping</text>
</g>
<!-- validating&#45;&gt;shaping -->
<g id="edge3" class="edge">
<title>validating&#45;&gt;shaping</title>
<path fill="none" stroke="#8dd3c7" stroke-width="2" d="M265.0255,-469.536C271.9799,-467.0275 279.7069,-464.5807 287,-463 314.2137,-457.1019 345.6936,-454.6508 369.144,-453.6475"/>
<polygon fill="#8dd3c7" stroke="#8dd3c7" stroke-width="2" points="369.3755,-456.2657 376.7712,-453.3599 369.1776,-451.0195 369.3755,-456.2657"/>
<text text-anchor="middle" x="318" y="-474.6" font-family="Helvetica,sans-Serif" font-size="8.00" fill="#000000">Package content</text>
<text text-anchor="middle" x="318" y="-465.6" font-family="Helvetica,sans-Serif" font-size="8.00" fill="#000000">is valid</text>
</g>
<!-- shaping&#45;&gt;local_failed -->
<g id="edge6" class="edge">
<title>shaping&#45;&gt;local_failed</title>
<path fill="none" stroke="#8dd3c7" stroke-width="2" d="M431.0212,-454.4302C455.9631,-455.7515 493.1507,-457.7214 520.2985,-459.1595"/>
<polygon fill="#8dd3c7" stroke="#8dd3c7" stroke-width="2" points="520.3947,-461.7932 528.0231,-459.5687 520.6725,-456.5505 520.3947,-461.7932"/>
</g>
<!-- shaping&#45;&gt;accepted -->
<g id="edge5" class="edge">
<title>shaping&#45;&gt;accepted</title>
<path fill="none" stroke="#8dd3c7" stroke-width="2" d="M424.3121,-440.915C434.4447,-435.3422 447.0702,-429.0749 459.0431,-425 478.8483,-418.2595 501.8609,-413.8353 520.3894,-411.0603"/>
<polygon fill="#8dd3c7" stroke="#8dd3c7" stroke-width="2" points="520.9791,-413.6278 528.0333,-409.97 520.2377,-408.4304 520.9791,-413.6278"/>
<text text-anchor="middle" x="484.5431" y="-445.6" font-family="Helvetica,sans-Serif" font-size="8.00" fill="#000000">Working copy</text>
<text text-anchor="middle" x="484.5431" y="-436.6" font-family="Helvetica,sans-Serif" font-size="8.00" fill="#000000">restructured</text>
<text text-anchor="middle" x="484.5431" y="-427.6" font-family="Helvetica,sans-Serif" font-size="8.00" fill="#000000">like SDA</text>
</g>
<!-- processing&#45;&gt;processing_failed -->
<g id="edge9" class="edge">
<title>processing&#45;&gt;processing_failed</title>
<path fill="none" stroke="#b3de69" stroke-width="2" d="M667.8886,-212.9873C675.2043,-209.3885 683.4346,-205.4358 691.0431,-202 725.5069,-186.4371 765.5935,-169.9972 793.0485,-158.9864"/>
<polygon fill="#b3de69" stroke="#b3de69" stroke-width="2" points="794.1041,-161.3915 800.0932,-156.1692 792.1546,-156.5168 794.1041,-161.3915"/>
<text text-anchor="middle" x="729.0431" y="-213.6" font-family="Helvetica,sans-Serif" font-size="8.00" fill="#000000">Derivative</text>
<text text-anchor="middle" x="729.0431" y="-204.6" font-family="Helvetica,sans-Serif" font-size="8.00" fill="#000000">creation failed</text>
</g>
<!-- processing&#45;&gt;processed -->
<g id="edge8" class="edge">
<title>processing&#45;&gt;processed</title>
<path fill="none" stroke="#b3de69" stroke-width="2" d="M673.3587,-224C704.7447,-224 756.3315,-224 790.702,-224"/>
<polygon fill="#b3de69" stroke="#b3de69" stroke-width="2" points="791.1172,-226.6251 798.6171,-224 791.1171,-221.3751 791.1172,-226.6251"/>
<text text-anchor="middle" x="729.0431" y="-235.6" font-family="Helvetica,sans-Serif" font-size="8.00" fill="#000000">Derivatives</text>
<text text-anchor="middle" x="729.0431" y="-226.6" font-family="Helvetica,sans-Serif" font-size="8.00" fill="#000000">created</text>
</g>
<!-- distributing&#45;&gt;accepted -->
<g id="edge13" class="edge">
<title>distributing&#45;&gt;accepted</title>
<path fill="none" stroke="#bebada" stroke-width="2" d="M911.1473,-234.6928C847.8613,-265.3148 665.6001,-353.5051 589.2892,-390.4295"/>
<polygon fill="#bebada" stroke="#bebada" stroke-width="2" points="587.8504,-388.2094 582.2425,-393.8391 590.1371,-392.9353 587.8504,-388.2094"/>
<text text-anchor="middle" x="729.0431" y="-351.6" font-family="Helvetica,sans-Serif" font-size="8.00" fill="#000000">Package missing</text>
<text text-anchor="middle" x="729.0431" y="-342.6" font-family="Helvetica,sans-Serif" font-size="8.00" fill="#000000">switchyard metadata</text>
</g>
<!-- distributing&#45;&gt;dist_hard_failed -->
<g id="edge12" class="edge">
<title>distributing&#45;&gt;dist_hard_failed</title>
<path fill="none" stroke="#bebada" stroke-width="2" d="M960.551,-225.1115C1017.5869,-227.4404 1153.5401,-233.0281 1267.5927,-238 1344.785,-241.365 1434.6241,-245.4773 1487.3255,-247.9095"/>
<polygon fill="#bebada" stroke="#bebada" stroke-width="2" points="1487.5282,-250.5466 1495.1414,-248.2705 1487.7705,-245.3022 1487.5282,-250.5466"/>
<text text-anchor="middle" x="1230.5712" y="-249.6" font-family="Helvetica,sans-Serif" font-size="8.00" fill="#000000">Package not</text>
<text text-anchor="middle" x="1230.5712" y="-240.6" font-family="Helvetica,sans-Serif" font-size="8.00" fill="#000000">in workspace</text>
</g>
<!-- submitting -->
<g id="node19" class="node">
<title>submitting</title>
<ellipse fill="none" stroke="#000000" cx="1086.1478" cy="-267" rx="27" ry="18"/>
<text text-anchor="middle" x="1086.1478" y="-265.1" font-family="Helvetica,sans-Serif" font-size="8.00" fill="#000000">submitting</text>
</g>
<!-- distributing&#45;&gt;submitting -->
<g id="edge11" class="edge">
<title>distributing&#45;&gt;submitting</title>
<path fill="none" stroke="#bebada" stroke-width="2" d="M958.1525,-231.0044C984.2532,-238.3446 1025.3571,-249.9041 1053.9158,-257.9355"/>
<polygon fill="#bebada" stroke="#bebada" stroke-width="2" points="1053.3212,-260.4951 1061.2518,-259.9986 1054.7425,-255.4411 1053.3212,-260.4951"/>
<text text-anchor="middle" x="1010.2459" y="-264.6" font-family="Helvetica,sans-Serif" font-size="8.00" fill="#000000">Derivatives</text>
<text text-anchor="middle" x="1010.2459" y="-255.6" font-family="Helvetica,sans-Serif" font-size="8.00" fill="#000000">pushed to HCP</text>
</g>
<!-- hcp_soft_failed -->
<g id="node20" class="node">
<title>hcp_soft_failed</title>
<ellipse fill="none" stroke="#000000" cx="1086.1478" cy="-142" rx="28.3041" ry="18"/>
<text text-anchor="middle" x="1086.1478" y="-140.1" font-family="Helvetica,sans-Serif" font-size="8.00" fill="#000000">hcp_soft_failed</text>
</g>
<!-- distributing&#45;&gt;hcp_soft_failed -->
<g id="edge14" class="edge">
<title>distributing&#45;&gt;hcp_soft_failed</title>
<path fill="none" stroke="#bebada" stroke-width="2" d="M945.8193,-207.7526C954.6071,-197.377 967.1639,-184.3521 980.7459,-176 992.895,-168.529 1026.3607,-158.2986 1052.3564,-151.0162"/>
<polygon fill="#bebada" stroke="#bebada" stroke-width="2" points="1053.2819,-153.4837 1059.8086,-148.9512 1051.88,-148.4243 1053.2819,-153.4837"/>
<text text-anchor="middle" x="1010.2459" y="-178.6" font-family="Helvetica,sans-Serif" font-size="8.00" fill="#000000">HCP push failed</text>
</g>
<!-- submitting&#45;&gt;dist_hard_failed -->
<g id="edge19" class="edge">
<title>submitting&#45;&gt;dist_hard_failed</title>
<path fill="none" stroke="#bebada" stroke-width="2" d="M1113.3922,-265.9622C1187.8646,-263.1252 1395.4027,-255.2194 1487.4584,-251.7127"/>
<polygon fill="#bebada" stroke="#bebada" stroke-width="2" points="1487.8124,-254.3262 1495.207,-251.4175 1487.6125,-249.08 1487.8124,-254.3262"/>
<text text-anchor="middle" x="1315.5927" y="-270.6" font-family="Helvetica,sans-Serif" font-size="8.00" fill="#000000">Package cannot</text>
<text text-anchor="middle" x="1315.5927" y="-261.6" font-family="Helvetica,sans-Serif" font-size="8.00" fill="#000000">be distributed</text>
</g>
<!-- dist_waiting -->
<g id="node21" class="node">
<title>dist_waiting</title>
<ellipse fill="none" stroke="#000000" cx="1230.5712" cy="-351" rx="27" ry="18"/>
<text text-anchor="middle" x="1230.5712" y="-349.1" font-family="Helvetica,sans-Serif" font-size="8.00" fill="#000000">dist_waiting</text>
</g>
<!-- submitting&#45;&gt;dist_waiting -->
<g id="edge17" class="edge">
<title>submitting&#45;&gt;dist_waiting</title>
<path fill="none" stroke="#bebada" stroke-width="2" d="M1103.2395,-281.0778C1111.78,-287.8005 1122.4293,-295.7268 1132.5496,-302 1154.5848,-315.6588 1180.9344,-328.66 1200.7621,-337.8336"/>
<polygon fill="#bebada" stroke="#bebada" stroke-width="2" points="1199.8399,-340.2984 1207.7518,-341.0344 1202.0257,-335.5251 1199.8399,-340.2984"/>
<text text-anchor="middle" x="1154.0496" y="-345.6" font-family="Helvetica,sans-Serif" font-size="8.00" fill="#000000">Submitting</text>
<text text-anchor="middle" x="1154.0496" y="-336.6" font-family="Helvetica,sans-Serif" font-size="8.00" fill="#000000">metadata to</text>
<text text-anchor="middle" x="1154.0496" y="-327.6" font-family="Helvetica,sans-Serif" font-size="8.00" fill="#000000">Switchyard</text>
</g>
<!-- dist_soft_failed -->
<g id="node22" class="node">
<title>dist_soft_failed</title>
<ellipse fill="none" stroke="#000000" cx="1391.9946" cy="-342" rx="28.3041" ry="18"/>
<text text-anchor="middle" x="1391.9946" y="-340.1" font-family="Helvetica,sans-Serif" font-size="8.00" fill="#000000">dist_soft_failed</text>
</g>
<!-- submitting&#45;&gt;dist_soft_failed -->
<g id="edge18" class="edge">
<title>submitting&#45;&gt;dist_soft_failed</title>
<path fill="none" stroke="#bebada" stroke-width="2" d="M1112.9109,-269.8689C1148.5927,-274.0459 1213.5313,-282.8803 1267.5927,-297 1300.1554,-305.5047 1336.1998,-319.0172 1361.071,-329.018"/>
<polygon fill="#bebada" stroke="#bebada" stroke-width="2" points="1360.159,-331.4807 1368.0956,-331.8688 1362.1332,-326.6161 1360.159,-331.4807"/>
<text text-anchor="middle" x="1230.5712" y="-317.6" font-family="Helvetica,sans-Serif" font-size="8.00" fill="#000000">Switchyard</text>
<text text-anchor="middle" x="1230.5712" y="-308.6" font-family="Helvetica,sans-Serif" font-size="8.00" fill="#000000">temporarily</text>
<text text-anchor="middle" x="1230.5712" y="-299.6" font-family="Helvetica,sans-Serif" font-size="8.00" fill="#000000">unavailable</text>
</g>
<!-- hcp_soft_failed&#45;&gt;processed -->
<g id="edge15" class="edge">
<title>hcp_soft_failed&#45;&gt;processed</title>
<path fill="none" stroke="#bebada" stroke-width="2" d="M1057.8838,-144.1033C1021.0839,-147.643 955.3718,-156.7343 903.7459,-179 886.8687,-186.2789 869.049,-196.3805 854.7233,-205.169"/>
<polygon fill="#bebada" stroke="#bebada" stroke-width="2" points="852.9709,-203.1678 847.9908,-209.3597 855.7453,-207.6248 852.9709,-203.1678"/>
<text text-anchor="middle" x="933.2459" y="-190.6" font-family="Helvetica,sans-Serif" font-size="8.00" fill="#000000">Retry a finite</text>
<text text-anchor="middle" x="933.2459" y="-181.6" font-family="Helvetica,sans-Serif" font-size="8.00" fill="#000000">number of times</text>
</g>
<!-- hcp_soft_failed&#45;&gt;hcp_hard_failed -->
<g id="edge16" class="edge">
<title>hcp_soft_failed&#45;&gt;hcp_hard_failed</title>
<path fill="none" stroke="#bebada" stroke-width="2" d="M1114.6812,-142C1134.9179,-142 1162.4855,-142 1185.6563,-142"/>
<polygon fill="#bebada" stroke="#bebada" stroke-width="2" points="1185.8287,-144.6251 1193.3287,-142 1185.8287,-139.3751 1185.8287,-144.6251"/>
<text text-anchor="middle" x="1154.0496" y="-153.6" font-family="Helvetica,sans-Serif" font-size="8.00" fill="#000000">HCP retries</text>
<text text-anchor="middle" x="1154.0496" y="-144.6" font-family="Helvetica,sans-Serif" font-size="8.00" fill="#000000">exhausted</text>
</g>
<!-- dist_waiting&#45;&gt;dist_hard_failed -->
<g id="edge21" class="edge">
<title>dist_waiting&#45;&gt;dist_hard_failed</title>
<path fill="none" stroke="#bebada" stroke-width="2" d="M1253.2297,-340.8485C1263.1245,-336.485 1274.8902,-331.3899 1285.5927,-327 1319.9567,-312.9049 1328.3283,-308.6607 1363.5927,-297 1407.7696,-282.3923 1459.4151,-268.4643 1493.8398,-259.6171"/>
<polygon fill="#bebada" stroke="#bebada" stroke-width="2" points="1494.728,-262.0995 1501.3443,-257.6989 1493.4278,-257.0131 1494.728,-262.0995"/>
<text text-anchor="middle" x="1391.9946" y="-308.6" font-family="Helvetica,sans-Serif" font-size="8.00" fill="#000000">Distribution</text>
<text text-anchor="middle" x="1391.9946" y="-299.6" font-family="Helvetica,sans-Serif" font-size="8.00" fill="#000000">unsuccessful</text>
</g>
<!-- dist_waiting&#45;&gt;distributed -->
<g id="edge20" class="edge">
<title>dist_waiting&#45;&gt;distributed</title>
<path fill="none" stroke="#bebada" stroke-width="2" d="M1255.7936,-358.0313C1283.0964,-365.6425 1326.8186,-377.8309 1357.3374,-386.3386"/>
<polygon fill="#bebada" stroke="#bebada" stroke-width="2" points="1356.8644,-388.9318 1364.7939,-388.4172 1358.2743,-383.8746 1356.8644,-388.9318"/>
<text text-anchor="middle" x="1315.5927" y="-393.6" font-family="Helvetica,sans-Serif" font-size="8.00" fill="#000000">Distribution</text>
<text text-anchor="middle" x="1315.5927" y="-384.6" font-family="Helvetica,sans-Serif" font-size="8.00" fill="#000000">successful</text>
</g>
<!-- dist_waiting&#45;&gt;dist_soft_failed -->
<g id="edge22" class="edge">
<title>dist_waiting&#45;&gt;dist_soft_failed</title>
<path fill="none" stroke="#bebada" stroke-width="2" d="M1254.0413,-342.0499C1263.6673,-338.8287 1275.0148,-335.5969 1285.5927,-334 1311.9606,-330.0194 1319.0232,-331.7264 1345.5927,-334 1349.3649,-334.3228 1353.2908,-334.7906 1357.1915,-335.3404"/>
<polygon fill="#bebada" stroke="#bebada" stroke-width="2" points="1356.8024,-337.9364 1364.6144,-336.4822 1357.6007,-332.7474 1356.8024,-337.9364"/>
<text text-anchor="middle" x="1315.5927" y="-354.6" font-family="Helvetica,sans-Serif" font-size="8.00" fill="#000000">Distribution</text>
<text text-anchor="middle" x="1315.5927" y="-345.6" font-family="Helvetica,sans-Serif" font-size="8.00" fill="#000000">temporarily</text>
<text text-anchor="middle" x="1315.5927" y="-336.6" font-family="Helvetica,sans-Serif" font-size="8.00" fill="#000000">unsuccessful</text>
</g>
<!-- dist_soft_failed&#45;&gt;processed -->
<g id="edge24" class="edge">
<title>dist_soft_failed&#45;&gt;processed</title>
<path fill="none" stroke="#bebada" stroke-width="2" d="M1374.8815,-356.6175C1370.9253,-360.4284 1366.9083,-364.6837 1363.5927,-369 1353.4155,-382.2489 1359.9588,-393.4719 1345.5927,-402 1322.6621,-415.6124 1312.0428,-405.3917 1285.5927,-402 1109.0909,-379.3672 916.0491,-276.0775 849.7684,-238.0806"/>
<polygon fill="#bebada" stroke="#bebada" stroke-width="2" points="850.8428,-235.6699 843.0349,-234.1942 848.2184,-240.2169 850.8428,-235.6699"/>
<text text-anchor="middle" x="1086.1478" y="-370.6" font-family="Helvetica,sans-Serif" font-size="8.00" fill="#000000">Retry</text>
<text text-anchor="middle" x="1086.1478" y="-361.6" font-family="Helvetica,sans-Serif" font-size="8.00" fill="#000000">distribution</text>
</g>
<!-- dist_soft_failed&#45;&gt;dist_hard_failed -->
<g id="edge23" class="edge">
<title>dist_soft_failed&#45;&gt;dist_hard_failed</title>
<path fill="none" stroke="#bebada" stroke-width="2" d="M1415.7487,-332.0623C1433.4176,-324.1982 1457.7646,-312.3449 1477.3965,-299 1490.1305,-290.344 1503.0544,-278.9943 1513.1742,-269.3981"/>
<polygon fill="#bebada" stroke="#bebada" stroke-width="2" points="1515.2108,-271.0807 1518.7859,-263.9842 1511.5657,-267.3024 1515.2108,-271.0807"/>
<text text-anchor="middle" x="1457.8965" y="-332.6" font-family="Helvetica,sans-Serif" font-size="8.00" fill="#000000">Retries</text>
<text text-anchor="middle" x="1457.8965" y="-323.6" font-family="Helvetica,sans-Serif" font-size="8.00" fill="#000000">exhausted</text>
</g>
<!-- storing&#45;&gt;finished -->
<g id="edge26" class="edge">
<title>storing&#45;&gt;finished</title>
<path fill="none" stroke="#fb8072" stroke-width="2" d="M1559.4782,-409.7673C1588.4524,-411.6597 1634.5172,-414.6683 1666.1394,-416.7335"/>
<polygon fill="#fb8072" stroke="#fb8072" stroke-width="2" points="1666.1934,-419.3676 1673.8485,-417.237 1666.5356,-414.1287 1666.1934,-419.3676"/>
<text text-anchor="middle" x="1620.9396" y="-426.6" font-family="Helvetica,sans-Serif" font-size="8.00" fill="#000000">Package</text>
<text text-anchor="middle" x="1620.9396" y="-417.6" font-family="Helvetica,sans-Serif" font-size="8.00" fill="#000000">pushed to SDA</text>
</g>
<!-- sda_soft_failed -->
<g id="node24" class="node">
<title>sda_soft_failed</title>
<ellipse fill="none" stroke="#000000" cx="1700.8415" cy="-354" rx="28.3041" ry="18"/>
<text text-anchor="middle" x="1700.8415" y="-352.1" font-family="Helvetica,sans-Serif" font-size="8.00" fill="#000000">sda_soft_failed</text>
</g>
<!-- storing&#45;&gt;sda_soft_failed -->
<g id="edge27" class="edge">
<title>storing&#45;&gt;sda_soft_failed</title>
<path fill="none" stroke="#fb8072" stroke-width="2" d="M1556.9083,-400.1479C1586.2169,-390.751 1635.4097,-374.9788 1667.9967,-364.5307"/>
<polygon fill="#fb8072" stroke="#fb8072" stroke-width="2" points="1669.1546,-366.9161 1675.4951,-362.1266 1667.5517,-361.9168 1669.1546,-366.9161"/>
<text text-anchor="middle" x="1620.9396" y="-390.6" font-family="Helvetica,sans-Serif" font-size="8.00" fill="#000000">Push to SDA failed</text>
</g>
<!-- sda_soft_failed&#45;&gt;sda_hard_failed -->
<g id="edge29" class="edge">
<title>sda_soft_failed&#45;&gt;sda_hard_failed</title>
<path fill="none" stroke="#fb8072" stroke-width="2" d="M1728.495,-349.1797C1749.1348,-345.582 1777.7248,-340.5986 1801.3285,-336.4842"/>
<polygon fill="#fb8072" stroke="#fb8072" stroke-width="2" points="1801.8626,-339.0558 1808.8004,-335.1818 1800.9611,-333.8838 1801.8626,-339.0558"/>
<text text-anchor="middle" x="1768.2434" y="-356.6" font-family="Helvetica,sans-Serif" font-size="8.00" fill="#000000">SDA retries</text>
<text text-anchor="middle" x="1768.2434" y="-347.6" font-family="Helvetica,sans-Serif" font-size="8.00" fill="#000000">exhausted</text>
</g>
<!-- sda_soft_failed&#45;&gt;distributed -->
<g id="edge28" class="edge">
<title>sda_soft_failed&#45;&gt;distributed</title>
<path fill="none" stroke="#fb8072" stroke-width="2" d="M1672.3343,-352.8836C1632.4248,-351.855 1557.7842,-351.8823 1495.3965,-363 1471.7694,-367.2104 1446.0588,-375.3991 1426.1856,-382.5656"/>
<polygon fill="#fb8072" stroke="#fb8072" stroke-width="2" points="1425.279,-380.1021 1419.1426,-385.1504 1427.0879,-385.0306 1425.279,-380.1021"/>
<text text-anchor="middle" x="1532.4181" y="-374.6" font-family="Helvetica,sans-Serif" font-size="8.00" fill="#000000">Retry a finite</text>
<text text-anchor="middle" x="1532.4181" y="-365.6" font-family="Helvetica,sans-Serif" font-size="8.00" fill="#000000">number of times</text>
</g>
<!-- deleted -->
<g id="node26" class="node">
<title>deleted</title>
<ellipse fill="none" stroke="#000000" cx="2159.2865" cy="-250" rx="27" ry="18"/>
<text text-anchor="middle" x="2159.2865" y="-248.1" font-family="Helvetica,sans-Serif" font-size="8.00" fill="#000000">deleted</text>
</g>
<!-- cleaning&#45;&gt;deleted -->
<g id="edge37" class="edge">
<title>cleaning&#45;&gt;deleted</title>
<path fill="none" stroke="#80b1d3" stroke-width="2" d="M2020.3267,-250C2048.7838,-250 2093.6684,-250 2124.6885,-250"/>
<polygon fill="#80b1d3" stroke="#80b1d3" stroke-width="2" points="2124.7579,-252.6251 2132.2579,-250 2124.7578,-247.3751 2124.7579,-252.6251"/>
<text text-anchor="middle" x="2076.2865" y="-270.6" font-family="Helvetica,sans-Serif" font-size="8.00" fill="#000000">Failed packages</text>
<text text-anchor="middle" x="2076.2865" y="-261.6" font-family="Helvetica,sans-Serif" font-size="8.00" fill="#000000"> moved to temporary</text>
<text text-anchor="middle" x="2076.2865" y="-252.6" font-family="Helvetica,sans-Serif" font-size="8.00" fill="#000000"> debugging storage</text>
</g>
<!-- deleted&#45;&gt;debugging -->
<g id="edge38" class="edge">
<title>deleted&#45;&gt;debugging</title>
<path fill="none" stroke="#fdb462" stroke-width="2" d="M2186.4504,-250C2211.1161,-250 2247.6292,-250 2274.4372,-250"/>
<polygon fill="#fdb462" stroke="#fdb462" stroke-width="2" points="2274.5717,-252.6251 2282.0717,-250 2274.5717,-247.3751 2274.5717,-252.6251"/>
<text text-anchor="middle" x="2234.2865" y="-270.6" font-family="Helvetica,sans-Serif" font-size="8.00" fill="#000000">May move to</text>
<text text-anchor="middle" x="2234.2865" y="-261.6" font-family="Helvetica,sans-Serif" font-size="8.00" fill="#000000">any other house</text>
<text text-anchor="middle" x="2234.2865" y="-252.6" font-family="Helvetica,sans-Serif" font-size="8.00" fill="#000000">state manually</text>
</g>
<!-- accept_packages -->
<g id="node27" class="node">
<title>accept_packages</title>
<polygon fill="#8dd3c7" stroke="#8dd3c7" points="2443.2865,-52 2377.2865,-52 2377.2865,-16 2443.2865,-16 2443.2865,-52"/>
<text text-anchor="middle" x="2410.2865" y="-32.1" font-family="Helvetica,sans-Serif" font-size="8.00" fill="#000000">accept_packages</text>
</g>
<!-- process_packages -->
<g id="node28" class="node">
<title>process_packages</title>
<polygon fill="#b3de69" stroke="#b3de69" points="2445.7865,-160 2374.7865,-160 2374.7865,-124 2445.7865,-124 2445.7865,-160"/>
<text text-anchor="middle" x="2410.2865" y="-140.1" font-family="Helvetica,sans-Serif" font-size="8.00" fill="#000000">process_packages</text>
</g>
<!-- accept_packages&#45;&gt;process_packages -->
<!-- process_packages&#45;&gt;distribute_packages -->
<!-- store_packages -->
<g id="node30" class="node">
<title>store_packages</title>
<polygon fill="#fb8072" stroke="#fb8072" points="2440.2865,-376 2380.2865,-376 2380.2865,-340 2440.2865,-340 2440.2865,-376"/>
<text text-anchor="middle" x="2410.2865" y="-356.1" font-family="Helvetica,sans-Serif" font-size="8.00" fill="#000000">store_packages</text>
</g>
<!-- distribute_packages&#45;&gt;store_packages -->
<!-- cleanup_packages -->
<g id="node31" class="node">
<title>cleanup_packages</title>
<polygon fill="#80b1d3" stroke="#80b1d3" points="2445.2865,-484 2375.2865,-484 2375.2865,-448 2445.2865,-448 2445.2865,-484"/>
<text text-anchor="middle" x="2410.2865" y="-464.1" font-family="Helvetica,sans-Serif" font-size="8.00" fill="#000000">cleanup_packages</text>
</g>
<!-- store_packages&#45;&gt;cleanup_packages -->
<!-- xdebugging -->
<g id="node32" class="node">
<title>xdebugging</title>
<polygon fill="#fdb462" stroke="#fdb462" points="2444.2865,-592 2376.2865,-592 2376.2865,-556 2444.2865,-556 2444.2865,-592"/>
<text text-anchor="middle" x="2410.2865" y="-572.1" font-family="Helvetica,sans-Serif" font-size="8.00" fill="#000000">Manual Debugging</text>
</g>
<!-- cleanup_packages&#45;&gt;xdebugging -->
</g>
</svg>
