<?xml version="1.0" encoding="UTF-8" standalone="no"?>
<!DOCTYPE svg PUBLIC "-//W3C//DTD SVG 1.1//EN"
 "http://www.w3.org/Graphics/SVG/1.1/DTD/svg11.dtd">
<!-- Generated by graphviz version 2.44.0 (0)
 -->
<!-- Pages: 1 -->
<svg width="2335pt" height="400pt"
 viewBox="0.00 0.00 2334.88 400.00" xmlns="http://www.w3.org/2000/svg" xmlns:xlink="http://www.w3.org/1999/xlink">
<g id="graph0" class="graph" transform="scale(1 1) rotate(0) translate(4 396)">
<polygon fill="white" stroke="transparent" points="-4,4 -4,-396 2330.88,-396 2330.88,4 -4,4"/>
<text text-anchor="middle" x="1163.44" y="-378.4" font-family="Helvetica" font-size="12.00">IU/UM object flow</text>
<!-- start -->
<g id="node1" class="node">
<title>start</title>
<polygon fill="none" stroke="black" points="54,-178 0,-178 0,-142 54,-142 54,-178"/>
<text text-anchor="middle" x="27" y="-158.1" font-family="Helvetica" font-size="8.00">START</text>
</g>
<!-- transferred -->
<g id="node2" class="node">
<title>transferred</title>
<ellipse fill="none" stroke="black" cx="149" cy="-160" rx="27" ry="18"/>
<text text-anchor="middle" x="149" y="-158.1" font-family="Helvetica" font-size="8.00">transferred</text>
</g>
<!-- start&#45;&gt;transferred -->
<g id="edge1" class="edge">
<title>start&#45;&gt;transferred</title>
<path fill="none" stroke="black" stroke-width="2" d="M54.04,-160C71.61,-160 94.97,-160 114,-160"/>
<polygon fill="black" stroke="black" stroke-width="2" points="114.1,-162.63 121.6,-160 114.1,-157.38 114.1,-162.63"/>
<text text-anchor="middle" x="88" y="-171.6" font-family="Helvetica" font-size="8.00">Package</text>
<text text-anchor="middle" x="88" y="-162.6" font-family="Helvetica" font-size="8.00">delivered</text>
</g>
<!-- validating -->
<g id="node3" class="node">
<title>validating</title>
<ellipse fill="none" stroke="black" cx="240" cy="-160" rx="27" ry="18"/>
<text text-anchor="middle" x="240" y="-158.1" font-family="Helvetica" font-size="8.00">validating</text>
</g>
<!-- transferred&#45;&gt;validating -->
<g id="edge2" class="edge">
<title>transferred&#45;&gt;validating</title>
<path fill="none" stroke="black" stroke-width="2" d="M176.22,-160C185.37,-160 195.76,-160 205.41,-160"/>
<polygon fill="black" stroke="black" stroke-width="2" points="205.47,-162.63 212.97,-160 205.47,-157.38 205.47,-162.63"/>
</g>
<!-- validation_failed -->
<g id="node4" class="node">
<title>validation_failed</title>
<polygon fill="none" stroke="black" points="507.65,-252.56 471.38,-265 435.12,-252.56 435.15,-232.44 507.62,-232.44 507.65,-252.56"/>
<text text-anchor="middle" x="471.38" y="-245.1" font-family="Helvetica" font-size="8.00">validation_failed</text>
</g>
<!-- validating&#45;&gt;validation_failed -->
<g id="edge4" class="edge">
<title>validating&#45;&gt;validation_failed</title>
<path fill="none" stroke="black" stroke-width="2" d="M263.83,-168.66C301.99,-183.13 379.29,-212.45 427.75,-230.83"/>
<polygon fill="black" stroke="black" stroke-width="2" points="427.03,-233.36 434.97,-233.57 428.89,-228.46 427.03,-233.36"/>
<text text-anchor="middle" x="315" y="-208.6" font-family="Helvetica" font-size="8.00">Package content</text>
<text text-anchor="middle" x="315" y="-199.6" font-family="Helvetica" font-size="8.00">isn&#39;t valid</text>
</g>
<!-- shaping -->
<g id="node5" class="node">
<title>shaping</title>
<ellipse fill="none" stroke="black" cx="390" cy="-74" rx="27" ry="18"/>
<text text-anchor="middle" x="390" y="-72.1" font-family="Helvetica" font-size="8.00">shaping</text>
</g>
<!-- validating&#45;&gt;shaping -->
<g id="edge3" class="edge">
<title>validating&#45;&gt;shaping</title>
<path fill="none" stroke="black" stroke-width="2" d="M260.96,-148.4C287.11,-133.21 333.06,-106.51 362.21,-89.56"/>
<polygon fill="black" stroke="black" stroke-width="2" points="363.72,-91.73 368.88,-85.69 361.08,-87.19 363.72,-91.73"/>
<text text-anchor="middle" x="315" y="-143.6" font-family="Helvetica" font-size="8.00">Package content</text>
<text text-anchor="middle" x="315" y="-134.6" font-family="Helvetica" font-size="8.00">is valid</text>
</g>
<!-- cleaning -->
<g id="node19" class="node">
<title>cleaning</title>
<ellipse fill="none" stroke="black" cx="1986.88" cy="-152" rx="27" ry="18"/>
<text text-anchor="middle" x="1986.88" y="-150.1" font-family="Helvetica" font-size="8.00">cleaning</text>
</g>
<!-- validation_failed&#45;&gt;cleaning -->
<g id="edge5" class="edge">
<title>validation_failed&#45;&gt;cleaning</title>
<path fill="none" stroke="black" stroke-width="2" d="M481.19,-262.2C501.64,-295.32 555.82,-371 623.77,-371 623.77,-371 623.77,-371 1886.85,-371 1970.74,-371 1983.94,-235.93 1985.74,-177.94"/>
<polygon fill="black" stroke="black" stroke-width="2" points="1988.37,-177.86 1985.93,-170.3 1983.12,-177.73 1988.37,-177.86"/>
</g>
<!-- local_failed -->
<g id="node6" class="node">
<title>local_failed</title>
<polygon fill="none" stroke="black" points="651.77,-24.56 624.77,-37 597.77,-24.56 597.79,-4.44 651.74,-4.44 651.77,-24.56"/>
<text text-anchor="middle" x="624.77" y="-17.1" font-family="Helvetica" font-size="8.00">local_failed</text>
</g>
<!-- shaping&#45;&gt;local_failed -->
<g id="edge7" class="edge">
<title>shaping&#45;&gt;local_failed</title>
<path fill="none" stroke="black" stroke-width="2" d="M415.91,-68.11C458.13,-58.14 543.72,-37.91 590.83,-26.78"/>
<polygon fill="black" stroke="black" stroke-width="2" points="591.63,-29.29 598.33,-25.01 590.43,-24.18 591.63,-29.29"/>
</g>
<!-- accepted -->
<g id="node7" class="node">
<title>accepted</title>
<polygon fill="none" stroke="black" points="579.77,-79.56 552.77,-92 525.77,-79.56 525.79,-59.44 579.74,-59.44 579.77,-79.56"/>
<text text-anchor="middle" x="552.77" y="-72.1" font-family="Helvetica" font-size="8.00">accepted</text>
</g>
<!-- shaping&#45;&gt;accepted -->
<g id="edge6" class="edge">
<title>shaping&#45;&gt;accepted</title>
<path fill="none" stroke="black" stroke-width="2" d="M417.19,-74C444.63,-74 487.85,-74 517.88,-74"/>
<polygon fill="black" stroke="black" stroke-width="2" points="518.09,-76.63 525.59,-74 518.09,-71.38 518.09,-76.63"/>
<text text-anchor="middle" x="471.38" y="-94.6" font-family="Helvetica" font-size="8.00">Working copy</text>
<text text-anchor="middle" x="471.38" y="-85.6" font-family="Helvetica" font-size="8.00">restructured</text>
<text text-anchor="middle" x="471.38" y="-76.6" font-family="Helvetica" font-size="8.00">like SDA</text>
</g>
<!-- local_failed&#45;&gt;cleaning -->
<g id="edge8" class="edge">
<title>local_failed&#45;&gt;cleaning</title>
<path fill="none" stroke="black" stroke-width="2" d="M651.85,-13.3C679.76,-7.7 725.43,0 765.27,0 765.27,0 765.27,0 1886.85,0 1951.19,0 1925.76,-70.45 1959.88,-125 1961.38,-127.4 1963.12,-129.77 1964.98,-132.04"/>
<polygon fill="black" stroke="black" stroke-width="2" points="1963.15,-133.94 1970.09,-137.81 1967.08,-130.45 1963.15,-133.94"/>
</g>
<!-- processing -->
<g id="node8" class="node">
<title>processing</title>
<ellipse fill="none" stroke="black" cx="696.77" cy="-74" rx="27" ry="18"/>
<text text-anchor="middle" x="696.77" y="-72.1" font-family="Helvetica" font-size="8.00">processing</text>
</g>
<!-- accepted&#45;&gt;processing -->
<g id="edge9" class="edge">
<title>accepted&#45;&gt;processing</title>
<path fill="none" stroke="black" stroke-width="2" d="M579.81,-74C602.89,-74 636.72,-74 661.89,-74"/>
<polygon fill="black" stroke="black" stroke-width="2" points="661.91,-76.63 669.41,-74 661.91,-71.38 661.91,-76.63"/>
</g>
<!-- processing_failed -->
<g id="node9" class="node">
<title>processing_failed</title>
<polygon fill="none" stroke="black" points="958.58,-43.56 919.7,-56 880.83,-43.56 880.87,-23.44 958.54,-23.44 958.58,-43.56"/>
<text text-anchor="middle" x="919.7" y="-36.1" font-family="Helvetica" font-size="8.00">processing_failed</text>
</g>
<!-- processing&#45;&gt;processing_failed -->
<g id="edge11" class="edge">
<title>processing&#45;&gt;processing_failed</title>
<path fill="none" stroke="black" stroke-width="2" d="M718.78,-63.34C725.91,-60.16 734.03,-56.99 741.77,-55 785.39,-43.78 836.79,-39.83 872.91,-38.5"/>
<polygon fill="black" stroke="black" stroke-width="2" points="873.43,-41.11 880.84,-38.25 873.26,-35.87 873.43,-41.11"/>
<text text-anchor="middle" x="766.27" y="-66.6" font-family="Helvetica" font-size="8.00">Derivative</text>
<text text-anchor="middle" x="766.27" y="-57.6" font-family="Helvetica" font-size="8.00">creation failed</text>
</g>
<!-- processed -->
<g id="node10" class="node">
<title>processed</title>
<polygon fill="none" stroke="black" points="862.77,-89.56 835.77,-102 808.77,-89.56 808.79,-69.44 862.74,-69.44 862.77,-89.56"/>
<text text-anchor="middle" x="835.77" y="-82.1" font-family="Helvetica" font-size="8.00">processed</text>
</g>
<!-- processing&#45;&gt;processed -->
<g id="edge10" class="edge">
<title>processing&#45;&gt;processed</title>
<path fill="none" stroke="black" stroke-width="2" d="M723.86,-75.9C745.76,-77.5 777.2,-79.8 801.01,-81.54"/>
<polygon fill="black" stroke="black" stroke-width="2" points="801.1,-84.17 808.77,-82.1 801.48,-78.94 801.1,-84.17"/>
<text text-anchor="middle" x="766.27" y="-91.6" font-family="Helvetica" font-size="8.00">Derivatives</text>
<text text-anchor="middle" x="766.27" y="-82.6" font-family="Helvetica" font-size="8.00">created</text>
</g>
<!-- processing_failed&#45;&gt;cleaning -->
<g id="edge12" class="edge">
<title>processing_failed&#45;&gt;cleaning</title>
<path fill="none" stroke="black" stroke-width="2" d="M958.83,-38C991.24,-38 1038.99,-38 1080.64,-38 1080.64,-38 1080.64,-38 1886.85,-38 1937.33,-38 1926.12,-87.46 1959.88,-125 1961.77,-127.11 1963.77,-129.28 1965.79,-131.43"/>
<polygon fill="black" stroke="black" stroke-width="2" points="1964.05,-133.41 1971.11,-137.04 1967.85,-129.79 1964.05,-133.41"/>
</g>
<!-- distributing -->
<g id="node14" class="node">
<title>distributing</title>
<ellipse fill="none" stroke="black" cx="1005.64" cy="-138" rx="27" ry="18"/>
<text text-anchor="middle" x="1005.64" y="-136.1" font-family="Helvetica" font-size="8.00">distributing</text>
</g>
<!-- processed&#45;&gt;distributing -->
<g id="edge13" class="edge">
<title>processed&#45;&gt;distributing</title>
<path fill="none" stroke="black" stroke-width="2" d="M859.41,-91.28C888.94,-100.78 940.75,-117.45 973.84,-128.09"/>
<polygon fill="black" stroke="black" stroke-width="2" points="973.06,-130.6 981.01,-130.4 974.67,-125.6 973.06,-130.6"/>
</g>
<!-- storing -->
<g id="node11" class="node">
<title>storing</title>
<ellipse fill="none" stroke="black" cx="1584.63" cy="-315" rx="27" ry="18"/>
<text text-anchor="middle" x="1584.63" y="-313.1" font-family="Helvetica" font-size="8.00">storing</text>
</g>
<!-- sda_soft_failed -->
<g id="node12" class="node">
<title>sda_soft_failed</title>
<ellipse fill="none" stroke="black" cx="1744.95" cy="-307" rx="27.77" ry="18"/>
<text text-anchor="middle" x="1744.95" y="-305.1" font-family="Helvetica" font-size="8.00">sda_soft_failed</text>
</g>
<!-- storing&#45;&gt;sda_soft_failed -->
<g id="edge30" class="edge">
<title>storing&#45;&gt;sda_soft_failed</title>
<path fill="none" stroke="black" stroke-width="2" d="M1610.58,-320.19C1633.68,-324.18 1668.91,-328.21 1699.06,-323 1703.88,-322.17 1708.86,-320.87 1713.67,-319.36"/>
<polygon fill="black" stroke="black" stroke-width="2" points="1714.8,-321.75 1721.06,-316.86 1713.11,-316.78 1714.8,-321.75"/>
<text text-anchor="middle" x="1665.56" y="-327.6" font-family="Helvetica" font-size="8.00">Push to SDA failed</text>
</g>
<!-- finished -->
<g id="node20" class="node">
<title>finished</title>
<polygon fill="none" stroke="black" points="1771.95,-258.56 1744.95,-271 1717.95,-258.56 1717.97,-238.44 1771.92,-238.44 1771.95,-258.56"/>
<text text-anchor="middle" x="1744.95" y="-251.1" font-family="Helvetica" font-size="8.00">finished</text>
</g>
<!-- storing&#45;&gt;finished -->
<g id="edge29" class="edge">
<title>storing&#45;&gt;finished</title>
<path fill="none" stroke="black" stroke-width="2" d="M1599.75,-299.9C1608.32,-291.62 1619.93,-281.87 1632.06,-276 1656.76,-264.05 1687.44,-258.3 1710.43,-255.54"/>
<polygon fill="black" stroke="black" stroke-width="2" points="1710.74,-258.14 1717.91,-254.71 1710.16,-252.92 1710.74,-258.14"/>
<text text-anchor="middle" x="1665.56" y="-287.6" font-family="Helvetica" font-size="8.00">Package</text>
<text text-anchor="middle" x="1665.56" y="-278.6" font-family="Helvetica" font-size="8.00">pushed to SDA</text>
</g>
<!-- sda_soft_failed&#45;&gt;storing -->
<g id="edge31" class="edge">
<title>sda_soft_failed&#45;&gt;storing</title>
<path fill="none" stroke="black" stroke-width="2" d="M1717.59,-302.64C1694.83,-299.57 1661.12,-296.71 1632.06,-301 1626.91,-301.76 1621.54,-302.97 1616.36,-304.37"/>
<polygon fill="black" stroke="black" stroke-width="2" points="1615.42,-301.91 1608.94,-306.52 1616.88,-306.95 1615.42,-301.91"/>
<text text-anchor="middle" x="1665.56" y="-312.6" font-family="Helvetica" font-size="8.00">Retry a finite</text>
<text text-anchor="middle" x="1665.56" y="-303.6" font-family="Helvetica" font-size="8.00">number of times</text>
</g>
<!-- sda_hard_failed -->
<g id="node13" class="node">
<title>sda_hard_failed</title>
<polygon fill="none" stroke="black" points="1922.9,-284.56 1885.85,-297 1848.81,-284.56 1848.85,-264.44 1922.86,-264.44 1922.9,-284.56"/>
<text text-anchor="middle" x="1885.85" y="-277.1" font-family="Helvetica" font-size="8.00">sda_hard_failed</text>
</g>
<!-- sda_soft_failed&#45;&gt;sda_hard_failed -->
<g id="edge32" class="edge">
<title>sda_soft_failed&#45;&gt;sda_hard_failed</title>
<path fill="none" stroke="black" stroke-width="2" d="M1771.75,-301.8C1792.14,-297.69 1820.97,-291.88 1844.42,-287.15"/>
<polygon fill="black" stroke="black" stroke-width="2" points="1844.99,-289.71 1851.82,-285.66 1843.95,-284.57 1844.99,-289.71"/>
<text text-anchor="middle" x="1810.83" y="-308.6" font-family="Helvetica" font-size="8.00">SDA retries</text>
<text text-anchor="middle" x="1810.83" y="-299.6" font-family="Helvetica" font-size="8.00">exhausted</text>
</g>
<!-- sda_hard_failed&#45;&gt;cleaning -->
<g id="edge33" class="edge">
<title>sda_hard_failed&#45;&gt;cleaning</title>
<path fill="none" stroke="black" stroke-width="2" d="M1900.47,-264.39C1911.92,-251.88 1928.52,-233.21 1941.88,-216 1952.13,-202.79 1962.78,-187.36 1971.03,-174.96"/>
<polygon fill="black" stroke="black" stroke-width="2" points="1973.41,-176.12 1975.35,-168.41 1969.03,-173.22 1973.41,-176.12"/>
</g>
<!-- hcp_soft_failed -->
<g id="node15" class="node">
<title>hcp_soft_failed</title>
<ellipse fill="none" stroke="black" cx="1156.52" cy="-84" rx="27.77" ry="18"/>
<text text-anchor="middle" x="1156.52" y="-82.1" font-family="Helvetica" font-size="8.00">hcp_soft_failed</text>
</g>
<!-- distributing&#45;&gt;hcp_soft_failed -->
<g id="edge15" class="edge">
<title>distributing&#45;&gt;hcp_soft_failed</title>
<path fill="none" stroke="black" stroke-width="2" d="M1029.9,-129.56C1055.43,-120.3 1096.52,-105.4 1124.71,-95.18"/>
<polygon fill="black" stroke="black" stroke-width="2" points="1125.78,-97.58 1131.93,-92.56 1123.99,-92.65 1125.78,-97.58"/>
<text text-anchor="middle" x="1081.64" y="-122.6" font-family="Helvetica" font-size="8.00">HCP push failed</text>
</g>
<!-- submitting -->
<g id="node17" class="node">
<title>submitting</title>
<ellipse fill="none" stroke="black" cx="1156.52" cy="-176" rx="27" ry="18"/>
<text text-anchor="middle" x="1156.52" y="-174.1" font-family="Helvetica" font-size="8.00">submitting</text>
</g>
<!-- distributing&#45;&gt;submitting -->
<g id="edge14" class="edge">
<title>distributing&#45;&gt;submitting</title>
<path fill="none" stroke="black" stroke-width="2" d="M1031.22,-144.27C1056.44,-150.71 1095.78,-160.75 1123.43,-167.81"/>
<polygon fill="black" stroke="black" stroke-width="2" points="1122.99,-170.4 1130.9,-169.72 1124.29,-165.32 1122.99,-170.4"/>
<text text-anchor="middle" x="1081.64" y="-174.6" font-family="Helvetica" font-size="8.00">Derivatives</text>
<text text-anchor="middle" x="1081.64" y="-165.6" font-family="Helvetica" font-size="8.00">pushed to HCP</text>
</g>
<!-- hcp_soft_failed&#45;&gt;processed -->
<g id="edge16" class="edge">
<title>hcp_soft_failed&#45;&gt;processed</title>
<path fill="none" stroke="black" stroke-width="2" d="M1128.63,-84C1070.71,-84 934.29,-84 870.61,-84"/>
<polygon fill="black" stroke="black" stroke-width="2" points="870.35,-81.38 862.85,-84 870.35,-86.63 870.35,-81.38"/>
<text text-anchor="middle" x="1005.64" y="-95.6" font-family="Helvetica" font-size="8.00">Retry a finite</text>
<text text-anchor="middle" x="1005.64" y="-86.6" font-family="Helvetica" font-size="8.00">number of times</text>
</g>
<!-- hcp_hard_failed -->
<g id="node16" class="node">
<title>hcp_hard_failed</title>
<polygon fill="none" stroke="black" points="1409.48,-87.56 1372.43,-100 1335.39,-87.56 1335.42,-67.44 1409.44,-67.44 1409.48,-87.56"/>
<text text-anchor="middle" x="1372.43" y="-80.1" font-family="Helvetica" font-size="8.00">hcp_hard_failed</text>
</g>
<!-- hcp_soft_failed&#45;&gt;hcp_hard_failed -->
<g id="edge17" class="edge">
<title>hcp_soft_failed&#45;&gt;hcp_hard_failed</title>
<path fill="none" stroke="black" stroke-width="2" d="M1184.62,-83.75C1220.6,-83.41 1284.6,-82.81 1327.53,-82.41"/>
<polygon fill="black" stroke="black" stroke-width="2" points="1327.81,-85.03 1335.29,-82.34 1327.76,-79.78 1327.81,-85.03"/>
<text text-anchor="middle" x="1223.91" y="-94.6" font-family="Helvetica" font-size="8.00">HCP retries</text>
<text text-anchor="middle" x="1223.91" y="-85.6" font-family="Helvetica" font-size="8.00">exhausted</text>
</g>
<!-- hcp_hard_failed&#45;&gt;cleaning -->
<g id="edge18" class="edge">
<title>hcp_hard_failed&#45;&gt;cleaning</title>
<path fill="none" stroke="black" stroke-width="2" d="M1405.34,-89C1434.46,-94.76 1478.75,-102 1517.69,-102 1517.69,-102 1517.69,-102 1886.85,-102 1915.58,-102 1944.44,-118.97 1963.53,-133.14"/>
<polygon fill="black" stroke="black" stroke-width="2" points="1962.07,-135.32 1969.62,-137.81 1965.27,-131.16 1962.07,-135.32"/>
</g>
<!-- dist_waiting -->
<g id="node18" class="node">
<title>dist_waiting</title>
<ellipse fill="none" stroke="black" cx="1290.41" cy="-284" rx="27" ry="18"/>
<text text-anchor="middle" x="1290.41" y="-282.1" font-family="Helvetica" font-size="8.00">dist_waiting</text>
</g>
<!-- submitting&#45;&gt;dist_waiting -->
<g id="edge19" class="edge">
<title>submitting&#45;&gt;dist_waiting</title>
<path fill="none" stroke="black" stroke-width="2" d="M1165.26,-193.32C1172.84,-208.63 1185.69,-230.69 1202.41,-245 1218.48,-258.75 1240.17,-268.49 1257.88,-274.79"/>
<polygon fill="black" stroke="black" stroke-width="2" points="1257.25,-277.35 1265.2,-277.29 1258.95,-272.38 1257.25,-277.35"/>
<text text-anchor="middle" x="1223.91" y="-289.6" font-family="Helvetica" font-size="8.00">Submitting</text>
<text text-anchor="middle" x="1223.91" y="-280.6" font-family="Helvetica" font-size="8.00">metadata to</text>
<text text-anchor="middle" x="1223.91" y="-271.6" font-family="Helvetica" font-size="8.00">Switchyard</text>
</g>
<!-- dist_soft_failed -->
<g id="node24" class="node">
<title>dist_soft_failed</title>
<ellipse fill="none" stroke="black" cx="1454.82" cy="-163" rx="27.24" ry="18"/>
<text text-anchor="middle" x="1454.82" y="-161.1" font-family="Helvetica" font-size="8.00">dist_soft_failed</text>
</g>
<!-- submitting&#45;&gt;dist_soft_failed -->
<g id="edge20" class="edge">
<title>submitting&#45;&gt;dist_soft_failed</title>
<path fill="none" stroke="black" stroke-width="2" d="M1183.56,-174.86C1237.08,-172.51 1359.44,-167.14 1419.41,-164.51"/>
<polygon fill="black" stroke="black" stroke-width="2" points="1419.72,-167.12 1427.1,-164.17 1419.49,-161.88 1419.72,-167.12"/>
<text text-anchor="middle" x="1290.41" y="-191.6" font-family="Helvetica" font-size="8.00">Switchyard</text>
<text text-anchor="middle" x="1290.41" y="-182.6" font-family="Helvetica" font-size="8.00">temporarily</text>
<text text-anchor="middle" x="1290.41" y="-173.6" font-family="Helvetica" font-size="8.00">unavailable</text>
</g>
<!-- dist_hard_failed -->
<g id="node25" class="node">
<title>dist_hard_failed</title>
<ellipse fill="none" stroke="black" cx="1584.63" cy="-204" rx="29.37" ry="18"/>
<text text-anchor="middle" x="1584.63" y="-202.1" font-family="Helvetica" font-size="8.00">dist_hard_failed</text>
</g>
<!-- submitting&#45;&gt;dist_hard_failed -->
<g id="edge21" class="edge">
<title>submitting&#45;&gt;dist_hard_failed</title>
<path fill="none" stroke="black" stroke-width="2" d="M1181.2,-183.51C1202.46,-189.84 1234.67,-198.43 1263.41,-202 1290.88,-205.41 1469.41,-204.72 1547.34,-204.25"/>
<polygon fill="black" stroke="black" stroke-width="2" points="1547.52,-206.88 1555,-204.2 1547.49,-201.63 1547.52,-206.88"/>
<text text-anchor="middle" x="1372.43" y="-215.6" font-family="Helvetica" font-size="8.00">Package cannot</text>
<text text-anchor="middle" x="1372.43" y="-206.6" font-family="Helvetica" font-size="8.00">be distributed</text>
</g>
<!-- dist_waiting&#45;&gt;dist_soft_failed -->
<g id="edge24" class="edge">
<title>dist_waiting&#45;&gt;dist_soft_failed</title>
<path fill="none" stroke="black" stroke-width="2" d="M1307.65,-269.71C1315.59,-263.29 1325.55,-256.04 1335.41,-251 1366.1,-235.32 1381.74,-248.48 1409.45,-228 1423.68,-217.49 1434.86,-200.99 1442.44,-187.24"/>
<polygon fill="black" stroke="black" stroke-width="2" points="1444.9,-188.21 1446.07,-180.35 1440.25,-185.76 1444.9,-188.21"/>
<text text-anchor="middle" x="1372.43" y="-271.6" font-family="Helvetica" font-size="8.00">Distribution</text>
<text text-anchor="middle" x="1372.43" y="-262.6" font-family="Helvetica" font-size="8.00">temporarily</text>
<text text-anchor="middle" x="1372.43" y="-253.6" font-family="Helvetica" font-size="8.00">unsuccessful</text>
</g>
<!-- dist_waiting&#45;&gt;dist_hard_failed -->
<g id="edge23" class="edge">
<title>dist_waiting&#45;&gt;dist_hard_failed</title>
<path fill="none" stroke="black" stroke-width="2" d="M1317.56,-285.27C1341.72,-285.83 1378.46,-285.14 1409.45,-278 1463.56,-265.54 1522.12,-237.29 1555.69,-219.52"/>
<polygon fill="black" stroke="black" stroke-width="2" points="1557.08,-221.75 1562.46,-215.9 1554.61,-217.12 1557.08,-221.75"/>
<text text-anchor="middle" x="1454.82" y="-283.6" font-family="Helvetica" font-size="8.00">Distribution</text>
<text text-anchor="middle" x="1454.82" y="-274.6" font-family="Helvetica" font-size="8.00">unsuccessful</text>
</g>
<!-- distributed -->
<g id="node26" class="node">
<title>distributed</title>
<ellipse fill="none" stroke="black" cx="1454.82" cy="-325" rx="27" ry="18"/>
<text text-anchor="middle" x="1454.82" y="-323.1" font-family="Helvetica" font-size="8.00">distributed</text>
</g>
<!-- dist_waiting&#45;&gt;distributed -->
<g id="edge22" class="edge">
<title>dist_waiting&#45;&gt;distributed</title>
<path fill="none" stroke="black" stroke-width="2" d="M1312.98,-294.46C1320.01,-297.55 1327.93,-300.72 1335.41,-303 1363.57,-311.58 1396.56,-317.37 1420.56,-320.85"/>
<polygon fill="black" stroke="black" stroke-width="2" points="1420.22,-323.46 1428.02,-321.9 1420.96,-318.26 1420.22,-323.46"/>
<text text-anchor="middle" x="1372.43" y="-329.6" font-family="Helvetica" font-size="8.00">Distribution</text>
<text text-anchor="middle" x="1372.43" y="-320.6" font-family="Helvetica" font-size="8.00">successful</text>
</g>
<!-- deleted -->
<g id="node22" class="node">
<title>deleted</title>
<polygon fill="none" stroke="black" points="2178.88,-123.56 2151.88,-136 2124.88,-123.56 2124.9,-103.44 2178.85,-103.44 2178.88,-123.56"/>
<text text-anchor="middle" x="2151.88" y="-116.1" font-family="Helvetica" font-size="8.00">deleted</text>
</g>
<!-- cleaning&#45;&gt;deleted -->
<g id="edge35" class="edge">
<title>cleaning&#45;&gt;deleted</title>
<path fill="none" stroke="black" stroke-width="2" d="M2012.99,-146.76C2040.9,-140.94 2086.11,-131.51 2117.1,-125.05"/>
<polygon fill="black" stroke="black" stroke-width="2" points="2117.85,-127.57 2124.65,-123.47 2116.78,-122.43 2117.85,-127.57"/>
<text text-anchor="middle" x="2069.38" y="-161.6" font-family="Helvetica" font-size="8.00">Failed packages</text>
<text text-anchor="middle" x="2069.38" y="-152.6" font-family="Helvetica" font-size="8.00"> moved to temporary</text>
<text text-anchor="middle" x="2069.38" y="-143.6" font-family="Helvetica" font-size="8.00"> debugging storage</text>
</g>
<!-- to_delete -->
<g id="node21" class="node">
<title>to_delete</title>
<polygon fill="none" stroke="black" points="2013.88,-103.56 1986.88,-116 1959.88,-103.56 1959.9,-83.44 2013.85,-83.44 2013.88,-103.56"/>
<text text-anchor="middle" x="1986.88" y="-96.1" font-family="Helvetica" font-size="8.00">to_delete</text>
</g>
<!-- to_delete&#45;&gt;deleted -->
<g id="edge34" class="edge">
<title>to_delete&#45;&gt;deleted</title>
<path fill="none" stroke="black" stroke-width="2" d="M2014.07,-97.83C2038.32,-98.08 2075.28,-99.48 2106.88,-105 2110.23,-105.59 2113.7,-106.34 2117.14,-107.19"/>
<polygon fill="black" stroke="black" stroke-width="2" points="2116.66,-109.78 2124.58,-109.17 2118.01,-104.7 2116.66,-109.78"/>
<text text-anchor="middle" x="2069.38" y="-116.6" font-family="Helvetica" font-size="8.00">Manually</text>
<text text-anchor="middle" x="2069.38" y="-107.6" font-family="Helvetica" font-size="8.00">force deletion</text>
</g>
<!-- debugging -->
<g id="node23" class="node">
<title>debugging</title>
<polygon fill="none" stroke="black" points="2326.88,-110.54 2326.88,-125.46 2311.06,-136 2288.69,-136 2272.88,-125.46 2272.88,-110.54 2288.69,-100 2311.06,-100 2326.88,-110.54"/>
<text text-anchor="middle" x="2299.88" y="-116.1" font-family="Helvetica" font-size="8.00">debugging</text>
</g>
<!-- deleted&#45;&gt;debugging -->
<g id="edge36" class="edge">
<title>deleted&#45;&gt;debugging</title>
<path fill="none" stroke="black" stroke-width="2" d="M2178.98,-118C2202.91,-118 2238.51,-118 2264.7,-118"/>
<polygon fill="black" stroke="black" stroke-width="2" points="2265.01,-120.63 2272.51,-118 2265.01,-115.38 2265.01,-120.63"/>
<text text-anchor="middle" x="2225.88" y="-138.6" font-family="Helvetica" font-size="8.00">May move to</text>
<text text-anchor="middle" x="2225.88" y="-129.6" font-family="Helvetica" font-size="8.00">any other house</text>
<text text-anchor="middle" x="2225.88" y="-120.6" font-family="Helvetica" font-size="8.00">state manually</text>
</g>
<!-- dist_soft_failed&#45;&gt;submitting -->
<g id="edge26" class="edge">
<title>dist_soft_failed&#45;&gt;submitting</title>
<path fill="none" stroke="black" stroke-width="2" d="M1428.78,-157.44C1392.3,-150.12 1322.43,-139.06 1263.41,-147 1237.5,-150.48 1208.96,-158.56 1188.05,-165.31"/>
<polygon fill="black" stroke="black" stroke-width="2" points="1187.01,-162.88 1180.7,-167.72 1188.65,-167.87 1187.01,-162.88"/>
<text text-anchor="middle" x="1290.41" y="-158.6" font-family="Helvetica" font-size="8.00">Retry</text>
<text text-anchor="middle" x="1290.41" y="-149.6" font-family="Helvetica" font-size="8.00">submission</text>
</g>
<!-- dist_soft_failed&#45;&gt;dist_hard_failed -->
<g id="edge25" class="edge">
<title>dist_soft_failed&#45;&gt;dist_hard_failed</title>
<path fill="none" stroke="black" stroke-width="2" d="M1482.08,-165.12C1498.33,-167.02 1519.41,-170.54 1537.19,-177 1544.14,-179.53 1551.24,-183.08 1557.74,-186.78"/>
<polygon fill="black" stroke="black" stroke-width="2" points="1556.72,-189.23 1564.5,-190.81 1559.4,-184.72 1556.72,-189.23"/>
<text text-anchor="middle" x="1518.69" y="-188.6" font-family="Helvetica" font-size="8.00">Retries</text>
<text text-anchor="middle" x="1518.69" y="-179.6" font-family="Helvetica" font-size="8.00">exhausted</text>
</g>
<!-- dist_hard_failed&#45;&gt;cleaning -->
<g id="edge27" class="edge">
<title>dist_hard_failed&#45;&gt;cleaning</title>
<path fill="none" stroke="black" stroke-width="2" d="M1613.77,-200.34C1685.59,-191.01 1875.44,-166.35 1952.58,-156.33"/>
<polygon fill="black" stroke="black" stroke-width="2" points="1953.02,-158.92 1960.12,-155.35 1952.34,-153.71 1953.02,-158.92"/>
</g>
<!-- distributed&#45;&gt;storing -->
<g id="edge28" class="edge">
<title>distributed&#45;&gt;storing</title>
<path fill="none" stroke="black" stroke-width="2" d="M1481.69,-322.98C1501.3,-321.44 1528.44,-319.32 1549.79,-317.65"/>
<polygon fill="black" stroke="black" stroke-width="2" points="1550.09,-320.26 1557.36,-317.05 1549.68,-315.02 1550.09,-320.26"/>
</g>
</g>
</svg>
